<svg width="80" height="55" viewBox="0 0 80 55" fill="none" xmlns="http://www.w3.org/2000/svg">
<rect width="80" height="55" rx="4" fill="#141F2B"/>
<path fill-rule="evenodd" clip-rule="evenodd" d="M24.2438 20.524C23.6619 21.218 22.7308 21.7654 21.7998 21.6872C21.6834 20.7488 22.1392 19.7518 22.6726 19.136C23.2545 18.4224 24.2729 17.9141 25.0972 17.875C25.1942 18.8525 24.816 19.8104 24.2438 20.524ZM25.0875 21.8723C24.2673 21.8247 23.5189 22.1209 22.9144 22.3601C22.5253 22.5141 22.1959 22.6445 21.9453 22.6445C21.664 22.6445 21.321 22.5071 20.9359 22.3529C20.4312 22.1509 19.8542 21.9198 19.2492 21.9309C17.8623 21.9505 16.5724 22.7422 15.8645 24.0032C14.4097 26.5251 15.4862 30.2591 16.8925 32.3118C17.5811 33.3284 18.4054 34.4428 19.4916 34.4037C19.9695 34.3855 20.3132 34.2385 20.669 34.0863C21.0785 33.9112 21.504 33.7292 22.1683 33.7292C22.8096 33.7292 23.2165 33.9064 23.6071 34.0765C23.9784 34.2383 24.335 34.3936 24.8645 34.3841C25.9895 34.3646 26.6974 33.3675 27.386 32.3509C28.1291 31.2599 28.4556 30.1951 28.5052 30.0334L28.5052 30.0334L28.511 30.0147C28.5098 30.0135 28.5006 30.0093 28.4844 30.0018C28.236 29.8872 26.3374 29.0112 26.3192 26.662C26.3009 24.6901 27.8251 23.6911 28.0651 23.5338C28.0797 23.5243 28.0895 23.5178 28.094 23.5144C27.1242 22.0678 25.6112 21.9114 25.0875 21.8723ZM32.875 34.2781V19.0391H38.5485C41.4774 19.0391 43.5237 21.0722 43.5237 24.0438C43.5237 27.0154 41.4386 29.0681 38.4709 29.0681H35.222V34.2781H32.875ZM35.2227 21.0332H37.9285C39.9651 21.0332 41.1289 22.128 41.1289 24.0536C41.1289 25.9793 39.9651 27.0839 37.9188 27.0839H35.2227V21.0332ZM51.2725 32.4503C50.6518 33.6428 49.2843 34.3955 47.8102 34.3955C45.6281 34.3955 44.1055 33.0857 44.1055 31.1111C44.1055 29.1561 45.5796 28.032 48.3048 27.8659L51.2337 27.6899V26.8493C51.2337 25.6079 50.4287 24.9334 48.9934 24.9334C47.8102 24.9334 46.9471 25.5492 46.7725 26.4876H44.6583C44.7262 24.5131 46.5688 23.0762 49.0613 23.0762C51.7477 23.0762 53.4934 24.4935 53.4934 26.6929V34.2782H51.321V32.4503H51.2725ZM48.4409 32.5871C47.1898 32.5871 46.3945 31.9811 46.3945 31.0525C46.3945 30.0945 47.1607 29.5374 48.6251 29.4494L51.234 29.2832V30.1434C51.234 31.5705 50.0314 32.5871 48.4409 32.5871ZM60.7004 34.8743C59.7597 37.5429 58.6832 38.4226 56.3944 38.4226C56.2198 38.4226 55.6379 38.403 55.5022 38.3639V36.536C55.6476 36.5556 56.0065 36.5751 56.1907 36.5751C57.2284 36.5751 57.8103 36.1353 58.1692 34.9916L58.3825 34.3171L54.4062 23.2227H56.8599L59.6239 32.2253H59.6724L62.4364 23.2227H64.8222L60.7004 34.8743Z" fill="#F5F8FF"/>
</svg>
