<svg width="80" height="55" viewBox="0 0 80 55" fill="none" xmlns="http://www.w3.org/2000/svg">
<rect width="80" height="55" rx="4" fill="#141F2B"/>
<path fill-rule="evenodd" clip-rule="evenodd" d="M38.5061 33.1629V26.9601V26.9589H41.8721C43.2599 26.9597 44.4262 26.525 45.371 25.6548C46.3259 24.8289 46.8597 23.6414 46.8326 22.4037C46.8515 21.1728 46.3186 19.9941 45.371 19.1709C44.4344 18.2959 43.1748 17.8185 41.8721 17.8448H36.4688V33.1629H38.5061ZM38.5061 25.0779V19.7307V19.7294H41.9227C42.6842 19.7088 43.4183 20.0047 43.9385 20.5422C44.462 21.0338 44.7573 21.7089 44.7573 22.4141C44.7573 23.1192 44.462 23.7944 43.9385 24.2859C43.4119 24.8121 42.6801 25.0996 41.9227 25.0779H38.5061Z" fill="#5F6368"/>
<path fill-rule="evenodd" clip-rule="evenodd" d="M55.0946 23.5058C54.2231 22.7285 53.0345 22.3398 51.5286 22.3398C49.5942 22.3398 48.1335 23.0243 47.1465 24.3932L48.9408 25.4846C49.6039 24.5574 50.5045 24.0937 51.6425 24.0937C52.3681 24.0855 53.0702 24.3417 53.609 24.8112C54.1462 25.2401 54.4552 25.8797 54.4505 26.5528V27.0026C53.6676 26.5748 52.6713 26.361 51.4616 26.361C50.0443 26.3626 48.9113 26.6836 48.0626 27.3241C47.214 27.9645 46.7896 28.827 46.7896 29.9115C46.7711 30.899 47.2146 31.842 47.9968 32.4782C48.8016 33.1626 49.8017 33.5048 50.9971 33.5048C52.3975 33.5048 53.5196 32.906 54.3632 31.7082H54.4517V33.1626H56.4005V26.7032C56.4013 25.349 55.966 24.2832 55.0946 23.5058ZM49.5683 31.2382C49.1416 30.9411 48.8898 30.463 48.8926 29.9549C48.8926 29.3841 49.1697 28.9087 49.7278 28.5176C50.2803 28.1322 50.9704 27.9395 51.798 27.9395C52.9344 27.9395 53.8202 28.1839 54.4554 28.6728C54.4554 29.499 54.1179 30.2189 53.4431 30.8325C52.8352 31.4197 52.0111 31.7502 51.1514 31.7516C50.5782 31.7619 50.0189 31.5806 49.5683 31.2382Z" fill="#5F6368"/>
<path fill-rule="evenodd" clip-rule="evenodd" d="M67.5872 22.6816L60.7843 37.7822H58.6812L61.2057 32.4985L56.7324 22.6816H58.9469L62.1801 30.2105H62.2244L65.3689 22.6816H67.5872Z" fill="#5F6368"/>
<path fill-rule="evenodd" clip-rule="evenodd" d="M30.2745 25.6233C30.2753 25.0236 30.2228 24.425 30.1176 23.834H21.5254V27.2232H26.4466C26.2431 28.317 25.5858 29.2831 24.6269 29.8974V32.0974H27.564C29.2837 30.566 30.2745 28.3012 30.2745 25.6233Z" fill="#4285F4"/>
<path fill-rule="evenodd" clip-rule="evenodd" d="M21.5252 34.2212C23.9839 34.2212 26.0542 33.4415 27.5638 32.097L24.6268 29.897C23.8093 30.4324 22.7565 30.7379 21.5252 30.7379C19.1488 30.7379 17.1317 29.1906 16.4104 27.1055H13.3848V29.3727C14.9313 32.3451 18.081 34.2211 21.5252 34.2212Z" fill="#34A853"/>
<path fill-rule="evenodd" clip-rule="evenodd" d="M16.4101 27.1064C16.0288 26.0138 16.0288 24.8305 16.4101 23.7379V21.4707H13.3845C12.0909 23.9569 12.0909 26.8874 13.3845 29.3736L16.4101 27.1064Z" fill="#FBBC04"/>
<path fill-rule="evenodd" clip-rule="evenodd" d="M21.5252 20.105C22.8245 20.0845 24.08 20.5587 25.0203 21.425L27.6208 18.9133C25.9718 17.4174 23.7873 16.5962 21.5252 16.6217C18.081 16.6218 14.9313 18.4978 13.3848 21.4702L16.4104 23.7375C17.1317 21.6523 19.1488 20.105 21.5252 20.105Z" fill="#EA4335"/>
</svg>
