<svg width="80" height="55" viewBox="0 0 80 55" fill="none" xmlns="http://www.w3.org/2000/svg">
<rect width="80" height="55" rx="4" fill="#141F2B"/>
<path d="M47.3243 39.8435H33.0469V14.4551H47.3243V39.8435Z" fill="#FF5F00"/>
<path d="M33.9617 27.1465C33.9617 21.9964 36.3988 17.4088 40.1939 14.4523C37.4186 12.2904 33.9161 11.0001 30.1096 11.0001C21.098 11.0001 13.7931 18.229 13.7931 27.1465C13.7931 36.0641 21.098 43.293 30.1096 43.293C33.9161 43.293 37.4186 42.0026 40.1939 39.8407C36.3988 36.8843 33.9617 32.2967 33.9617 27.1465Z" fill="#EB001B"/>
<path d="M66.5795 27.1465C66.5795 36.0641 59.2746 43.293 50.2631 43.293C46.4566 43.293 42.954 42.0026 40.1777 39.8407C43.9739 36.8843 46.4109 32.2967 46.4109 27.1465C46.4109 21.9964 43.9739 17.4088 40.1777 14.4523C42.954 12.2904 46.4566 11.0001 50.2631 11.0001C59.2746 11.0001 66.5795 18.229 66.5795 27.1465Z" fill="#F79E1B"/>
</svg>
