<svg width="80" height="55" viewBox="0 0 80 55" fill="none" xmlns="http://www.w3.org/2000/svg">
<rect width="80" height="55" rx="4" fill="#141F2B"/>
<path fill-rule="evenodd" clip-rule="evenodd" d="M71.2028 27.401C70.7949 27.6848 70.203 27.8252 69.3931 27.8252H69.0416H68.5898L69.2058 24.5039H69.5179H69.7964C70.4687 24.5039 70.9598 24.6119 71.2982 24.8312C71.5626 25.0032 71.876 25.3436 71.876 25.9895C71.876 26.7678 71.5114 27.1865 71.2028 27.401ZM23.2864 31.5693H17.0703L17.4721 29.3984H21.371L21.8141 26.9532H17.9526L18.3259 24.8047H24.5311L23.2864 31.5693ZM74.5512 22.9407C73.6372 22.3152 72.2542 22 70.441 22H65.6921L63.9269 31.569H57.706L58.1049 29.3981H61.8527L62.2983 26.9597L58.5528 26.9664L58.9539 24.8047H62.8134L63.3269 22.0003H55.4868L53.8112 31.078H50.9364L52.6242 22.0003H48.5255L46.8499 31.078H44.0468L45.7361 22.0003H41.6416L39.8719 31.5693H33.6068L34.0016 29.3984H37.7664L38.2097 26.974L34.4507 26.9705L34.8499 24.8047H38.7524L39.2633 22.0003H14.8379L13.4476 29.5835L10.6778 22H6.42668L4.13867 34.375H8.19831L9.5829 26.5835L12.2711 34.375H26.8219L28.5906 24.8044H30.8674L29.0977 34.375H67.3853L68.4943 28.3331L70.2918 34.375H74.3537L72.4927 29.4384L72.9176 29.3466C73.8536 29.1465 74.5864 28.7154 75.0948 28.0694C75.6041 27.4174 75.8628 26.5803 75.8628 25.5747C75.8631 24.4036 75.4348 23.5425 74.5512 22.9407Z" fill="#8DC640"/>
</svg>
