<svg width="80" height="55" viewBox="0 0 80 55" fill="none" xmlns="http://www.w3.org/2000/svg">
<rect width="80" height="55" rx="4" fill="#141F2B"/>
<path d="M49.2722 25.5387C48.2225 24.5877 46.955 24.1228 45.4899 24.1228C44.0447 24.1228 42.7773 24.5883 41.7269 25.5387C40.6772 26.469 40.1435 27.764 40.1435 29.4229C40.1435 31.0819 40.6772 32.3756 41.7269 33.3266C42.7767 34.257 44.0447 34.7224 45.4899 34.7224C46.955 34.7224 48.2225 34.257 49.2722 33.3266C50.342 32.3756 50.8756 31.0813 50.8756 29.4229C50.8756 27.7646 50.3414 26.469 49.2722 25.5387ZM43.5104 31.5461C42.9567 31.0004 42.6778 30.2919 42.6778 29.4223C42.6778 28.5527 42.9544 27.8448 43.5104 27.3186C43.7683 27.0562 44.0767 26.8491 44.4169 26.7101C44.7571 26.571 45.122 26.5029 45.4893 26.5098C45.8597 26.5028 46.2277 26.5708 46.5712 26.7098C46.9148 26.8488 47.2268 27.0558 47.4887 27.3186C48.0618 27.8448 48.3407 28.5522 48.3407 29.4223C48.3407 30.2925 48.0642 30.9999 47.4887 31.5461C46.935 32.0718 46.2613 32.3349 45.4893 32.3349C45.1239 32.3407 44.7609 32.2741 44.4213 32.1387C44.0817 32.0033 43.7721 31.8019 43.5104 31.5461ZM54.6203 34.4387V20.5583H52.1254V34.4387H54.6203ZM62.6728 24.406V29.9444C62.6728 31.2789 61.9667 32.1638 60.6228 32.1638C59.2559 32.1638 58.5686 31.2801 58.5686 29.9444V24.406H56.069V30.3692C56.069 32.6794 57.4948 34.7218 60.6228 34.7218H60.6422C63.7508 34.7218 65.1742 32.634 65.1742 30.3692V24.406H62.6728ZM37.4886 24.406L34.9937 31.2022L32.4988 24.406H29.8456L33.8269 34.4393H36.164L40.1447 24.406H37.4886ZM29.8574 29.1392C29.8574 27.6832 29.4025 26.4897 28.5111 25.5387C27.6196 24.5877 26.4728 24.1228 25.0665 24.1228C23.6213 24.1228 22.3927 24.629 21.383 25.6195C20.3921 26.6112 19.8984 27.8649 19.8984 29.4223C19.8984 30.9798 20.3933 32.2547 21.3636 33.2452C22.3545 34.2369 23.5425 34.7218 24.9482 34.7218C27.1077 34.7218 28.6317 33.7508 29.5608 31.7886L27.7003 30.696C27.0877 31.9296 26.1951 32.5367 24.9876 32.5367C23.5031 32.5367 22.4533 31.5656 22.2945 30.0288H29.8568V29.1386L29.8574 29.1392ZM24.9859 26.0643C26.3916 26.0643 27.3231 26.8732 27.5602 28.1681H22.2933C22.6705 26.9746 23.699 26.0643 24.9865 26.0643H24.9859ZM19.8978 34.4387L16.5503 28.4519C18.668 27.6631 19.7178 26.2879 19.7178 24.2851C19.7201 21.8374 17.8178 20.2793 14.7886 20.2793H8.86914V34.4387H11.4829V28.6943H13.7012L16.9081 34.4393L19.8978 34.4387ZM14.7886 22.6255C16.3332 22.6255 17.1058 23.2526 17.1058 24.4862C17.1058 25.7198 16.3326 26.3469 14.7886 26.3469H11.4829V22.6255H14.7886ZM69.4037 34.7218C67.7979 34.7218 66.4958 33.3909 66.4958 31.7485V21.6952H68.9907V24.4095H71.1301V26.4726H68.9907V31.5845C68.9907 32.0659 69.3725 32.4559 69.8444 32.4559H71.1301V34.7218H69.4037Z" fill="white"/>
</svg>
