<svg width="80" height="55" viewBox="0 0 80 55" fill="none" xmlns="http://www.w3.org/2000/svg">
<rect width="80" height="55" rx="4" fill="#141F2B"/>
<path fill-rule="evenodd" clip-rule="evenodd" d="M67.1035 17.4914V37.4495H72.6113V16.5156L67.1035 17.4914Z" fill="#862165"/>
<path fill-rule="evenodd" clip-rule="evenodd" d="M59.0625 17.4914L64.5668 16.5156V37.4495H59.0625V17.4914Z" fill="#862165"/>
<path fill-rule="evenodd" clip-rule="evenodd" d="M51.2227 37.4482V22.1367H56.7296V37.4482H51.2227Z" fill="#862165"/>
<path fill-rule="evenodd" clip-rule="evenodd" d="M51.2598 17.9808C51.2598 16.4957 52.476 15.291 53.9735 15.291C55.4737 15.291 56.6891 16.4957 56.6891 17.9808C56.6891 19.4668 55.4737 20.6688 53.9735 20.6688C52.476 20.6688 51.2598 19.4668 51.2598 17.9808Z" fill="#862165"/>
<path fill-rule="evenodd" clip-rule="evenodd" d="M48.1163 21.9132C43.0284 22.0757 40.4434 24.3383 40.4434 28.8356V37.4492H45.9961V30.4238C45.9961 27.7322 46.3524 26.5782 49.5777 26.4681V21.9927C49.0353 21.8783 48.1163 21.9132 48.1163 21.9132Z" fill="#862165"/>
<path fill-rule="evenodd" clip-rule="evenodd" d="M33.177 22.1206C33.0552 22.4263 32.1751 24.8942 30.0407 27.4512V16.5156L24.3574 17.6295V37.4495H30.0407V31.3221C31.6865 33.7682 32.4996 37.4495 32.4996 37.4495H39.3056C38.6327 34.6767 35.6879 29.5653 35.6879 29.5653C38.332 26.2439 39.4917 22.7068 39.677 22.1206H33.177Z" fill="#862165"/>
<path fill-rule="evenodd" clip-rule="evenodd" d="M14.8264 24.3037C14.1305 24.2591 12.5183 24.1552 12.5183 22.7181C12.5183 20.984 14.8379 20.984 15.7083 20.984C17.2394 20.984 19.2203 21.4313 20.6367 21.8515C20.6367 21.8515 21.4252 22.1276 22.0963 22.4089L22.1589 22.4263V17.6766L22.0752 17.6513C20.403 17.0721 18.4618 16.5156 14.8608 16.5156C8.65272 16.5156 6.45312 20.0965 6.45312 23.1672C6.45312 24.9353 7.21866 29.1006 14.3263 29.5802C14.9305 29.6169 16.5303 29.7086 16.5303 31.1937C16.5303 32.4202 15.2206 33.1418 13.0184 33.1418C10.6054 33.1418 8.26289 32.5338 6.84118 31.9546V36.845C8.97022 37.3997 11.3709 37.674 14.1843 37.674C20.2522 37.674 22.9721 34.2854 22.9721 30.9255C22.9721 27.1175 19.9302 24.6427 14.8264 24.3037Z" fill="#862165"/>
</svg>
