<svg width="80" height="55" viewBox="0 0 80 55" fill="none" xmlns="http://www.w3.org/2000/svg">
<path d="M34.2265 36.8559H29.7031L32.5324 19.3164H37.0555L34.2265 36.8559Z" fill="#00579F"/>
<path d="M50.6216 19.7467C49.7294 19.3918 48.3143 19 46.5645 19C42.0975 19 38.9519 21.3882 38.9326 24.8027C38.8955 27.3219 41.1848 28.7211 42.897 29.5611C44.647 30.4194 45.2419 30.9796 45.2419 31.7447C45.2241 32.9197 43.8278 33.4613 42.5255 33.4613C40.7195 33.4613 39.7519 33.1821 38.2813 32.5284L37.6857 32.2481L37.0527 36.1854C38.1136 36.67 40.0682 37.1 42.0975 37.1188C46.8438 37.1188 49.9338 34.7676 49.9704 31.1289C49.9884 29.1323 48.7796 27.6024 46.1735 26.3522C44.5914 25.5497 43.6225 25.0085 43.6225 24.1874C43.641 23.4409 44.442 22.6763 46.2279 22.6763C47.6984 22.6389 48.7788 22.9933 49.5973 23.3479L50.0065 23.5342L50.6216 19.7467Z" fill="#00579F"/>
<path d="M56.6371 30.6423C57.0096 29.6347 58.443 25.7349 58.443 25.7349C58.4242 25.7723 58.8148 24.7087 59.0382 24.0557L59.3543 25.567C59.3543 25.567 60.2109 29.7654 60.3969 30.6423C59.6899 30.6423 57.5305 30.6423 56.6371 30.6423ZM62.2206 19.3164H58.7218C57.6428 19.3164 56.8231 19.6333 56.3576 20.7717L49.6387 36.8557H54.3849C54.3849 36.8557 55.1663 34.6909 55.3343 34.2246C55.855 34.2246 60.4721 34.2246 61.1419 34.2246C61.2718 34.8404 61.6816 36.8557 61.6816 36.8557H65.8699L62.2206 19.3164Z" fill="#00579F"/>
<path d="M25.9237 19.3164L21.4938 31.2767L21.0097 28.851C20.1907 26.0521 17.6222 23.0111 14.7559 21.499L18.8135 36.8373H23.5968L30.7068 19.3164H25.9237Z" fill="#00579F"/>
<path d="M17.3814 19.3164H10.1038L10.0293 19.6708C15.7063 21.1265 19.4661 24.6354 21.0109 28.8528L19.4288 20.7909C19.1683 19.6706 18.3679 19.3534 17.3814 19.3164Z" fill="#FAA61A"/>
</svg>
