<svg width="40" height="40" viewBox="0 0 40 40" fill="none" xmlns="http://www.w3.org/2000/svg">
<rect x="39.5" y="0.5" width="39" height="39" rx="4.5" transform="rotate(90 39.5 0.5)" fill="#1C2E3D" stroke="#273344" stroke-linejoin="round"/>
<path fill-rule="evenodd" clip-rule="evenodd" d="M20.4286 10.8691C20.902 10.8691 21.2858 11.2585 21.2858 11.7387V12.6083H21.7143C24.0811 12.6083 25.9999 14.5546 25.9999 16.956V19.5649C25.9999 20.2064 26.1995 20.9321 26.5164 21.6648C26.8299 22.3895 27.2353 23.0688 27.593 23.6032C28.244 24.5758 27.8409 26.113 26.5094 26.3566C25.6387 26.5159 24.4082 26.7055 22.9601 26.8283C22.9618 26.8707 22.9627 26.9134 22.9627 26.9564C22.9627 28.6373 21.6196 29.9999 19.9628 29.9999C18.306 29.9999 16.9629 28.6373 16.9629 26.9564C16.9629 26.9113 16.9638 26.8664 16.9657 26.8218C15.5498 26.699 14.3465 26.5131 13.4908 26.3566C12.1593 26.113 11.7562 24.5758 12.4072 23.6032C12.7649 23.0688 13.1703 22.3895 13.4837 21.6648C13.8007 20.9321 14.0002 20.2064 14.0002 19.5649V16.956C14.0002 14.5546 15.9191 12.6083 18.2858 12.6083H18.7144V11.7387C18.7144 11.2585 19.0981 10.8691 19.5715 10.8691H20.4286ZM20.0001 26.9564C19.5618 26.9564 19.1325 26.9475 18.7146 26.9316C18.7079 27.631 19.268 28.2229 19.9628 28.2229C20.656 28.2229 21.2169 27.6327 21.211 26.9343C20.8167 26.9485 20.4123 26.9564 20.0001 26.9564ZM21.7143 14.3475C23.1345 14.3475 24.2857 15.5153 24.2857 16.956V19.5649C24.2857 20.5418 24.581 21.5183 24.9467 22.3638C25.3159 23.2172 25.7811 23.992 26.1748 24.5802C26.1835 24.5933 26.1876 24.6058 26.189 24.6183C26.1902 24.6295 26.1892 24.64 26.1871 24.6483C24.8305 24.8957 22.5711 25.2172 20.0001 25.2172C17.4291 25.2172 15.1697 24.8957 13.8131 24.6483C13.811 24.64 13.8099 24.6295 13.8111 24.6183C13.8126 24.6058 13.8166 24.5933 13.8254 24.5802C14.219 23.992 14.6843 23.2172 15.0535 22.3638C15.4192 21.5183 15.7145 20.5418 15.7145 19.5649V16.956C15.7145 15.5153 16.8657 14.3475 18.2858 14.3475H21.7143Z" fill="#C1C9E5"/>
<path fill-rule="evenodd" clip-rule="evenodd" d="M16.5457 10.6584C16.4323 10.1981 15.9588 9.91066 15.5053 10.026C15.4459 10.0412 15.3895 10.058 15.2929 10.091C15.1747 10.1313 15.0128 10.1924 14.8208 10.2799C14.4376 10.4544 13.927 10.7373 13.4015 11.1764C12.3345 12.0679 11.2434 13.5749 11.0043 16.0003C10.9572 16.4782 11.3009 16.9043 11.7719 16.9521C12.2429 16.9999 12.663 16.6512 12.71 16.1733C12.8995 14.2509 13.737 13.1491 14.4913 12.5189C14.8765 12.1971 15.2498 11.9908 15.5229 11.8664C15.6589 11.8045 15.7683 11.7636 15.8393 11.7394C15.8684 11.7295 15.8977 11.7201 15.9274 11.7116C16.3835 11.5929 16.6601 11.1226 16.5457 10.6584Z" fill="#C1C9E5"/>
<path fill-rule="evenodd" clip-rule="evenodd" d="M23.4542 10.6588C23.569 10.1929 24.0344 9.90961 24.4937 10.0261C24.5535 10.0413 24.61 10.0582 24.7071 10.0913C24.8253 10.1317 24.9871 10.1927 25.1792 10.2802C25.5624 10.4547 26.0729 10.7376 26.5985 11.1767C27.6655 12.0683 28.7566 13.5752 28.9957 16.0007C29.0428 16.4785 28.6991 16.9047 28.2281 16.9524C27.7571 17.0002 27.337 16.6516 27.2899 16.1737C27.1004 14.2512 26.263 13.1495 25.5087 12.5192C25.1235 12.1974 24.7502 11.9912 24.4771 11.8668C24.3411 11.8048 24.2317 11.764 24.1607 11.7398C24.1316 11.7298 24.1022 11.7204 24.0726 11.712C23.6165 11.5932 23.3399 11.1229 23.4542 10.6588Z" fill="#C1C9E5"/>
</svg>
