<svg width="24" height="24" viewBox="0 0 24 24" fill="none" xmlns="http://www.w3.org/2000/svg">
<path d="M16.8004 20.3996H7.20039C4.32039 20.3996 2.40039 18.9173 2.40039 15.4584V8.54079C2.40039 5.08196 4.32039 3.59961 7.20039 3.59961H16.8004C19.6804 3.59961 21.6004 5.08196 21.6004 8.54079V15.4584C21.6004 18.9173 19.6804 20.3996 16.8004 20.3996Z" stroke="white" stroke-width="1.2" stroke-miterlimit="10" stroke-linecap="round" stroke-linejoin="round"/>
<path d="M11.9997 14.6663C13.4724 14.6663 14.6663 13.4724 14.6663 11.9997C14.6663 10.5269 13.4724 9.33301 11.9997 9.33301C10.5269 9.33301 9.33301 10.5269 9.33301 11.9997C9.33301 13.4724 10.5269 14.6663 11.9997 14.6663Z" stroke="white" stroke-width="1.2" stroke-miterlimit="10" stroke-linecap="round" stroke-linejoin="round"/>
<path d="M6 9.59961V14.9329" stroke="white" stroke-width="1.2" stroke-miterlimit="10" stroke-linecap="round" stroke-linejoin="round"/>
<path d="M18 9.59961V14.9329" stroke="white" stroke-width="1.2" stroke-miterlimit="10" stroke-linecap="round" stroke-linejoin="round"/>
</svg>
