<svg width="40" height="40" viewBox="0 0 40 40" fill="none" xmlns="http://www.w3.org/2000/svg">
<rect x="39.5" y="0.5" width="39" height="39" rx="4.5" transform="rotate(90 39.5 0.5)" fill="#1C2E3D" stroke="#273344" stroke-linejoin="round"/>
<path d="M20.1094 21.0003C20.0454 20.9912 19.963 20.9912 19.8899 21.0003C18.2801 20.9454 16.9996 19.6263 16.9996 18.0049C16.9996 16.3469 18.335 15.0003 19.9996 15.0003C21.6551 15.0003 22.9996 16.3469 22.9996 18.0049C22.9905 19.6263 21.7191 20.9454 20.1094 21.0003Z" stroke="#C1C9E5" stroke-width="1.5" stroke-linecap="round" stroke-linejoin="round"/>
<path d="M25.9996 26.6058C24.4151 28.0955 22.3142 29.0003 19.9996 29.0003C17.6851 29.0003 15.5842 28.0955 13.9996 26.6058C14.0887 25.7467 14.6228 24.9059 15.5753 24.2478C18.0145 22.5845 22.0026 22.5845 24.424 24.2478C25.3765 24.9059 25.9106 25.7467 25.9996 26.6058Z" stroke="#C1C9E5" stroke-width="1.5" stroke-linecap="round" stroke-linejoin="round"/>
<path d="M19.9996 29.0003C24.9702 29.0003 28.9996 24.9709 28.9996 20.0003C28.9996 15.0298 24.9702 11.0003 19.9996 11.0003C15.0291 11.0003 10.9996 15.0298 10.9996 20.0003C10.9996 24.9709 15.0291 29.0003 19.9996 29.0003Z" stroke="#C1C9E5" stroke-width="1.5" stroke-linecap="round" stroke-linejoin="round"/>
</svg>
