<svg width="35" height="35" viewBox="0 0 35 35" fill="none" xmlns="http://www.w3.org/2000/svg">
<g clip-path="url(#clip0_1_94)">
<path d="M17.5 0C20.1373 0 22.6399 0.583789 24.8828 1.629C23.8731 2.34609 23.1875 3.07344 22.6263 4.08311C21.0349 3.47402 19.3061 3.14043 17.5 3.14043C13.5345 3.14043 9.94424 4.74824 7.3459 7.3459C4.74824 9.94424 3.14043 13.5345 3.14043 17.5C3.14043 21.4648 4.74824 25.0558 7.3459 27.6541C9.94424 30.2518 13.5345 31.8596 17.5 31.8596C21.4648 31.8596 25.0558 30.2518 27.6541 27.6541C30.2518 25.0558 31.8596 21.4648 31.8596 17.5C31.8596 16.4568 31.7481 15.4403 31.5369 14.4607C32.5179 13.8886 33.2917 12.9015 34.125 12.021C34.6931 13.745 35 15.5866 35 17.5C35 22.3316 33.0408 26.708 29.8744 29.8744C26.708 33.0408 22.3316 35 17.5 35C12.6677 35 8.29199 33.0408 5.12559 29.8744C1.95918 26.708 0 22.3316 0 17.5C0 12.6677 1.95918 8.29199 5.12559 5.12559C8.29199 1.95918 12.6677 0 17.5 0Z" fill="#C1C9E5"/>
<path d="M27.6469 11.7848V8.7626H24.8694V6.31055H27.6469V3.28906H30.2302V6.31055H33.0274V8.7626H30.2302V11.7848H27.6469ZM10.877 23.6062V14.5171C10.5681 14.5867 10.2576 14.6491 9.9459 14.7044C9.64033 14.7598 9.33545 14.811 9.02988 14.8603L8.78516 13.0624C9.04697 13.0016 9.35186 12.9072 9.69775 12.776C10.0437 12.6454 10.395 12.4984 10.7525 12.3351C11.1087 12.1717 11.4382 12.0021 11.7444 11.8306C12.0493 11.659 12.2886 11.5038 12.4636 11.3623L13.9347 11.5578L13.9183 23.6062H10.877ZM21.6183 23.7367C20.8718 23.7367 20.2039 23.6574 19.6126 23.5022C19.022 23.3471 18.5202 23.1263 18.1087 22.8378C17.6972 22.5486 17.3841 22.2 17.1687 21.7939C16.9534 21.3879 16.844 20.936 16.844 20.435C16.844 19.9934 16.9562 19.5572 17.1797 19.1293C17.4025 18.7014 17.771 18.3069 18.2803 17.9446C18.7896 17.5823 19.4711 17.2795 20.327 17.0348L21.34 18.244C21.0078 18.3965 20.7132 18.5653 20.4548 18.754C20.1957 18.9413 19.9913 19.1628 19.8443 19.413C19.6967 19.6632 19.6235 19.9605 19.6235 20.3044C19.6235 20.571 19.6885 20.8349 19.8197 21.0967C19.9503 21.3585 20.1608 21.5738 20.4493 21.7454C20.7378 21.917 21.1165 22.0045 21.5854 22.0045C21.8849 22.0045 22.1604 21.9334 22.4105 21.7939C22.6614 21.6552 22.8631 21.4727 23.0128 21.2464C23.1632 21.0208 23.2363 20.7781 23.2363 20.5163C23.2363 20.2114 23.127 19.9469 22.9096 19.724C22.6908 19.4998 22.4051 19.2934 22.0482 19.1047C21.6914 18.9174 21.2997 18.7294 20.8718 18.538C20.4438 18.3479 20.0159 18.1374 19.588 17.9091C19.1607 17.6801 18.7684 17.4101 18.4108 17.0997C18.054 16.7894 17.7655 16.4182 17.5475 15.9909C17.3294 15.563 17.2207 15.0564 17.2207 14.4679C17.2207 13.8793 17.3841 13.3427 17.7108 12.8573C18.0383 12.3727 18.5175 11.9857 19.1498 11.6966C19.7814 11.4081 20.5553 11.2639 21.4706 11.2639C22.3859 11.2639 23.1577 11.389 23.7812 11.6398C24.4053 11.8907 24.877 12.2339 25.1955 12.6693C25.5141 13.1055 25.672 13.6018 25.672 14.1575C25.672 14.6313 25.566 15.0893 25.3507 15.5329C25.1354 15.9772 24.7922 16.3724 24.3205 16.7155C23.8495 17.0594 23.2254 17.3178 22.4516 17.4921L21.4549 16.3478C22.0428 16.168 22.4598 15.8959 22.7052 15.5329C22.9499 15.1713 23.073 14.7516 23.073 14.2717C23.073 13.9176 22.939 13.6154 22.6724 13.3673C22.4051 13.1191 22.0216 12.9961 21.5198 12.9961C21.0406 12.9961 20.6612 13.1219 20.3837 13.3755C20.1055 13.6291 19.9667 13.9121 19.9667 14.2225C19.9667 14.5602 20.0788 14.8603 20.3023 15.1214C20.5252 15.3832 20.8219 15.6231 21.1931 15.8433C21.5636 16.0647 21.9689 16.2794 22.4105 16.4872C22.8521 16.6937 23.2965 16.9117 23.7408 17.1435C24.1845 17.3752 24.5933 17.6336 24.9658 17.92C25.3397 18.2058 25.6392 18.5353 25.8654 18.9092C26.0917 19.2824 26.2059 19.7151 26.2113 20.206C26.2168 20.9524 26.0213 21.5875 25.6228 22.1132C25.2249 22.6389 24.6801 23.0422 23.9855 23.3204C23.291 23.598 22.5008 23.7367 21.6183 23.7367Z" fill="#C1C9E5"/>
</g>
<defs>
<clipPath id="clip0_1_94">
<rect width="35" height="35" fill="white"/>
</clipPath>
</defs>
</svg>
