<svg width="35" height="35" viewBox="0 0 35 35" fill="none" xmlns="http://www.w3.org/2000/svg">
<path d="M11.6411 6.48C11.5269 6.68297 10.9394 7.81625 10.3194 9.00027C9.69936 10.1843 8.58164 12.3324 7.83106 13.7786C5.7588 17.762 3.67838 21.7539 2.97674 23.124C2.62593 23.8005 2.23432 24.5532 2.10378 24.79L1.86719 25.2383H9.90332H17.9476V20.9673V16.6964H14.9779H12.0082L11.429 17.8466C11.1108 18.4809 10.8497 19.0137 10.8497 19.0306C10.8497 19.0475 11.8777 19.0645 13.1341 19.0645H15.4185V20.7136V22.3628H11.1026C8.72034 22.3628 6.76229 22.329 6.73782 22.2951C6.71334 22.2529 7.11311 21.4494 7.61894 20.4937C8.11661 19.5465 8.67138 18.4978 8.84271 18.1764C9.77278 16.4173 11.9022 12.417 12.8649 10.6241L13.9663 8.57741H14.6924H15.4185V11.4106V14.2438H16.683H17.9476V10.1843V6.12479H14.8882H11.8369L11.6411 6.48Z" fill="#C1C9E5"/>
<path d="M18.8477 15.6815V25.2383H20.153H21.4584L21.4747 22.1683L21.4992 19.1067L24.2404 19.0814L26.9817 19.0645L27.9199 20.8574C28.4421 21.8469 29.16 23.2424 29.5271 23.9528L30.1961 25.2383H31.6239C32.4071 25.2383 33.0435 25.2045 33.0435 25.1706C33.0435 25.0945 32.3092 23.6652 30.3919 19.9948C29.7964 18.853 29.0539 17.4237 28.7439 16.8233C28.0749 15.5208 26.2556 12.028 24.4689 8.61969L23.188 6.16708L21.0178 6.14171L18.8477 6.12479V15.6815ZM23.6938 12.8737C24.7136 14.7935 25.5703 16.4342 25.5947 16.5273C25.6355 16.6964 25.6029 16.6964 23.5714 16.6795L21.4992 16.6541L21.4747 12.8906C21.4665 10.8186 21.4747 9.07639 21.4992 9.00873C21.5563 8.84804 21.4584 8.67044 23.6938 12.8737Z" fill="#C1C9E5"/>
<path d="M1.41142 26.101C1.2972 26.2532 0 28.7566 0 28.8243C0 28.8496 7.87296 28.875 17.5 28.875C27.127 28.875 35 28.8496 35 28.8073C35 28.7735 34.951 28.672 34.8939 28.579C34.8287 28.486 34.5676 27.987 34.3065 27.4795C34.0455 26.9637 33.7681 26.4308 33.6946 26.2955L33.5559 26.0418L17.5245 26.0164C4.75641 25.9995 1.47669 26.0249 1.41142 26.101Z" fill="#C1C9E5"/>
</svg>
