<svg width="35" height="35" viewBox="0 0 35 35" fill="none" xmlns="http://www.w3.org/2000/svg">
<path d="M6.68635 32.4591C6.61826 33.9988 5.58864 35 4.21131 35C3.48869 35 2.86817 34.7209 2.37733 34.1692C1.96824 33.7127 1.75 33.1201 1.75 32.4525C1.75 31.7779 2.00906 31.158 2.50682 30.6677C2.9772 30.1973 3.55679 29.9657 4.26586 29.9657C5.25446 29.9657 6.0183 30.4497 6.39311 31.2873H5.52744C5.20682 30.8789 4.75672 30.6677 4.21131 30.6677C3.75447 30.6677 3.33174 30.8443 3.0113 31.1715C2.6704 31.5186 2.47963 31.9961 2.47963 32.4591C2.47963 32.9701 2.65676 33.4332 2.97047 33.7603C3.30455 34.1075 3.7613 34.3053 4.21131 34.3053C4.94085 34.3053 5.51352 33.9168 5.8819 33.1404H3.68646V32.4591H6.68635Z" fill="#C1C9E5"/>
<path d="M8.93381 30.9737L8.23818 32.8127H9.61552L8.93381 30.9737ZM7.44053 34.9043H6.69727L8.59272 30.0608H9.27471L11.17 34.9043H10.3996L9.86774 33.4945H7.98604L7.44053 34.9043Z" fill="#C1C9E5"/>
<path d="M11.4355 34.9043V30.0608H12.4786L13.8832 33.8077L15.2877 30.0608H16.3173V34.9043H15.6561L15.7037 30.7013L14.1288 34.9043H13.631L12.0629 30.7013L12.1105 34.9043H11.4355Z" fill="#C1C9E5"/>
<path d="M19.4029 35C18.6866 35 18.08 34.7343 17.6028 34.2303C17.1459 33.7469 16.9141 33.1472 16.9141 32.4321C16.9141 31.7646 17.1664 31.1511 17.6504 30.6813C18.1278 30.2108 18.7279 29.9657 19.4165 29.9657C20.5483 29.9657 21.5161 30.7086 21.83 31.9005H20.5483C20.2892 31.4235 19.9004 31.1715 19.4232 31.1715C18.7004 31.1715 18.1346 31.7298 18.1346 32.4389C18.1346 33.2086 18.7347 33.8011 19.4029 33.8011C19.8595 33.8011 20.2619 33.556 20.5209 33.1063H21.8097C21.4891 34.2848 20.5685 35 19.4029 35Z" fill="#C1C9E5"/>
<path d="M24.0561 31.6479L23.5722 33.201H24.5337L24.0561 31.6479ZM23.0065 34.9043H21.7109L23.5722 30.0608H24.5405L26.4018 34.9043H25.0926L24.854 34.2026H23.2519L23.0065 34.9043Z" fill="#C1C9E5"/>
<path d="M27.9143 32.2951C28.5007 32.2951 28.7868 32.1453 28.7868 31.7092C28.7868 31.3072 28.5349 31.144 28.0097 31.144H27.6823V32.2951H27.9143ZM26.4961 34.9043V30.0608H28.1052C28.6163 30.0608 29.0051 30.0947 29.3328 30.3263C29.7621 30.6259 29.9871 31.0824 29.9871 31.6819C29.9871 32.4654 29.5779 33.0514 28.8894 33.2419L30.0756 34.9043H28.6096L27.6823 33.3444V34.9043H26.4961Z" fill="#C1C9E5"/>
<path d="M30.6152 34.9043V30.0608H33.247V31.1304H31.8015V31.9137H33.247V32.9899H31.8015V33.835H33.247V34.9043H30.6152Z" fill="#C1C9E5"/>
<path d="M32.3862 16.7571C32.2561 16.6838 32.1128 16.6342 31.9588 16.6128C31.9227 16.6068 31.8866 16.6055 31.85 16.6019C31.8304 16.601 31.8117 16.596 31.7919 16.596H31.7369C31.6881 16.5949 31.6393 16.5924 31.591 16.596H22.1116C21.4408 16.596 20.8969 17.1393 20.8969 17.8092C20.8969 18.4795 21.4408 19.0229 22.1116 19.0229H25.7947C25.9159 19.0239 26.0145 19.1225 26.0145 19.2442C26.0145 19.3143 25.9771 19.3722 25.9257 19.4126C23.9065 20.4903 21.3091 21.1434 18.4675 21.1434C17.7759 21.1434 17.0998 21.1031 16.4414 21.0293V23.7843C17.0149 23.8263 17.5969 23.8501 18.1879 23.8501C22.1429 23.8501 25.7409 22.884 28.4376 21.3056L28.4384 21.3094C28.4718 21.2918 28.5094 21.2818 28.5496 21.2818C28.6816 21.2818 28.7885 21.3887 28.7885 21.5206C28.7885 21.5446 28.7842 21.5676 28.7768 21.5901L28.215 23.1146C27.9191 23.9167 28.3298 24.8061 29.1329 25.1014C29.3094 25.1667 29.4902 25.1973 29.6681 25.1973C30.2986 25.1973 30.8905 24.8102 31.1213 24.1846L33.1542 18.6715C33.4301 17.9226 33.0858 17.1038 32.3862 16.7571Z" fill="#C1C9E5"/>
<path d="M18.4675 6.34727C21.3315 6.34727 23.9534 7.00608 25.9795 8.09907C25.9795 8.09907 27.2662 9.02431 27.8785 8.13611C28.5809 7.11696 27.1782 6.48252 27.1782 6.48252C24.6639 5.30136 21.5542 4.60289 18.1879 4.60289C17.5969 4.60289 17.0149 4.62679 16.4414 4.66884V6.4615C17.0998 6.3879 17.7759 6.34727 18.4675 6.34727Z" fill="#C1C9E5"/>
<path d="M3.91143 0.00147247C2.72879 0.00147247 1.76953 0.959692 1.76953 2.14157V25.4929C1.76953 26.675 2.72879 27.6328 3.91143 27.6328H16.4414V23.7856C8.90245 23.2352 3.04681 19.167 3.04681 14.2278C3.04681 9.28829 8.90245 5.22053 16.4414 4.66997V0.00147247H3.91143Z" fill="#C1C9E5"/>
<path d="M6.8418 13.7474C6.8418 17.3929 10.9874 20.4208 16.442 21.0312V6.46327C10.9874 7.07381 6.8418 10.1014 6.8418 13.7474Z" fill="#C1C9E5"/>
</svg>
