<svg width="25" height="38" viewBox="0 0 25 38" fill="none" xmlns="http://www.w3.org/2000/svg">
<path d="M17 3.33782C15.5291 2.48697 13.8214 2 12 2C6.47715 2 2 6.47715 2 12C2 13.5997 2.37562 15.1116 3.04346 16.4525C3.22094 16.8088 3.28001 17.2161 3.17712 17.6006L2.58151 19.8267C2.32295 20.793 3.20701 21.677 4.17335 21.4185L6.39939 20.8229C6.78393 20.72 7.19121 20.7791 7.54753 20.9565C8.88837 21.6244 10.4003 22 12 22C17.5228 22 22 17.5228 22 12C22 10.1786 21.513 8.47087 20.6622 7" stroke="#C1C9E5" stroke-width="1.5" stroke-linecap="round"/>
<path d="M8 12H8.009M11.991 12H12M15.991 12H16" stroke="#C1C9E5" stroke-width="1.5" stroke-linecap="round" stroke-linejoin="round"/>
<path d="M0.669258 32.51C0.669258 31.83 0.822591 31.22 1.12926 30.68C1.43592 30.1333 1.85259 29.7067 2.37926 29.4C2.91259 29.0933 3.50259 28.94 4.14926 28.94C4.90926 28.94 5.57259 29.1233 6.13926 29.49C6.70592 29.8567 7.11926 30.3767 7.37926 31.05H6.28926C6.09592 30.63 5.81592 30.3067 5.44926 30.08C5.08926 29.8533 4.65592 29.74 4.14926 29.74C3.66259 29.74 3.22592 29.8533 2.83926 30.08C2.45259 30.3067 2.14926 30.63 1.92926 31.05C1.70926 31.4633 1.59926 31.95 1.59926 32.51C1.59926 33.0633 1.70926 33.55 1.92926 33.97C2.14926 34.3833 2.45259 34.7033 2.83926 34.93C3.22592 35.1567 3.66259 35.27 4.14926 35.27C4.65592 35.27 5.08926 35.16 5.44926 34.94C5.81592 34.7133 6.09592 34.39 6.28926 33.97H7.37926C7.11926 34.6367 6.70592 35.1533 6.13926 35.52C5.57259 35.88 4.90926 36.06 4.14926 36.06C3.50259 36.06 2.91259 35.91 2.37926 35.61C1.85259 35.3033 1.43592 34.88 1.12926 34.34C0.822591 33.8 0.669258 33.19 0.669258 32.51ZM11.4539 30.42C11.8672 30.42 12.2405 30.51 12.5739 30.69C12.9072 30.8633 13.1672 31.1267 13.3539 31.48C13.5472 31.8333 13.6439 32.2633 13.6439 32.77V36H12.7439V32.9C12.7439 32.3533 12.6072 31.9367 12.3339 31.65C12.0605 31.3567 11.6872 31.21 11.2139 31.21C10.7339 31.21 10.3505 31.36 10.0639 31.66C9.78387 31.96 9.64387 32.3967 9.64387 32.97V36H8.73387V28.6H9.64387V31.3C9.82387 31.02 10.0705 30.8033 10.3839 30.65C10.7039 30.4967 11.0605 30.42 11.4539 30.42ZM14.7904 33.24C14.7904 32.68 14.9037 32.19 15.1304 31.77C15.357 31.3433 15.667 31.0133 16.0604 30.78C16.4604 30.5467 16.9037 30.43 17.3904 30.43C17.8704 30.43 18.287 30.5333 18.6404 30.74C18.9937 30.9467 19.257 31.2067 19.4304 31.52V30.52H20.3504V36H19.4304V34.98C19.2504 35.3 18.9804 35.5667 18.6204 35.78C18.267 35.9867 17.8537 36.09 17.3804 36.09C16.8937 36.09 16.4537 35.97 16.0604 35.73C15.667 35.49 15.357 35.1533 15.1304 34.72C14.9037 34.2867 14.7904 33.7933 14.7904 33.24ZM19.4304 33.25C19.4304 32.8367 19.347 32.4767 19.1804 32.17C19.0137 31.8633 18.787 31.63 18.5004 31.47C18.2204 31.3033 17.9104 31.22 17.5704 31.22C17.2304 31.22 16.9204 31.3 16.6404 31.46C16.3604 31.62 16.137 31.8533 15.9704 32.16C15.8037 32.4667 15.7204 32.8267 15.7204 33.24C15.7204 33.66 15.8037 34.0267 15.9704 34.34C16.137 34.6467 16.3604 34.8833 16.6404 35.05C16.9204 35.21 17.2304 35.29 17.5704 35.29C17.9104 35.29 18.2204 35.21 18.5004 35.05C18.787 34.8833 19.0137 34.6467 19.1804 34.34C19.347 34.0267 19.4304 33.6633 19.4304 33.25ZM22.9982 31.27V34.5C22.9982 34.7667 23.0548 34.9567 23.1682 35.07C23.2815 35.1767 23.4782 35.23 23.7582 35.23H24.4282V36H23.6082C23.1015 36 22.7215 35.8833 22.4682 35.65C22.2148 35.4167 22.0882 35.0333 22.0882 34.5V31.27H21.3782V30.52H22.0882V29.14H22.9982V30.52H24.4282V31.27H22.9982Z" fill="white"/>
</svg>
