<svg width="30" height="38" viewBox="0 0 30 38" fill="none" xmlns="http://www.w3.org/2000/svg">
<path d="M15 15V18" stroke="#C1C9E5" stroke-width="1.5" stroke-linecap="round"/>
<path d="M24.6359 12.9579L24.3572 14.8952C23.8697 18.2827 23.626 19.9764 22.451 20.9882C21.2759 22 19.5526 22 16.1061 22H13.8939C10.4474 22 8.72409 22 7.54903 20.9882C6.37396 19.9764 6.13025 18.2827 5.64284 14.8952L5.36407 12.9579C4.98463 10.3208 4.79491 9.00229 5.33537 7.87495C5.87583 6.7476 7.02619 6.06234 9.32691 4.69181L10.7117 3.86687C12.801 2.62229 13.8457 2 15 2C16.1543 2 17.199 2.62229 19.2882 3.86687L20.6731 4.69181C22.9738 6.06234 24.1242 6.7476 24.6646 7.87495" stroke="#C1C9E5" stroke-width="1.5" stroke-linecap="round"/>
<path d="M6.22789 29.03V36H5.31789V32.84H1.76789V36H0.857891V29.03H1.76789V32.09H5.31789V29.03H6.22789ZM10.1717 36.09C9.65839 36.09 9.19172 35.9733 8.77172 35.74C8.35839 35.5067 8.03172 35.1767 7.79172 34.75C7.55839 34.3167 7.44172 33.8167 7.44172 33.25C7.44172 32.69 7.56172 32.1967 7.80172 31.77C8.04839 31.3367 8.38172 31.0067 8.80172 30.78C9.22172 30.5467 9.69172 30.43 10.2117 30.43C10.7317 30.43 11.2017 30.5467 11.6217 30.78C12.0417 31.0067 12.3717 31.3333 12.6117 31.76C12.8584 32.1867 12.9817 32.6833 12.9817 33.25C12.9817 33.8167 12.8551 34.3167 12.6017 34.75C12.3551 35.1767 12.0184 35.5067 11.5917 35.74C11.1651 35.9733 10.6917 36.09 10.1717 36.09ZM10.1717 35.29C10.4984 35.29 10.8051 35.2133 11.0917 35.06C11.3784 34.9067 11.6084 34.6767 11.7817 34.37C11.9617 34.0633 12.0517 33.69 12.0517 33.25C12.0517 32.81 11.9651 32.4367 11.7917 32.13C11.6184 31.8233 11.3917 31.5967 11.1117 31.45C10.8317 31.2967 10.5284 31.22 10.2017 31.22C9.86839 31.22 9.56172 31.2967 9.28172 31.45C9.00839 31.5967 8.78839 31.8233 8.62172 32.13C8.45505 32.4367 8.37172 32.81 8.37172 33.25C8.37172 33.6967 8.45172 34.0733 8.61172 34.38C8.77839 34.6867 8.99839 34.9167 9.27172 35.07C9.54505 35.2167 9.84505 35.29 10.1717 35.29ZM20.7682 30.42C21.1949 30.42 21.5749 30.51 21.9082 30.69C22.2415 30.8633 22.5049 31.1267 22.6982 31.48C22.8915 31.8333 22.9882 32.2633 22.9882 32.77V36H22.0882V32.9C22.0882 32.3533 21.9515 31.9367 21.6782 31.65C21.4115 31.3567 21.0482 31.21 20.5882 31.21C20.1149 31.21 19.7382 31.3633 19.4582 31.67C19.1782 31.97 19.0382 32.4067 19.0382 32.98V36H18.1382V32.9C18.1382 32.3533 18.0015 31.9367 17.7282 31.65C17.4615 31.3567 17.0982 31.21 16.6382 31.21C16.1649 31.21 15.7882 31.3633 15.5082 31.67C15.2282 31.97 15.0882 32.4067 15.0882 32.98V36H14.1782V30.52H15.0882V31.31C15.2682 31.0233 15.5082 30.8033 15.8082 30.65C16.1149 30.4967 16.4515 30.42 16.8182 30.42C17.2782 30.42 17.6849 30.5233 18.0382 30.73C18.3915 30.9367 18.6549 31.24 18.8282 31.64C18.9815 31.2533 19.2349 30.9533 19.5882 30.74C19.9415 30.5267 20.3349 30.42 20.7682 30.42ZM29.4809 33.05C29.4809 33.2233 29.4709 33.4067 29.4509 33.6H25.0709C25.1043 34.14 25.2876 34.5633 25.6209 34.87C25.9609 35.17 26.3709 35.32 26.8509 35.32C27.2443 35.32 27.5709 35.23 27.8309 35.05C28.0976 34.8633 28.2843 34.6167 28.3909 34.31H29.3709C29.2243 34.8367 28.9309 35.2667 28.4909 35.6C28.0509 35.9267 27.5043 36.09 26.8509 36.09C26.3309 36.09 25.8643 35.9733 25.4509 35.74C25.0443 35.5067 24.7243 35.1767 24.4909 34.75C24.2576 34.3167 24.1409 33.8167 24.1409 33.25C24.1409 32.6833 24.2543 32.1867 24.4809 31.76C24.7076 31.3333 25.0243 31.0067 25.4309 30.78C25.8443 30.5467 26.3176 30.43 26.8509 30.43C27.3709 30.43 27.8309 30.5433 28.2309 30.77C28.6309 30.9967 28.9376 31.31 29.1509 31.71C29.3709 32.1033 29.4809 32.55 29.4809 33.05ZM28.5409 32.86C28.5409 32.5133 28.4643 32.2167 28.3109 31.97C28.1576 31.7167 27.9476 31.5267 27.6809 31.4C27.4209 31.2667 27.1309 31.2 26.8109 31.2C26.3509 31.2 25.9576 31.3467 25.6309 31.64C25.3109 31.9333 25.1276 32.34 25.0809 32.86H28.5409Z" fill="white"/>
</svg>
