<svg width="28" height="38" viewBox="0 0 28 38" fill="none" xmlns="http://www.w3.org/2000/svg">
<path d="M5 6H23" stroke="#C1C9E5" stroke-width="1.5" stroke-linecap="round"/>
<path d="M11.49 12H23" stroke="#C1C9E5" stroke-width="1.5" stroke-linecap="round"/>
<path d="M5 12H7.99" stroke="#C1C9E5" stroke-width="1.5" stroke-linecap="round"/>
<path d="M5 18H23" stroke="#C1C9E5" stroke-width="1.5" stroke-linecap="round"/>
<path d="M8.03629 29.08V36H7.12629V30.84L4.82629 36H4.18629L1.87629 30.83V36H0.966289V29.08H1.94629L4.50629 34.8L7.06629 29.08H8.03629ZM14.5796 33.05C14.5796 33.2233 14.5696 33.4067 14.5496 33.6H10.1696C10.2029 34.14 10.3862 34.5633 10.7196 34.87C11.0596 35.17 11.4696 35.32 11.9496 35.32C12.3429 35.32 12.6696 35.23 12.9296 35.05C13.1962 34.8633 13.3829 34.6167 13.4896 34.31H14.4696C14.3229 34.8367 14.0296 35.2667 13.5896 35.6C13.1496 35.9267 12.6029 36.09 11.9496 36.09C11.4296 36.09 10.9629 35.9733 10.5496 35.74C10.1429 35.5067 9.8229 35.1767 9.58957 34.75C9.35624 34.3167 9.23957 33.8167 9.23957 33.25C9.23957 32.6833 9.3529 32.1867 9.57957 31.76C9.80624 31.3333 10.1229 31.0067 10.5296 30.78C10.9429 30.5467 11.4162 30.43 11.9496 30.43C12.4696 30.43 12.9296 30.5433 13.3296 30.77C13.7296 30.9967 14.0362 31.31 14.2496 31.71C14.4696 32.1033 14.5796 32.55 14.5796 33.05ZM13.6396 32.86C13.6396 32.5133 13.5629 32.2167 13.4096 31.97C13.2562 31.7167 13.0462 31.5267 12.7796 31.4C12.5196 31.2667 12.2296 31.2 11.9096 31.2C11.4496 31.2 11.0562 31.3467 10.7296 31.64C10.4096 31.9333 10.2262 32.34 10.1796 32.86H13.6396ZM18.4507 30.42C19.1174 30.42 19.6574 30.6233 20.0707 31.03C20.4841 31.43 20.6907 32.01 20.6907 32.77V36H19.7907V32.9C19.7907 32.3533 19.6541 31.9367 19.3807 31.65C19.1074 31.3567 18.7341 31.21 18.2607 31.21C17.7807 31.21 17.3974 31.36 17.1107 31.66C16.8307 31.96 16.6907 32.3967 16.6907 32.97V36H15.7807V30.52H16.6907V31.3C16.8707 31.02 17.1141 30.8033 17.4207 30.65C17.7341 30.4967 18.0774 30.42 18.4507 30.42ZM27.0372 30.52V36H26.1272V35.19C25.9539 35.47 25.7106 35.69 25.3972 35.85C25.0906 36.0033 24.7506 36.08 24.3772 36.08C23.9506 36.08 23.5672 35.9933 23.2272 35.82C22.8872 35.64 22.6172 35.3733 22.4172 35.02C22.2239 34.6667 22.1272 34.2367 22.1272 33.73V30.52H23.0272V33.61C23.0272 34.15 23.1639 34.5667 23.4372 34.86C23.7106 35.1467 24.0839 35.29 24.5572 35.29C25.0439 35.29 25.4272 35.14 25.7072 34.84C25.9872 34.54 26.1272 34.1033 26.1272 33.53V30.52H27.0372Z" fill="white"/>
</svg>
