<svg width="36" height="38" viewBox="0 0 36 38" fill="none" xmlns="http://www.w3.org/2000/svg">
<path d="M17.5 2C22.75 2 27 6.25 27 11.5C27 16.75 22.75 21 17.5 21C12.25 21 8 16.75 8 11.5C8 7.8 10.11 4.6 13.2 3.03" stroke="#C1C9E5" stroke-width="1.5" stroke-linecap="round" stroke-linejoin="round"/>
<path d="M28 22L26 20" stroke="#C1C9E5" stroke-width="1.5" stroke-linecap="round" stroke-linejoin="round"/>
<path d="M3.46535 36.07C3.00535 36.07 2.59202 35.99 2.22535 35.83C1.86535 35.6633 1.58202 35.4367 1.37535 35.15C1.16868 34.8567 1.06202 34.52 1.05535 34.14H2.02535C2.05869 34.4667 2.19202 34.7433 2.42535 34.97C2.66535 35.19 3.01202 35.3 3.46535 35.3C3.89868 35.3 4.23868 35.1933 4.48535 34.98C4.73869 34.76 4.86535 34.48 4.86535 34.14C4.86535 33.8733 4.79202 33.6567 4.64535 33.49C4.49869 33.3233 4.31535 33.1967 4.09535 33.11C3.87535 33.0233 3.57869 32.93 3.20535 32.83C2.74535 32.71 2.37535 32.59 2.09535 32.47C1.82202 32.35 1.58535 32.1633 1.38535 31.91C1.19202 31.65 1.09535 31.3033 1.09535 30.87C1.09535 30.49 1.19202 30.1533 1.38535 29.86C1.57868 29.5667 1.84868 29.34 2.19535 29.18C2.54868 29.02 2.95202 28.94 3.40535 28.94C4.05869 28.94 4.59202 29.1033 5.00535 29.43C5.42535 29.7567 5.66202 30.19 5.71535 30.73H4.71535C4.68202 30.4633 4.54202 30.23 4.29535 30.03C4.04869 29.8233 3.72202 29.72 3.31535 29.72C2.93535 29.72 2.62535 29.82 2.38535 30.02C2.14535 30.2133 2.02535 30.4867 2.02535 30.84C2.02535 31.0933 2.09535 31.3 2.23535 31.46C2.38202 31.62 2.55869 31.7433 2.76535 31.83C2.97869 31.91 3.27535 32.0033 3.65535 32.11C4.11535 32.2367 4.48535 32.3633 4.76535 32.49C5.04535 32.61 5.28535 32.8 5.48535 33.06C5.68535 33.3133 5.78535 33.66 5.78535 34.1C5.78535 34.44 5.69535 34.76 5.51535 35.06C5.33535 35.36 5.06868 35.6033 4.71535 35.79C4.36202 35.9767 3.94535 36.07 3.46535 36.07ZM12.1245 33.05C12.1245 33.2233 12.1145 33.4067 12.0945 33.6H7.71449C7.74783 34.14 7.93116 34.5633 8.26449 34.87C8.60449 35.17 9.01449 35.32 9.49449 35.32C9.88783 35.32 10.2145 35.23 10.4745 35.05C10.7412 34.8633 10.9278 34.6167 11.0345 34.31H12.0145C11.8678 34.8367 11.5745 35.2667 11.1345 35.6C10.6945 35.9267 10.1478 36.09 9.49449 36.09C8.97449 36.09 8.50783 35.9733 8.09449 35.74C7.68783 35.5067 7.36783 35.1767 7.13449 34.75C6.90116 34.3167 6.78449 33.8167 6.78449 33.25C6.78449 32.6833 6.89783 32.1867 7.12449 31.76C7.35116 31.3333 7.66783 31.0067 8.07449 30.78C8.48783 30.5467 8.96116 30.43 9.49449 30.43C10.0145 30.43 10.4745 30.5433 10.8745 30.77C11.2745 30.9967 11.5812 31.31 11.7945 31.71C12.0145 32.1033 12.1245 32.55 12.1245 33.05ZM11.1845 32.86C11.1845 32.5133 11.1078 32.2167 10.9545 31.97C10.8012 31.7167 10.5912 31.5267 10.3245 31.4C10.0645 31.2667 9.77449 31.2 9.45449 31.2C8.99449 31.2 8.60116 31.3467 8.27449 31.64C7.95449 31.9333 7.77116 32.34 7.72449 32.86H11.1845ZM12.9857 33.24C12.9857 32.68 13.099 32.19 13.3257 31.77C13.5523 31.3433 13.8623 31.0133 14.2557 30.78C14.6557 30.5467 15.099 30.43 15.5857 30.43C16.0657 30.43 16.4823 30.5333 16.8357 30.74C17.189 30.9467 17.4523 31.2067 17.6257 31.52V30.52H18.5457V36H17.6257V34.98C17.4457 35.3 17.1757 35.5667 16.8157 35.78C16.4623 35.9867 16.049 36.09 15.5757 36.09C15.089 36.09 14.649 35.97 14.2557 35.73C13.8623 35.49 13.5523 35.1533 13.3257 34.72C13.099 34.2867 12.9857 33.7933 12.9857 33.24ZM17.6257 33.25C17.6257 32.8367 17.5423 32.4767 17.3757 32.17C17.209 31.8633 16.9823 31.63 16.6957 31.47C16.4157 31.3033 16.1057 31.22 15.7657 31.22C15.4257 31.22 15.1157 31.3 14.8357 31.46C14.5557 31.62 14.3323 31.8533 14.1657 32.16C13.999 32.4667 13.9157 32.8267 13.9157 33.24C13.9157 33.66 13.999 34.0267 14.1657 34.34C14.3323 34.6467 14.5557 34.8833 14.8357 35.05C15.1157 35.21 15.4257 35.29 15.7657 35.29C16.1057 35.29 16.4157 35.21 16.6957 35.05C16.9823 34.8833 17.209 34.6467 17.3757 34.34C17.5423 34.0267 17.6257 33.6633 17.6257 33.25ZM20.9935 31.41C21.1535 31.0967 21.3801 30.8533 21.6735 30.68C21.9735 30.5067 22.3368 30.42 22.7635 30.42V31.36H22.5235C21.5035 31.36 20.9935 31.9133 20.9935 33.02V36H20.0835V30.52H20.9935V31.41ZM23.4739 33.25C23.4739 32.6833 23.5873 32.19 23.8139 31.77C24.0406 31.3433 24.3539 31.0133 24.7539 30.78C25.1606 30.5467 25.6239 30.43 26.1439 30.43C26.8173 30.43 27.3706 30.5933 27.8039 30.92C28.2439 31.2467 28.5339 31.7 28.6739 32.28H27.6939C27.6006 31.9467 27.4173 31.6833 27.1439 31.49C26.8773 31.2967 26.5439 31.2 26.1439 31.2C25.6239 31.2 25.2039 31.38 24.8839 31.74C24.5639 32.0933 24.4039 32.5967 24.4039 33.25C24.4039 33.91 24.5639 34.42 24.8839 34.78C25.2039 35.14 25.6239 35.32 26.1439 35.32C26.5439 35.32 26.8773 35.2267 27.1439 35.04C27.4106 34.8533 27.5939 34.5867 27.6939 34.24H28.6739C28.5273 34.8 28.2339 35.25 27.7939 35.59C27.3539 35.9233 26.8039 36.09 26.1439 36.09C25.6239 36.09 25.1606 35.9733 24.7539 35.74C24.3539 35.5067 24.0406 35.1767 23.8139 34.75C23.5873 34.3233 23.4739 33.8233 23.4739 33.25ZM32.6082 30.42C33.0215 30.42 33.3948 30.51 33.7282 30.69C34.0615 30.8633 34.3215 31.1267 34.5082 31.48C34.7015 31.8333 34.7982 32.2633 34.7982 32.77V36H33.8982V32.9C33.8982 32.3533 33.7615 31.9367 33.4882 31.65C33.2148 31.3567 32.8415 31.21 32.3682 31.21C31.8882 31.21 31.5048 31.36 31.2182 31.66C30.9382 31.96 30.7982 32.3967 30.7982 32.97V36H29.8882V28.6H30.7982V31.3C30.9782 31.02 31.2248 30.8033 31.5382 30.65C31.8582 30.4967 32.2148 30.42 32.6082 30.42Z" fill="white"/>
</svg>
