<svg width="20" height="20" viewBox="0 0 20 20" fill="none" xmlns="http://www.w3.org/2000/svg">
<mask id="path-1-inside-1_1_418" fill="white">
<path d="M8.4763 2.00006H2.38102C2.27998 2.00006 2.18308 2.0402 2.11164 2.11164C2.0402 2.18308 2.00006 2.27998 2.00006 2.38102V8.4763C2.00006 8.57733 2.0402 8.67423 2.11164 8.74567C2.18308 8.81711 2.27998 8.85725 2.38102 8.85725H8.4763C8.57733 8.85725 8.67423 8.81711 8.74567 8.74567C8.81711 8.67423 8.85725 8.57733 8.85725 8.4763V2.38102C8.85725 2.27998 8.81711 2.18308 8.74567 2.11164C8.67423 2.0402 8.57733 2.00006 8.4763 2.00006ZM8.09534 8.09534H2.76197V2.76197H8.09534V8.09534ZM17.6192 2.00006H11.5239C11.4229 2.00006 11.326 2.0402 11.2546 2.11164C11.1831 2.18308 11.143 2.27998 11.143 2.38102V8.4763C11.143 8.57733 11.1831 8.67423 11.2546 8.74567C11.326 8.81711 11.4229 8.85725 11.5239 8.85725H17.6192C17.7203 8.85725 17.8171 8.81711 17.8886 8.74567C17.96 8.67423 18.0002 8.57733 18.0002 8.4763V2.38102C18.0002 2.27998 17.96 2.18308 17.8886 2.11164C17.8171 2.0402 17.7203 2.00006 17.6192 2.00006ZM17.2383 8.09534H11.9049V2.76197H17.2383V8.09534ZM8.4763 11.143H2.38102C2.27998 11.143 2.18308 11.1831 2.11164 11.2546C2.0402 11.326 2.00006 11.4229 2.00006 11.5239V17.6192C2.00007 17.7202 2.0402 17.8171 2.11165 17.8886C2.18309 17.96 2.27998 18.0002 2.38102 18.0002H8.4763C8.57733 18.0002 8.67422 17.96 8.74567 17.8886C8.81711 17.8171 8.85725 17.7202 8.85725 17.6192V11.5239C8.85725 11.4229 8.81711 11.326 8.74567 11.2546C8.67423 11.1831 8.57733 11.143 8.4763 11.143ZM8.09534 17.2383H2.76197V11.9049H8.09534V17.2383ZM17.6192 11.143H11.5239C11.4229 11.143 11.326 11.1831 11.2546 11.2546C11.1831 11.326 11.143 11.4229 11.143 11.5239V17.6192C11.143 17.7202 11.1831 17.8171 11.2546 17.8886C11.326 17.96 11.4229 18.0002 11.5239 18.0002H17.6192C17.7202 18.0002 17.8171 17.96 17.8886 17.8886C17.96 17.8171 18.0002 17.7202 18.0002 17.6192V11.5239C18.0002 11.4229 17.96 11.326 17.8886 11.2546C17.8171 11.1831 17.7203 11.143 17.6192 11.143ZM17.2383 17.2383H11.9049V11.9049H17.2383V17.2383Z"/>
</mask>
<path d="M8.4763 2.00006H2.38102C2.27998 2.00006 2.18308 2.0402 2.11164 2.11164C2.0402 2.18308 2.00006 2.27998 2.00006 2.38102V8.4763C2.00006 8.57733 2.0402 8.67423 2.11164 8.74567C2.18308 8.81711 2.27998 8.85725 2.38102 8.85725H8.4763C8.57733 8.85725 8.67423 8.81711 8.74567 8.74567C8.81711 8.67423 8.85725 8.57733 8.85725 8.4763V2.38102C8.85725 2.27998 8.81711 2.18308 8.74567 2.11164C8.67423 2.0402 8.57733 2.00006 8.4763 2.00006ZM8.09534 8.09534H2.76197V2.76197H8.09534V8.09534ZM17.6192 2.00006H11.5239C11.4229 2.00006 11.326 2.0402 11.2546 2.11164C11.1831 2.18308 11.143 2.27998 11.143 2.38102V8.4763C11.143 8.57733 11.1831 8.67423 11.2546 8.74567C11.326 8.81711 11.4229 8.85725 11.5239 8.85725H17.6192C17.7203 8.85725 17.8171 8.81711 17.8886 8.74567C17.96 8.67423 18.0002 8.57733 18.0002 8.4763V2.38102C18.0002 2.27998 17.96 2.18308 17.8886 2.11164C17.8171 2.0402 17.7203 2.00006 17.6192 2.00006ZM17.2383 8.09534H11.9049V2.76197H17.2383V8.09534ZM8.4763 11.143H2.38102C2.27998 11.143 2.18308 11.1831 2.11164 11.2546C2.0402 11.326 2.00006 11.4229 2.00006 11.5239V17.6192C2.00007 17.7202 2.0402 17.8171 2.11165 17.8886C2.18309 17.96 2.27998 18.0002 2.38102 18.0002H8.4763C8.57733 18.0002 8.67422 17.96 8.74567 17.8886C8.81711 17.8171 8.85725 17.7202 8.85725 17.6192V11.5239C8.85725 11.4229 8.81711 11.326 8.74567 11.2546C8.67423 11.1831 8.57733 11.143 8.4763 11.143ZM8.09534 17.2383H2.76197V11.9049H8.09534V17.2383ZM17.6192 11.143H11.5239C11.4229 11.143 11.326 11.1831 11.2546 11.2546C11.1831 11.326 11.143 11.4229 11.143 11.5239V17.6192C11.143 17.7202 11.1831 17.8171 11.2546 17.8886C11.326 17.96 11.4229 18.0002 11.5239 18.0002H17.6192C17.7202 18.0002 17.8171 17.96 17.8886 17.8886C17.96 17.8171 18.0002 17.7202 18.0002 17.6192V11.5239C18.0002 11.4229 17.96 11.326 17.8886 11.2546C17.8171 11.1831 17.7203 11.143 17.6192 11.143ZM17.2383 17.2383H11.9049V11.9049H17.2383V17.2383Z" fill="white"/>
<path d="M8.09534 8.09534V9.09534H9.09534V8.09534H8.09534ZM2.76197 8.09534H1.76197V9.09534H2.76197V8.09534ZM2.76197 2.76197V1.76197H1.76197V2.76197H2.76197ZM8.09534 2.76197H9.09534V1.76197H8.09534V2.76197ZM17.2383 8.09534V9.09534H18.2383V8.09534H17.2383ZM11.9049 8.09534H10.9049V9.09534H11.9049V8.09534ZM11.9049 2.76197V1.76197H10.9049V2.76197H11.9049ZM17.2383 2.76197H18.2383V1.76197H17.2383V2.76197ZM2.00006 17.6192H1.00006V17.6193L2.00006 17.6192ZM2.38102 18.0002L2.38097 19.0002H2.38102V18.0002ZM8.4763 18.0002L8.4763 19.0002H8.47635L8.4763 18.0002ZM8.85725 17.6192L9.85725 17.6193V17.6192H8.85725ZM8.09534 17.2383V18.2383H9.09534V17.2383H8.09534ZM2.76197 17.2383H1.76197V18.2383H2.76197V17.2383ZM2.76197 11.9049V10.9049H1.76197V11.9049H2.76197ZM8.09534 11.9049H9.09534V10.9049H8.09534V11.9049ZM11.143 17.6192H10.143V17.6193L11.143 17.6192ZM11.5239 18.0002L11.5239 19.0002H11.5239V18.0002ZM17.6192 18.0002V19.0002H17.6193L17.6192 18.0002ZM18.0002 17.6192L19.0002 17.6193V17.6192H18.0002ZM17.2383 17.2383V18.2383H18.2383V17.2383H17.2383ZM11.9049 17.2383H10.9049V18.2383H11.9049V17.2383ZM11.9049 11.9049V10.9049H10.9049V11.9049H11.9049ZM17.2383 11.9049H18.2383V10.9049H17.2383V11.9049ZM8.4763 2.00006V1.00006H2.38102V2.00006V3.00006H8.4763V2.00006ZM2.38102 2.00006V1.00006C2.01476 1.00006 1.66351 1.14555 1.40453 1.40453L2.11164 2.11164L2.81875 2.81875C2.70265 2.93484 2.5452 3.00006 2.38102 3.00006V2.00006ZM2.11164 2.11164L1.40453 1.40453C1.14555 1.66351 1.00006 2.01476 1.00006 2.38102H2.00006H3.00006C3.00006 2.5452 2.93484 2.70265 2.81875 2.81875L2.11164 2.11164ZM2.00006 2.38102H1.00006V8.4763H2.00006H3.00006V2.38102H2.00006ZM2.00006 8.4763H1.00006C1.00006 8.84255 1.14555 9.1938 1.40453 9.45278L2.11164 8.74567L2.81875 8.03857C2.93484 8.15466 3.00006 8.31212 3.00006 8.4763H2.00006ZM2.11164 8.74567L1.40453 9.45278C1.66351 9.71176 2.01477 9.85725 2.38102 9.85725V8.85725V7.85725C2.5452 7.85725 2.70265 7.92247 2.81875 8.03857L2.11164 8.74567ZM2.38102 8.85725V9.85725H8.4763V8.85725V7.85725H2.38102V8.85725ZM8.4763 8.85725V9.85725C8.84255 9.85725 9.1938 9.71176 9.45278 9.45278L8.74567 8.74567L8.03857 8.03857C8.15466 7.92247 8.31212 7.85725 8.4763 7.85725V8.85725ZM8.74567 8.74567L9.45278 9.45278C9.71176 9.1938 9.85725 8.84255 9.85725 8.4763H8.85725H7.85725C7.85725 8.31212 7.92247 8.15466 8.03857 8.03857L8.74567 8.74567ZM8.85725 8.4763H9.85725V2.38102H8.85725H7.85725V8.4763H8.85725ZM8.85725 2.38102H9.85725C9.85725 2.01477 9.71176 1.66351 9.45278 1.40453L8.74567 2.11164L8.03857 2.81875C7.92247 2.70265 7.85725 2.5452 7.85725 2.38102H8.85725ZM8.74567 2.11164L9.45278 1.40453C9.1938 1.14555 8.84255 1.00006 8.4763 1.00006V2.00006V3.00006C8.31212 3.00006 8.15466 2.93484 8.03857 2.81875L8.74567 2.11164ZM8.09534 8.09534V7.09534H2.76197V8.09534V9.09534H8.09534V8.09534ZM2.76197 8.09534H3.76197V2.76197H2.76197H1.76197V8.09534H2.76197ZM2.76197 2.76197V3.76197H8.09534V2.76197V1.76197H2.76197V2.76197ZM8.09534 2.76197H7.09534V8.09534H8.09534H9.09534V2.76197H8.09534ZM17.6192 2.00006V1.00006H11.5239V2.00006V3.00006H17.6192V2.00006ZM11.5239 2.00006V1.00006C11.1577 1.00006 10.8064 1.14555 10.5475 1.40453L11.2546 2.11164L11.9617 2.81875C11.8456 2.93484 11.6881 3.00006 11.5239 3.00006V2.00006ZM11.2546 2.11164L10.5475 1.40453C10.2885 1.66351 10.143 2.01477 10.143 2.38102H11.143H12.143C12.143 2.5452 12.0778 2.70265 11.9617 2.81875L11.2546 2.11164ZM11.143 2.38102H10.143V8.4763H11.143H12.143V2.38102H11.143ZM11.143 8.4763H10.143C10.143 8.84255 10.2885 9.1938 10.5475 9.45278L11.2546 8.74567L11.9617 8.03857C12.0778 8.15466 12.143 8.31212 12.143 8.4763H11.143ZM11.2546 8.74567L10.5475 9.45278C10.8064 9.71176 11.1577 9.85725 11.5239 9.85725V8.85725V7.85725C11.6881 7.85725 11.8456 7.92247 11.9617 8.03857L11.2546 8.74567ZM11.5239 8.85725V9.85725H17.6192V8.85725V7.85725H11.5239V8.85725ZM17.6192 8.85725V9.85725C17.9855 9.85725 18.3367 9.71176 18.5957 9.45278L17.8886 8.74567L17.1815 8.03857C17.2976 7.92247 17.455 7.85725 17.6192 7.85725V8.85725ZM17.8886 8.74567L18.5957 9.45278C18.8547 9.1938 19.0002 8.84255 19.0002 8.4763H18.0002H17.0002C17.0002 8.31212 17.0654 8.15466 17.1815 8.03857L17.8886 8.74567ZM18.0002 8.4763H19.0002V2.38102H18.0002H17.0002V8.4763H18.0002ZM18.0002 2.38102H19.0002C19.0002 2.01477 18.8547 1.66351 18.5957 1.40453L17.8886 2.11164L17.1815 2.81875C17.0654 2.70265 17.0002 2.5452 17.0002 2.38102H18.0002ZM17.8886 2.11164L18.5957 1.40453C18.3367 1.14555 17.9855 1.00006 17.6192 1.00006V2.00006V3.00006C17.455 3.00006 17.2976 2.93484 17.1815 2.81875L17.8886 2.11164ZM17.2383 8.09534V7.09534H11.9049V8.09534V9.09534H17.2383V8.09534ZM11.9049 8.09534H12.9049V2.76197H11.9049H10.9049V8.09534H11.9049ZM11.9049 2.76197V3.76197H17.2383V2.76197V1.76197H11.9049V2.76197ZM17.2383 2.76197H16.2383V8.09534H17.2383H18.2383V2.76197H17.2383ZM8.4763 11.143V10.143H2.38102V11.143V12.143H8.4763V11.143ZM2.38102 11.143V10.143C2.01477 10.143 1.66351 10.2885 1.40453 10.5475L2.11164 11.2546L2.81875 11.9617C2.70265 12.0778 2.5452 12.143 2.38102 12.143V11.143ZM2.11164 11.2546L1.40453 10.5475C1.14555 10.8064 1.00006 11.1577 1.00006 11.5239H2.00006H3.00006C3.00006 11.6881 2.93484 11.8456 2.81875 11.9617L2.11164 11.2546ZM2.00006 11.5239H1.00006V17.6192H2.00006H3.00006V11.5239H2.00006ZM2.00006 17.6192L1.00006 17.6193C1.00008 17.9855 1.14557 18.3367 1.40454 18.5957L2.11165 17.8886L2.81875 17.1815C2.93484 17.2976 3.00005 17.455 3.00006 17.6192L2.00006 17.6192ZM2.11165 17.8886L1.40454 18.5957C1.66351 18.8547 2.01473 19.0002 2.38097 19.0002L2.38102 18.0002L2.38107 17.0002C2.54523 17.0002 2.70267 17.0654 2.81875 17.1815L2.11165 17.8886ZM2.38102 18.0002V19.0002H8.4763V18.0002V17.0002H2.38102V18.0002ZM8.4763 18.0002L8.47635 19.0002C8.84258 19.0002 9.19381 18.8547 9.45277 18.5957L8.74567 17.8886L8.03856 17.1815C8.15464 17.0654 8.31208 17.0002 8.47625 17.0002L8.4763 18.0002ZM8.74567 17.8886L9.45277 18.5957C9.71174 18.3367 9.85723 17.9855 9.85725 17.6193L8.85725 17.6192L7.85725 17.6192C7.85726 17.455 7.92248 17.2976 8.03856 17.1815L8.74567 17.8886ZM8.85725 17.6192H9.85725V11.5239H8.85725H7.85725V17.6192H8.85725ZM8.85725 11.5239H9.85725C9.85725 11.1577 9.71176 10.8064 9.45278 10.5475L8.74567 11.2546L8.03857 11.9617C7.92247 11.8456 7.85725 11.6881 7.85725 11.5239H8.85725ZM8.74567 11.2546L9.45278 10.5475C9.1938 10.2885 8.84255 10.143 8.4763 10.143V11.143V12.143C8.31212 12.143 8.15466 12.0778 8.03857 11.9617L8.74567 11.2546ZM8.09534 17.2383V16.2383H2.76197V17.2383V18.2383H8.09534V17.2383ZM2.76197 17.2383H3.76197V11.9049H2.76197H1.76197V17.2383H2.76197ZM2.76197 11.9049V12.9049H8.09534V11.9049V10.9049H2.76197V11.9049ZM8.09534 11.9049H7.09534V17.2383H8.09534H9.09534V11.9049H8.09534ZM17.6192 11.143V10.143H11.5239V11.143V12.143H17.6192V11.143ZM11.5239 11.143V10.143C11.1577 10.143 10.8064 10.2885 10.5475 10.5475L11.2546 11.2546L11.9617 11.9617C11.8456 12.0778 11.6881 12.143 11.5239 12.143V11.143ZM11.2546 11.2546L10.5475 10.5475C10.2885 10.8064 10.143 11.1577 10.143 11.5239H11.143H12.143C12.143 11.6881 12.0778 11.8456 11.9617 11.9617L11.2546 11.2546ZM11.143 11.5239H10.143V17.6192H11.143H12.143V11.5239H11.143ZM11.143 17.6192L10.143 17.6193C10.143 17.9855 10.2885 18.3367 10.5475 18.5957L11.2546 17.8886L11.9617 17.1815C12.0778 17.2976 12.143 17.455 12.143 17.6192L11.143 17.6192ZM11.2546 17.8886L10.5475 18.5957C10.8064 18.8547 11.1577 19.0002 11.5239 19.0002L11.5239 18.0002L11.524 17.0002C11.6882 17.0002 11.8456 17.0654 11.9617 17.1815L11.2546 17.8886ZM11.5239 18.0002V19.0002H17.6192V18.0002V17.0002H11.5239V18.0002ZM17.6192 18.0002L17.6193 19.0002C17.9855 19.0002 18.3367 18.8547 18.5957 18.5957L17.8886 17.8886L17.1815 17.1815C17.2976 17.0654 17.455 17.0002 17.6192 17.0002L17.6192 18.0002ZM17.8886 17.8886L18.5957 18.5957C18.8547 18.3367 19.0002 17.9855 19.0002 17.6193L18.0002 17.6192L17.0002 17.6192C17.0002 17.455 17.0654 17.2976 17.1815 17.1815L17.8886 17.8886ZM18.0002 17.6192H19.0002V11.5239H18.0002H17.0002V17.6192H18.0002ZM18.0002 11.5239H19.0002C19.0002 11.1577 18.8547 10.8064 18.5957 10.5475L17.8886 11.2546L17.1815 11.9617C17.0654 11.8456 17.0002 11.6881 17.0002 11.5239H18.0002ZM17.8886 11.2546L18.5957 10.5475C18.3367 10.2885 17.9855 10.143 17.6192 10.143V11.143V12.143C17.455 12.143 17.2976 12.0778 17.1815 11.9617L17.8886 11.2546ZM17.2383 17.2383V16.2383H11.9049V17.2383V18.2383H17.2383V17.2383ZM11.9049 17.2383H12.9049V11.9049H11.9049H10.9049V17.2383H11.9049ZM11.9049 11.9049V12.9049H17.2383V11.9049V10.9049H11.9049V11.9049ZM17.2383 11.9049H16.2383V17.2383H17.2383H18.2383V11.9049H17.2383Z" fill="white" mask="url(#path-1-inside-1_1_418)"/>
</svg>
