<svg width="20" height="20" viewBox="0 0 20 20" fill="none" xmlns="http://www.w3.org/2000/svg">
<g clip-path="url(#clip0_1_431)">
<path d="M12.1549 17.2694H7.84514C7.75978 17.2694 7.67563 17.2498 7.59965 17.2123C7.52366 17.1748 7.45801 17.1204 7.40809 17.0537C7.35818 16.9869 7.32544 16.9097 7.31257 16.8283C7.2997 16.7469 7.30707 16.6638 7.33407 16.5857L8.06725 14.4653C7.45924 14.6646 6.8107 14.7212 6.17543 14.6306C5.54017 14.5399 4.93647 14.3045 4.41442 13.944C3.89237 13.5834 3.467 13.1081 3.17359 12.5574C2.88018 12.0067 2.72718 11.3965 2.72729 10.7773C2.72729 9.22383 3.92012 7.40119 6.27263 5.36001C7.35184 4.42961 8.50061 3.57703 9.70962 2.80917C9.79632 2.75571 9.8971 2.72729 10 2.72729C10.1029 2.72729 10.2037 2.75571 10.2904 2.80917C11.4994 3.57703 12.6482 4.42961 13.7274 5.36001C16.0799 7.40119 17.2727 9.22383 17.2727 10.7773C17.2729 11.3965 17.1199 12.0067 16.8265 12.5574C16.533 13.1081 16.1077 13.5834 15.5856 13.944C15.0636 14.3045 14.4599 14.5399 13.8246 14.6306C13.1893 14.7212 12.5408 14.6646 11.9328 14.4653L12.666 16.5857C12.693 16.6638 12.7003 16.7469 12.6875 16.8283C12.6746 16.9097 12.6419 16.9869 12.592 17.0537C12.542 17.1204 12.4764 17.1748 12.4004 17.2123C12.3244 17.2498 12.2403 17.2694 12.1549 17.2694ZM8.59259 16.2306H11.4075L10.4738 13.5305C10.4367 13.4232 10.437 13.3072 10.4745 13.2001C10.512 13.0929 10.5848 13.0005 10.6818 12.9369C10.7787 12.8733 10.8946 12.8419 11.0118 12.8475C11.1289 12.8532 11.2409 12.8955 11.3309 12.9681C11.7632 13.3168 12.2897 13.5394 12.8486 13.6098C13.4075 13.6801 13.9757 13.5953 14.4864 13.3653C14.997 13.1354 15.4291 12.7697 15.7318 12.3113C16.0345 11.8529 16.1953 11.3208 16.1953 10.7773C16.1953 8.37024 11.9689 5.13945 10 3.86774C8.03116 5.13945 3.80474 8.37024 3.80474 10.7773C3.80476 11.3208 3.96555 11.8529 4.26825 12.3113C4.57095 12.7697 5.003 13.1353 5.51369 13.3653C6.02438 13.5953 6.59252 13.6801 7.15144 13.6098C7.71036 13.5394 8.23687 13.3168 8.66918 12.9681C8.7591 12.8955 8.87114 12.8532 8.98829 12.8475C9.10544 12.8419 9.2213 12.8733 9.31827 12.9369C9.41524 13.0005 9.48802 13.0929 9.52555 13.2001C9.56309 13.3072 9.56332 13.4232 9.52623 13.5305L8.59259 16.2306Z" fill="#C1C9E5"/>
</g>
<defs>
<clipPath id="clip0_1_431">
<rect width="16" height="16" fill="white" transform="translate(2 2)"/>
</clipPath>
</defs>
</svg>
