<svg width="20" height="20" viewBox="0 0 20 20" fill="none" xmlns="http://www.w3.org/2000/svg">
<g clip-path="url(#clip0_1_438)">
<path d="M16.063 10.2428C16.1971 10.2428 16.3054 10.1342 16.3054 10.0004C16.3054 9.86662 16.1971 9.75802 16.063 9.75802H15.3297C15.3156 9.44966 15.2749 9.14833 15.2106 8.85572L15.9193 8.66589C16.0485 8.63145 16.1253 8.49836 16.0906 8.36915C16.0562 8.23947 15.9231 8.1631 15.7939 8.19751L15.0858 8.38733C14.9929 8.09546 14.8751 7.81498 14.7355 7.54734L15.3721 7.17981C15.4882 7.1129 15.528 6.96478 15.4611 6.84867C15.3937 6.73256 15.2453 6.69305 15.1297 6.75995L14.4924 7.1277C14.328 6.87171 14.1435 6.63001 13.9389 6.40626L14.4591 5.886C14.5537 5.79145 14.5537 5.63799 14.4591 5.54322C14.3643 5.44867 14.2109 5.44867 14.1164 5.54322L13.5961 6.06347C13.3723 5.8591 13.1304 5.67438 12.8744 5.51001L13.2422 4.8729C13.3093 4.75702 13.2695 4.60867 13.1534 4.54151C13.0378 4.47461 12.8892 4.51435 12.8223 4.63049L12.4547 5.26685C12.1871 5.12745 11.9066 5.00964 11.6147 4.9168L11.8048 4.20915C11.8395 4.07969 11.7629 3.94685 11.6334 3.91219C11.5047 3.87776 11.3711 3.95438 11.3364 4.08336L11.1464 4.79197C10.8538 4.72773 10.5527 4.68725 10.2441 4.67319L10.2443 3.93986C10.2443 3.80606 10.136 3.69745 10.0019 3.69745C9.86812 3.69745 9.75951 3.80606 9.75951 3.93986L9.75928 4.67319C9.45116 4.68725 9.14982 4.72799 8.85721 4.79222L8.66738 4.08361C8.63272 3.95441 8.50011 3.87731 8.37065 3.91222C8.24119 3.94665 8.16434 4.07975 8.19925 4.20895L8.38883 4.91731C8.09695 5.01015 7.81647 5.12796 7.54883 5.26736L7.18156 4.63074C7.11465 4.51464 6.96653 4.47486 6.85065 4.54177C6.73454 4.60867 6.69477 4.75705 6.76167 4.87293L7.12942 5.51052C6.87343 5.67512 6.63173 5.85961 6.40798 6.06421L5.88798 5.54373C5.7932 5.44893 5.63974 5.44918 5.54494 5.54347C5.45039 5.63824 5.45039 5.79171 5.54494 5.88651L6.06494 6.40699C5.86082 6.63074 5.67607 6.8727 5.51195 7.1287L4.87462 6.7602C4.75874 6.69305 4.61039 6.73282 4.54346 6.84893C4.47656 6.96481 4.51607 7.11293 4.63195 7.18009L5.2688 7.5481C5.1294 7.81574 5.01158 8.09623 4.91874 8.3881L4.21062 8.19756C4.0819 8.16339 3.94854 8.23949 3.91366 8.36895C3.879 8.49816 3.95559 8.63126 4.08482 8.66591L4.79391 8.85645C4.72968 9.14907 4.6892 9.45015 4.67514 9.75853L3.94156 9.75805H3.94133C3.80752 9.75805 3.69914 9.8664 3.69891 10.0002C3.69891 10.1343 3.80727 10.2429 3.9411 10.2429L4.67516 10.2434C4.68923 10.5517 4.72996 10.8531 4.7942 11.1457L4.08536 11.3348C3.9559 11.3694 3.87906 11.5023 3.91349 11.6317C3.94258 11.7401 4.0405 11.8116 4.14766 11.8116C4.16852 11.8116 4.18937 11.809 4.21022 11.8034L4.91931 11.614C5.01215 11.9057 5.12996 12.1862 5.26937 12.4538L4.63252 12.8206C4.51641 12.8875 4.47664 13.0359 4.54332 13.1517C4.58817 13.2296 4.66962 13.2732 4.75374 13.2732C4.79471 13.2732 4.83616 13.2628 4.87448 13.2409L5.51255 12.8732C5.67692 13.1292 5.86139 13.3709 6.06602 13.5946L5.54528 14.1144C5.45048 14.2089 5.45025 14.3624 5.54479 14.4572C5.59232 14.5047 5.65437 14.5284 5.71644 14.5284C5.77852 14.5284 5.84056 14.5049 5.88783 14.4576L6.4088 13.9376C6.63255 14.1418 6.87425 14.3265 7.13025 14.4906L6.76175 15.1277C6.69485 15.2436 6.73437 15.3917 6.85048 15.4589C6.88854 15.4809 6.93022 15.4913 6.97144 15.4913C7.05508 15.4913 7.13653 15.4482 7.18161 15.3704L7.54962 14.7338C7.81727 14.8732 8.09775 14.991 8.38962 15.0838L8.19931 15.7915C8.1644 15.9209 8.24102 16.0538 8.37048 16.0887C8.39133 16.0942 8.41266 16.0969 8.43352 16.0969C8.54042 16.0969 8.63837 16.0256 8.66746 15.9175L8.858 15.2087C9.15062 15.2732 9.45195 15.3136 9.76008 15.3277L9.75959 16.0608C9.75959 16.1949 9.86795 16.3035 10.0018 16.3035H10.002C10.1358 16.3035 10.2444 16.1951 10.2444 16.0613L10.2449 15.3277C10.553 15.3136 10.8546 15.2732 11.1472 15.2087L11.3365 15.9173C11.3654 16.0256 11.4633 16.0972 11.5705 16.0972C11.5913 16.0972 11.6124 16.0945 11.6333 16.0889C11.7627 16.0543 11.8393 15.9214 11.8049 15.792L11.6156 15.0838C11.9072 14.991 12.1879 14.8732 12.4553 14.7338L12.8223 15.3704C12.8669 15.4482 12.9486 15.4916 13.0325 15.4916C13.0735 15.4916 13.1152 15.4812 13.1532 15.4594C13.2693 15.3925 13.3093 15.2441 13.2422 15.1282L12.8749 14.4906C13.1307 14.3263 13.3726 14.1418 13.5964 13.9372L14.1159 14.4574C14.1632 14.5049 14.2255 14.5287 14.2875 14.5287C14.3496 14.5287 14.4114 14.5049 14.4589 14.4577C14.5535 14.3631 14.5535 14.2097 14.4592 14.1149L13.9392 13.5944C14.1438 13.3707 14.3283 13.129 14.4927 12.873L15.129 13.241C15.1676 13.263 15.2093 13.2734 15.2502 13.2734C15.3341 13.2734 15.4156 13.2301 15.4604 13.1522C15.5276 13.0363 15.4878 12.8882 15.3719 12.8211L14.7358 12.4533C14.8752 12.1857 14.993 11.9049 15.0859 11.6133L15.7933 11.8034C15.8143 11.8092 15.8357 11.8119 15.8563 11.8119C15.9632 11.8119 16.0612 11.7406 16.0902 11.6322C16.1252 11.503 16.0483 11.3699 15.9191 11.3353L15.2107 11.1449C15.2752 10.8523 15.3157 10.551 15.3298 10.2429H16.063V10.2428ZM10.0024 14.8489C7.32894 14.8489 5.15391 12.6739 5.15391 10.0004C5.15391 7.32697 7.32894 5.15194 10.0024 5.15194C12.6759 5.15194 14.8509 7.32697 14.8509 10.0004C14.8509 12.6739 12.6759 14.8489 10.0024 14.8489Z" fill="#C1C9E5" stroke="#C1C9E5" stroke-width="0.125"/>
<path d="M12.9091 9.27274C12.5935 9.27274 12.327 9.47589 12.2267 9.7576H11.4327C11.33 9.14984 10.8502 8.67007 10.2424 8.56728V7.77359C10.5239 7.67299 10.7273 7.40657 10.7273 7.09092C10.7273 6.68995 10.401 6.36365 10 6.36365C9.59905 6.36365 9.27274 6.68995 9.27274 7.09092C9.27274 7.40655 9.47589 7.67299 9.7576 7.77334V8.56728C9.14984 8.67007 8.67007 9.14984 8.56728 9.7576H7.77359C7.67299 9.47589 7.40657 9.27274 7.09092 9.27274C6.68995 9.27274 6.36365 9.59905 6.36365 10C6.36365 10.401 6.68995 10.7273 7.09092 10.7273C7.40655 10.7273 7.67299 10.5241 7.77359 10.2424H8.56728C8.67007 10.8502 9.14984 11.33 9.7576 11.4327V12.2264C9.47589 12.327 9.27274 12.5934 9.27274 12.9091C9.27274 13.3101 9.59905 13.6364 10 13.6364C10.401 13.6364 10.7273 13.3101 10.7273 12.9091C10.7273 12.5935 10.5239 12.327 10.2424 12.2264V11.4327C10.8502 11.33 11.33 10.8502 11.4327 10.2424H12.2267C12.3271 10.5241 12.5935 10.7273 12.9091 10.7273C13.3101 10.7273 13.6364 10.401 13.6364 10C13.6364 9.59905 13.3101 9.27274 12.9091 9.27274ZM7.09092 10.2424C6.95734 10.2424 6.84851 10.1336 6.84851 10C6.84851 9.86643 6.95734 9.7576 7.09092 9.7576C7.2245 9.7576 7.33333 9.86643 7.33333 10C7.33333 10.1336 7.2245 10.2424 7.09092 10.2424ZM10 6.84851C10.1336 6.84851 10.2424 6.95734 10.2424 7.09092C10.2424 7.2245 10.1336 7.33333 10 7.33333C9.86643 7.33333 9.7576 7.2245 9.7576 7.09092C9.7576 6.95734 9.86643 6.84851 10 6.84851ZM10 13.1515C9.86643 13.1515 9.7576 13.0427 9.7576 12.9091C9.7576 12.7755 9.86643 12.6667 10 12.6667C10.1336 12.6667 10.2424 12.7755 10.2424 12.9091C10.2424 13.0427 10.1336 13.1515 10 13.1515ZM10 10.9697C9.46521 10.9697 9.03032 10.5348 9.03032 10C9.03032 9.46521 9.46524 9.03032 10 9.03032C10.5348 9.03032 10.9697 9.46524 10.9697 10C10.9697 10.5348 10.5348 10.9697 10 10.9697ZM12.9091 10.2424C12.7753 10.2424 12.6667 10.1336 12.6667 10C12.6667 9.86643 12.7753 9.7576 12.9091 9.7576C13.0429 9.7576 13.1515 9.86643 13.1515 10C13.1515 10.1336 13.0429 10.2424 12.9091 10.2424Z" fill="#C1C9E5" stroke="#C1C9E5" stroke-width="0.125"/>
<path d="M10 2.72729C5.98985 2.72729 2.72729 5.98985 2.72729 10C2.72729 14.0102 5.98985 17.2727 10 17.2727C14.0102 17.2727 17.2727 14.0102 17.2727 10C17.2727 5.98985 14.0102 2.72729 10 2.72729ZM10 16.7879C6.25724 16.7879 3.21215 13.7428 3.21215 10C3.21215 6.25724 6.25724 3.21215 10 3.21215C13.7428 3.21215 16.7879 6.25724 16.7879 10C16.7879 13.7428 13.7428 16.7879 10 16.7879Z" fill="#C1C9E5" stroke="#C1C9E5" stroke-width="0.125"/>
</g>
<defs>
<clipPath id="clip0_1_438">
<rect width="16" height="16" fill="white" transform="translate(2 2)"/>
</clipPath>
</defs>
</svg>
