<svg width="20" height="20" viewBox="0 0 20 20" fill="none" xmlns="http://www.w3.org/2000/svg">
<path d="M2.10529 8.79231C2.10689 8.77973 2.10902 8.76716 2.11062 8.75406C2.11222 8.74411 2.11329 8.73415 2.11489 8.7242C2.11169 8.74725 2.10849 8.76978 2.10529 8.79231ZM2.14689 8.49105C2.14742 8.48686 2.14849 8.48267 2.14902 8.47848C2.14955 8.47481 2.15009 8.47115 2.15062 8.46748C2.14955 8.47534 2.14795 8.4832 2.14689 8.49105ZM17.7598 12.5446C17.7582 12.5577 17.755 12.5703 17.7534 12.5829C17.7507 12.6038 17.7481 12.6248 17.7454 12.6457C17.7507 12.6122 17.755 12.5781 17.7598 12.5446ZM17.9993 8.96572C18.0035 9.3639 17.9886 9.75946 17.9587 10.1566C17.9278 10.559 17.8974 10.9624 17.8809 11.3658C17.8633 11.7739 17.8094 12.1789 17.7534 12.5829C17.7177 12.837 17.6707 13.0884 17.6275 13.341C17.5859 13.5851 17.5555 13.8303 17.515 14.0745C17.4953 14.1939 17.4649 14.3102 17.4371 14.4281C17.4099 14.5376 17.387 14.6476 17.3539 14.755C17.3219 14.8624 17.2761 14.9667 17.2334 15.0694C17.1315 15.3135 16.9902 15.5268 16.7758 15.6934C16.7219 15.7463 16.6585 15.7824 16.5843 15.8029C16.5075 15.8233 16.4302 15.8233 16.3534 15.8029C16.2675 15.7803 16.1961 15.7253 16.1305 15.6551C15.6563 15.455 15.2126 15.2066 14.7726 14.9431C14.5139 14.788 14.2537 14.635 13.9993 14.4732C13.8734 14.393 13.7528 14.3045 13.627 14.2243C13.5118 14.1509 13.412 14.0608 13.3038 13.9781C13.1811 13.8843 13.0664 13.7805 12.9486 13.681C12.8115 13.5647 12.668 13.4541 12.5304 13.3378C12.3912 13.2194 12.2568 13.0958 12.1272 12.9669C12.0216 12.8621 11.9182 12.7495 11.8014 12.6557C11.795 12.6567 11.7891 12.6594 11.7827 12.6604C11.6051 12.6861 11.427 12.7175 11.2472 12.7269C10.8728 12.7453 10.4974 12.7568 10.1224 12.7526C9.91335 12.7495 9.70428 12.7453 9.49521 12.7406C9.29681 12.7343 9.09894 12.7107 8.90267 12.6887C8.76934 12.6735 8.63974 12.6573 8.51174 12.6201C8.436 12.5986 8.35867 12.5813 8.2808 12.565C8.2072 12.5488 8.13253 12.532 8.05893 12.5137C8.04133 12.5519 8.02 12.5897 7.99013 12.6227C7.94427 12.6735 7.8984 12.7259 7.85413 12.7767C7.71973 12.9271 7.58693 13.0769 7.44133 13.2158C7.29786 13.3535 7.14266 13.4761 6.98479 13.5977C6.64772 13.8539 6.30905 14.1096 5.96078 14.3516C5.64345 14.5711 5.28931 14.7409 4.94584 14.9174C4.57144 15.1102 4.1949 15.3015 3.81997 15.4917C3.76877 15.5179 3.71437 15.5325 3.65943 15.5388C3.58423 15.5661 3.50316 15.5781 3.42316 15.5519C3.3149 15.5163 3.19756 15.4812 3.10103 15.4199C2.99276 15.3523 2.91809 15.2716 2.84716 15.1663C2.74529 15.0123 2.67756 14.8352 2.60716 14.666C2.53142 14.4852 2.46476 14.2992 2.41675 14.109C2.36875 13.9162 2.32929 13.7219 2.28982 13.527C2.25249 13.3357 2.20662 13.1482 2.17142 12.9569C2.13409 12.7495 2.11329 12.5394 2.09355 12.3298C2.05729 11.95 2.04182 11.5691 2.02262 11.1877C2.00288 10.7952 1.99435 10.4013 2.00395 10.0088C2.01408 9.58762 2.05515 9.17163 2.11115 8.75459C2.12395 8.66238 2.13675 8.57069 2.14902 8.47848C2.20075 8.08345 2.25409 7.68946 2.32609 7.29757C2.38849 6.96069 2.47916 6.62643 2.58316 6.29846C2.68609 5.97153 2.78369 5.64356 2.91383 5.32606C2.98369 5.15526 3.04289 4.9808 3.13036 4.81734C3.17036 4.74242 3.20876 4.66645 3.24609 4.58996C3.28449 4.51137 3.3325 4.45217 3.38743 4.38248C3.43916 4.31804 3.53196 4.28713 3.6189 4.27351C3.66263 4.23893 3.71277 4.21169 3.7677 4.19702C3.80397 4.18706 3.84397 4.18182 3.88503 4.18182C3.95757 4.18182 4.03223 4.19911 4.0877 4.23788C4.16504 4.2908 4.24077 4.34633 4.31917 4.3982C4.50104 4.5208 4.68717 4.63711 4.86691 4.7618C5.03544 4.87916 5.20078 5.00071 5.36718 5.12121C5.52931 5.23752 5.68931 5.35697 5.85198 5.47381C6.01412 5.59012 6.18159 5.69962 6.34265 5.81697C6.52452 5.94953 6.71172 6.08365 6.87599 6.23663C7.03599 6.3849 7.18906 6.53789 7.33893 6.69611C7.47813 6.84228 7.6168 6.99003 7.7592 7.13306C7.83013 7.20431 7.90053 7.27609 7.9832 7.35206C8.20774 7.25408 8.43654 7.16764 8.68081 7.12625C8.88241 7.09167 9.08614 7.06495 9.29094 7.04556C9.60775 7.0157 9.92668 6.99789 10.2456 6.99789C10.3054 6.99789 10.3656 6.99841 10.4254 6.99998C10.7923 7.00836 11.1592 7.03246 11.5182 7.10843C11.6728 7.14039 11.8398 7.18178 11.9918 7.24727C12.0451 7.19016 12.0952 7.13044 12.1502 7.07438C12.2638 6.95807 12.3758 6.84176 12.4931 6.72912C12.7528 6.48392 13.0355 6.26912 13.3208 6.05379C13.7528 5.72738 14.1929 5.40989 14.6585 5.13274C15.1449 4.84249 15.6681 4.61877 16.1993 4.42283C16.2313 4.41078 16.267 4.40554 16.3033 4.40554C16.3331 4.40554 16.363 4.41182 16.3923 4.41811C16.4035 4.41025 16.411 4.3982 16.4227 4.39139C16.4873 4.35419 16.5582 4.3369 16.6291 4.3369C16.7731 4.3369 16.9145 4.4092 16.9902 4.53756C17.0729 4.67483 17.1337 4.82048 17.1961 4.96665C17.2958 5.19665 17.3961 5.42718 17.4894 5.6598C17.5747 5.87513 17.6131 6.10094 17.6558 6.32675C17.6985 6.54941 17.7689 6.76474 17.8169 6.98636C17.8718 7.2347 17.9033 7.49194 17.9262 7.74447C17.9635 8.15156 17.995 8.55812 17.9993 8.96572ZM7.44293 12.1401C7.44026 12.1328 7.43386 12.125 7.43173 12.1181C7.42746 12.1035 7.4312 12.0878 7.42853 12.0726C7.37146 12.0029 7.34373 11.9259 7.3352 11.8347C7.33306 11.808 7.33093 11.7828 7.32879 11.7561C7.32719 11.7383 7.32826 11.72 7.3272 11.7016C7.18746 11.7855 7.04826 11.8703 6.90479 11.9479C6.58852 12.1176 6.24879 12.247 5.91598 12.3801C5.81625 12.4189 5.67811 12.3885 5.58958 12.3382C5.49518 12.2832 5.42425 12.1931 5.39491 12.0888C5.36451 11.9814 5.38051 11.8651 5.43758 11.7682C5.49785 11.6681 5.58318 11.6178 5.69038 11.5769C5.92078 11.491 6.15332 11.4103 6.38159 11.3223C6.53786 11.249 6.69306 11.1693 6.84026 11.0803C6.98693 10.9912 7.12293 10.8875 7.27173 10.8026C7.28773 10.7932 7.30693 10.7958 7.32346 10.789C7.32293 10.681 7.32399 10.5731 7.32506 10.4647C7.28613 10.4746 7.24826 10.4882 7.20666 10.4877C6.79172 10.4804 6.37679 10.5092 5.96185 10.5102C5.70318 10.5102 5.48771 10.2975 5.48771 10.0434C5.48771 9.79194 5.70318 9.57452 5.96185 9.57766C6.22479 9.58081 6.48665 9.58709 6.74852 9.58081C6.90266 9.57661 7.05413 9.56456 7.20719 9.55304C7.21573 9.55251 7.22479 9.55199 7.23333 9.55199C7.27493 9.55199 7.3128 9.56718 7.3512 9.57923C7.3576 9.47707 7.364 9.37438 7.3704 9.27222C7.26639 9.29684 7.15386 9.28741 7.05946 9.22821C6.79546 9.0616 6.52452 8.90181 6.23919 8.77292C6.09145 8.71477 5.94158 8.665 5.79172 8.61417C5.55865 8.53454 5.40611 8.31083 5.47438 8.06563C5.52611 7.88331 5.71438 7.73294 5.91012 7.73294C5.95118 7.73294 5.99278 7.73976 6.03278 7.7539C6.38425 7.87859 6.72612 8.01429 7.04239 8.20971C7.17253 8.29039 7.30213 8.3716 7.43066 8.45438C7.44666 8.29825 7.468 8.14317 7.4904 7.98809C7.4776 7.97185 7.45946 7.96085 7.44933 7.94199C7.43493 7.91474 7.41893 7.8896 7.40133 7.86497C7.20559 7.63392 6.98266 7.42069 6.77146 7.20326C6.55172 6.97798 6.31972 6.76789 6.06905 6.57351C5.89518 6.44463 5.71865 6.31994 5.54158 6.19577C5.35065 6.06112 5.16451 5.91914 4.97198 5.78554C4.75971 5.63622 4.54584 5.489 4.32717 5.34911C4.2285 5.28572 4.1245 5.2328 4.02477 5.17151C3.9853 5.14741 3.9469 5.12121 3.90797 5.09606C3.8573 5.1867 3.81197 5.28048 3.77037 5.37374C3.59223 5.80754 3.45463 6.25654 3.32183 6.70554C2.94369 7.99281 2.78476 9.36181 2.79916 10.6994C2.80022 10.79 2.80182 10.8806 2.80396 10.9708C2.81996 11.5455 2.85356 12.125 2.92236 12.6971C2.94423 12.8312 2.97303 12.9648 2.99809 13.0984C3.03116 13.265 3.06156 13.4316 3.09676 13.5966C3.12876 13.7528 3.16556 13.9094 3.21089 14.0624C3.24343 14.1688 3.28343 14.2725 3.32663 14.3752C3.3821 14.5009 3.4397 14.6246 3.5149 14.7398C3.52183 14.7419 3.52876 14.744 3.53516 14.7466C3.7965 14.623 4.06103 14.5051 4.32504 14.3846C4.46211 14.3212 4.59757 14.2526 4.73357 14.1866C4.86691 14.1211 5.00078 14.0577 5.13091 13.9843C5.39491 13.8361 5.64345 13.6705 5.88665 13.4908C6.11545 13.3237 6.34479 13.1576 6.57199 12.9873C6.89519 12.7348 7.17146 12.4424 7.44293 12.1401ZM11.3528 11.8934C11.4899 11.8735 11.6227 11.8488 11.7523 11.8017C11.772 11.7928 11.7918 11.7834 11.811 11.7745C11.8142 11.7729 11.8179 11.7724 11.8211 11.7708C11.8771 11.1908 11.8867 10.6051 11.883 10.0246C11.8808 9.70183 11.8915 9.38014 11.8696 9.05846C11.8472 8.73572 11.811 8.41404 11.779 8.0913C11.748 8.07506 11.7155 8.06092 11.6883 8.03734C11.6675 8.02529 11.6451 8.01481 11.6227 8.00433C11.4184 7.92994 11.2035 7.89222 10.9896 7.86183C10.6904 7.83196 10.3896 7.8283 10.0894 7.82935C9.79175 7.82935 9.49628 7.8414 9.19974 7.87073C8.95014 7.90846 8.70641 7.96294 8.47014 8.05306C8.40827 8.08083 8.34747 8.11121 8.28667 8.14108C8.2616 8.29511 8.23707 8.44914 8.2152 8.6037C8.1768 8.92014 8.15654 9.23764 8.13413 9.55461C8.11547 9.84067 8.0936 10.1267 8.08933 10.4138C8.08507 10.6884 8.07973 10.9634 8.08613 11.238C8.08933 11.3852 8.08987 11.5329 8.09787 11.6801C8.33894 11.7724 8.59281 11.8504 8.84774 11.8887C9.28988 11.9432 9.73521 11.9652 10.1811 11.9594C10.4014 11.9563 10.6211 11.9452 10.8414 11.9327C11.0136 11.9232 11.1838 11.9122 11.3528 11.8934ZM17.2201 8.73153C17.2126 8.5293 17.1907 8.32812 17.171 8.12588C17.1545 7.93884 17.1427 7.75233 17.1203 7.56686C17.0995 7.4144 17.0787 7.26142 17.0403 7.11158C16.9966 6.94078 16.9459 6.77155 16.9166 6.59761C16.8873 6.42891 16.8638 6.25759 16.8179 6.09203C16.779 5.95319 16.7187 5.81907 16.6606 5.68599C16.6046 5.56078 16.5422 5.43818 16.4819 5.31349C16.4643 5.27734 16.4441 5.24276 16.427 5.20661C16.4243 5.20766 16.4227 5.20923 16.4206 5.20975C16.2211 5.281 16.0227 5.35121 15.8254 5.42875C15.6307 5.51153 15.4393 5.59798 15.2531 5.69804C15.0318 5.8175 14.8185 5.95214 14.6105 6.09151C14.2435 6.33618 13.8851 6.59342 13.5331 6.858C13.3384 7.00941 13.1534 7.17026 12.9742 7.34001C12.82 7.48513 12.6686 7.63445 12.5299 7.79529C12.5624 7.85449 12.5843 7.91789 12.5902 7.99019C12.5944 8.0452 12.5987 8.10073 12.6024 8.15575C12.6078 8.22962 12.612 8.30402 12.6163 8.37789C12.6974 8.32078 12.7774 8.26158 12.8616 8.21023C12.9747 8.1416 13.0851 8.06406 13.2024 8.00381C13.3571 7.92313 13.5123 7.84244 13.6702 7.76595C13.7422 7.73032 13.8152 7.70832 13.8915 7.70832C13.9267 7.70832 13.9624 7.71304 13.9987 7.72299C14.1059 7.75181 14.1982 7.82201 14.2547 7.91579C14.3651 8.10074 14.3107 8.39099 14.1006 8.49001C13.9427 8.5644 13.7843 8.64142 13.6275 8.71791C13.508 8.77502 13.3944 8.84784 13.2792 8.91281C13.1774 8.96992 13.0798 9.03855 12.9827 9.10299C12.8878 9.16691 12.7934 9.2303 12.7 9.29737C12.6968 9.29998 12.6936 9.3026 12.6904 9.30522C12.6862 9.30889 12.6814 9.31099 12.6771 9.31465C12.6792 9.39639 12.6776 9.47864 12.6792 9.56037C13.1251 9.56823 13.5704 9.58604 14.0163 9.57923C14.2531 9.57504 14.451 9.77623 14.451 10.0062C14.451 10.2257 14.2537 10.4484 14.0163 10.4322C13.5726 10.4013 13.1246 10.4243 12.6803 10.4301C12.6776 10.5642 12.6702 10.6978 12.6654 10.8319C12.708 10.8513 12.748 10.8775 12.7886 10.9095C12.9896 11.0457 13.2024 11.1499 13.4243 11.2474C13.6035 11.3197 13.7854 11.3883 13.9678 11.4549C14.0665 11.4905 14.1475 11.5397 14.2019 11.6314C14.2547 11.7205 14.2697 11.8284 14.2414 11.9274C14.2142 12.0244 14.1486 12.1071 14.0617 12.1585C13.9784 12.2067 13.8536 12.2318 13.7603 12.1973C13.4899 12.0961 13.2238 11.984 12.9608 11.8661C12.8462 11.8153 12.7326 11.7608 12.6222 11.7016C12.6163 11.7839 12.6142 11.8661 12.603 11.9479C12.5886 12.0537 12.5699 12.1585 12.5523 12.2638C12.7534 12.4807 12.9768 12.6772 13.2062 12.8611C13.4782 13.079 13.7384 13.3101 14.0131 13.5243C14.3657 13.7763 14.7411 13.9969 15.115 14.2164C15.4894 14.436 15.8729 14.634 16.2702 14.8095C16.3113 14.8263 16.3523 14.843 16.3934 14.8603C16.4249 14.81 16.4558 14.7592 16.4819 14.7058C16.5545 14.5229 16.6078 14.3354 16.6617 14.1457C16.723 13.9262 16.7699 13.7004 16.8094 13.4767C16.8489 13.2509 16.8926 13.0271 16.9385 12.8024C16.9779 12.6091 17.0083 12.4152 17.0361 12.2193C17.083 11.8373 17.1102 11.4549 17.1353 11.0708C17.1614 10.6816 17.1891 10.2933 17.2163 9.90459C17.2419 9.51479 17.235 9.1229 17.2201 8.73153Z" fill="#C1C9E5"/>
</svg>
