<svg width="20" height="20" viewBox="0 0 20 20" fill="none" xmlns="http://www.w3.org/2000/svg">
<g clip-path="url(#clip0_1_454)">
<path d="M9.34678 2.72729C11.4775 2.72729 13.2935 4.2846 13.7032 6.40735C15.7629 6.82969 17.2727 8.70221 17.2727 10.8979C17.2727 13.4269 15.284 15.477 12.8307 15.477C12.1807 15.477 11.5505 15.3329 10.9733 15.0587L10.9585 15.0845C10.156 16.4332 8.7328 17.2727 7.16932 17.2727C4.71606 17.2727 2.72729 15.2226 2.72729 12.6936C2.72729 10.9755 3.6535 9.42808 5.0972 8.64221C4.9701 8.21361 4.90476 7.76467 4.90476 7.30642C4.90476 4.77744 6.89352 2.72729 9.34678 2.72729ZM8.82648 14.6322L8.73181 14.7142C8.41026 14.9788 8.03001 15.1587 7.62177 15.2355L7.49848 15.2554L7.49831 16.5798C8.28884 16.5096 9.02678 16.1868 9.62121 15.6648L9.73097 15.5646L8.82648 14.6322ZM5.58219 14.6936L4.6759 15.6278C5.24036 16.138 5.9382 16.4652 6.6894 16.5633L6.84032 16.5798L6.84015 15.2554C6.41735 15.1982 6.02034 15.0312 5.68192 14.7736L5.58219 14.6936ZM4.68423 13.0328L3.39948 13.0328C3.46009 13.7581 3.71475 14.4413 4.12908 15.0164L4.2203 15.138L5.13191 14.199C4.91929 13.8938 4.77356 13.5445 4.70592 13.1731L4.68423 13.0328ZM10.9392 13.0328L9.65443 13.0327L9.63467 13.1623C9.58124 13.4628 9.4767 13.7491 9.32676 14.0097L9.25973 14.1198L10.1751 15.0635C10.5811 14.5172 10.8406 13.8705 10.924 13.1811L10.9392 13.0328ZM11.5902 13.1435L11.571 13.313C11.5194 13.7067 11.4186 14.0893 11.2716 14.4531C11.6098 14.6111 11.9696 14.7169 12.3416 14.7663L12.5017 14.7841L12.5016 13.4597C12.2254 13.4223 11.9596 13.338 11.7123 13.2107L11.5902 13.1435ZM14.4879 12.8365C14.1474 13.1461 13.7322 13.3553 13.2832 13.4397L13.1599 13.4597L13.1597 14.7841C13.9503 14.7139 14.6882 14.3911 15.2826 13.8691L15.3924 13.7689L14.4879 12.8365ZM7.16932 10.7881C6.14847 10.7881 5.32089 11.6413 5.32089 12.6936C5.32089 13.746 6.14847 14.5991 7.16932 14.5991C8.19018 14.5991 9.01774 13.746 9.01774 12.6936C9.01774 11.6413 8.19018 10.7881 7.16932 10.7881ZM16.6006 11.237L15.3158 11.2369L15.2961 11.3666C15.2427 11.6671 15.1381 11.9534 14.9882 12.214L14.9211 12.3241L15.8365 13.2678C16.2425 12.7215 16.502 12.0748 16.5854 11.3854L16.6006 11.237ZM11.5166 12.9417L11.5189 12.9138L11.5196 12.8928L11.5166 12.9417ZM13.4363 9.097L13.3753 9.2382C12.9969 10.0754 12.3786 10.7782 11.6063 11.2497L11.4684 11.3304L11.4192 11.3572C11.5109 11.6676 11.5705 11.9884 11.5964 12.3155C11.9323 12.6275 12.3679 12.8034 12.8307 12.8034C13.8516 12.8034 14.6792 11.9503 14.6792 10.8979C14.6792 10.1093 14.2102 9.41494 13.5202 9.12929L13.4363 9.097ZM11.5221 12.563L11.5234 12.6402L11.5232 12.5923L11.5221 12.563ZM11.5991 12.3515L11.5123 12.3577L11.5534 12.3952L11.6019 12.3919L11.5991 12.3515ZM11.5123 12.3577C11.5131 12.3692 11.5138 12.3802 11.5145 12.3911L11.5123 12.3577ZM10.0755 10.1954L9.16662 11.1323C9.40228 11.4521 9.56275 11.8239 9.63398 12.2211L9.65441 12.3544L10.9392 12.3545C10.8764 11.6036 10.6057 10.8981 10.1657 10.3112L10.0755 10.1954ZM4.22027 10.2493L4.12907 10.3708C3.74434 10.9049 3.49728 11.5321 3.41542 12.1997L3.39948 12.3545L4.68421 12.3546C4.73211 11.978 4.85948 11.6209 5.05512 11.3051L5.13166 11.1886L4.22027 10.2493ZM11.2689 11.1769L11.2856 11.2267H11.286L11.2834 11.2181L11.2689 11.1769ZM11.2586 11.1473L11.2685 11.176L11.2641 11.1616L11.2586 11.1473ZM11.0039 9.24503C10.8401 9.39395 10.6582 9.52035 10.4627 9.62071C10.7515 9.94944 10.9929 10.3197 11.1788 10.7201C11.3892 10.6 11.5881 10.4593 11.7727 10.3002L11.9084 10.1774L11.0039 9.24503ZM6.84035 8.80742L6.68941 8.82398C5.98829 8.91551 5.33364 9.20659 4.79054 9.65985L4.6759 9.75945L5.58245 10.6939C5.90831 10.4182 6.29668 10.2313 6.71428 10.1523L6.84041 10.1318L6.84035 8.80742ZM7.4983 8.80742L7.49819 10.1318C7.89635 10.1856 8.27181 10.3368 8.59723 10.5698L8.70381 10.6504L9.6118 9.71424C9.05506 9.22864 8.37501 8.91784 7.64495 8.82341L7.4983 8.80742ZM15.7369 8.39964L14.828 9.33654C15.0637 9.65638 15.2242 10.0282 15.2954 10.4254L15.3158 10.5587L16.6006 10.5587C16.5378 9.80784 16.2671 9.10237 15.8272 8.51543L15.7369 8.39964ZM13.1166 7.64555L11.8319 7.64544L11.8121 7.77507C11.7587 8.0756 11.6542 8.36189 11.5042 8.62252L11.4372 8.73262L12.3526 9.67629C12.7586 9.13001 13.0181 8.48328 13.1015 7.79391L13.1166 7.64555ZM9.97407 9.14257L9.919 9.21213L9.91963 9.21265L9.92687 9.20972L9.97798 9.14587L9.97407 9.14257ZM9.34678 5.40095C8.32593 5.40095 7.49836 6.25405 7.49836 7.30642C7.49836 7.56482 7.54826 7.8157 7.64344 8.04776L7.68699 8.14603L7.78022 8.15747C8.57457 8.27012 9.31669 8.6017 9.93708 9.11182C10.6814 8.85447 11.1952 8.13196 11.1952 7.30642C11.1952 6.25405 10.3676 5.40095 9.34678 5.40095ZM13.4255 8.88135L13.4178 8.90206L13.4192 8.89988L13.4255 8.88135ZM13.7853 7.12231C13.7876 7.18352 13.7888 7.2449 13.7888 7.30642C13.7888 7.60972 13.7602 7.9092 13.7036 8.20291L13.6664 8.37842L13.6472 8.45413L13.7754 8.5038C13.9444 8.57477 14.1051 8.66457 14.2549 8.7714L14.3652 8.85467L15.2732 7.91849C14.8418 7.54226 14.3342 7.26937 13.7853 7.12231ZM5.2119 8.68224L5.20227 8.68726C5.20643 8.68509 5.20917 8.68366 5.2119 8.68224ZM5.1765 8.59969L5.16307 8.60708L5.2013 8.68476L5.1765 8.59969ZM5.35241 8.61247C5.35086 8.6132 5.3493 8.61394 5.34775 8.61468L5.35241 8.61247ZM5.5194 8.53768L5.48557 8.55215L5.53072 8.53313L5.5194 8.53768ZM5.5658 8.51815L5.53927 8.52961L5.56622 8.51859L5.5658 8.51815ZM6.86169 7.64561L5.57694 7.64557C5.59751 7.89186 5.64046 8.13382 5.70494 8.36911C6.10887 8.22385 6.53274 8.13927 6.96676 8.11918C6.92984 8.0042 6.90079 7.8863 6.87988 7.76629L6.86169 7.64561ZM7.52301 8.21887L7.5226 8.2193L7.52814 8.21975L7.52773 8.2193L7.52301 8.21887ZM7.45648 8.21398L7.48932 8.21622H7.4905L7.45648 8.21398ZM7.30064 8.2063L7.36483 8.20873C7.34351 8.20778 7.32209 8.20695 7.30064 8.2063ZM12.253 4.80818L11.3441 5.74506C11.5797 6.0649 11.7402 6.43671 11.8115 6.83392L11.8319 6.96723L13.1166 6.96727C13.0539 6.21637 12.7831 5.51089 12.3432 4.92396L12.253 4.80818ZM6.39775 4.86207C5.9608 5.42146 5.68104 6.09355 5.59288 6.81253L5.57694 6.96728L6.86168 6.96739C6.90958 6.59082 7.03696 6.23374 7.23259 5.91788L7.30912 5.80141L6.39775 4.86207ZM13.6288 6.48405L13.6287 6.48487L13.6325 6.50691L13.6288 6.48405ZM13.7145 6.46795L13.63 6.48399L13.6916 6.49633L13.7187 6.49158L13.7145 6.46795ZM9.01781 3.42022L8.86687 3.43677C8.16575 3.5283 7.51112 3.8194 6.96802 4.27266L6.85336 4.37225L7.75992 5.30672C8.08578 5.03101 8.47414 4.84405 8.89174 4.76506L9.01787 4.74461L9.01781 3.42022ZM9.67576 3.42022L9.67565 4.74461C10.0738 4.79844 10.4493 4.94958 10.7747 5.18254L10.8813 5.26321L11.7893 4.32703C11.2325 3.84143 10.5525 3.53064 9.82241 3.4362L9.67576 3.42022Z" fill="#C1C9E5"/>
</g>
<defs>
<clipPath id="clip0_1_454">
<rect width="16" height="16" fill="white" transform="translate(2 2)"/>
</clipPath>
</defs>
</svg>
