<svg width="20" height="20" viewBox="0 0 20 20" fill="none" xmlns="http://www.w3.org/2000/svg">
<path d="M9.5646 6.69331L3.76996 7.609C3.74044 7.61368 3.71315 7.62757 3.692 7.64869L2.76922 8.57147C2.75594 8.58464 2.74539 8.60032 2.7382 8.61759C2.731 8.63487 2.72729 8.65339 2.72729 8.67211C2.72729 8.69082 2.731 8.70935 2.7382 8.72662C2.74539 8.74389 2.75594 8.75957 2.76922 8.77275L5.12932 11.1328L4.46169 11.8019C4.4484 11.8151 4.43786 11.8307 4.43066 11.848C4.42347 11.8653 4.41976 11.8838 4.41976 11.9025C4.41976 11.9212 4.42347 11.9398 4.43066 11.957C4.43786 11.9743 4.4484 11.99 4.46169 12.0032L6.08612 13.6276L5.44258 14.2726C5.42316 14.2924 5.40997 14.3174 5.40467 14.3447C5.39936 14.3719 5.40216 14.4001 5.41273 14.4258C5.42329 14.4514 5.44115 14.4734 5.4641 14.489C5.48704 14.5046 5.51406 14.5131 5.5418 14.5135C5.56046 14.5136 5.57895 14.5101 5.59622 14.503C5.61349 14.4959 5.6292 14.4856 5.64245 14.4724L6.28598 13.8289L8.00538 15.5398C8.01855 15.5531 8.03423 15.5636 8.0515 15.5708C8.06878 15.578 8.0873 15.5817 8.10602 15.5817C8.12473 15.5817 8.14326 15.578 8.16053 15.5708C8.1778 15.5636 8.19348 15.5531 8.20666 15.5398L8.87571 14.8707L11.2358 17.2308C11.249 17.2441 11.2647 17.2547 11.2819 17.2618C11.2992 17.269 11.3177 17.2728 11.3364 17.2728C11.3552 17.2728 11.3737 17.269 11.391 17.2618C11.4082 17.2547 11.4239 17.2441 11.4371 17.2308L12.2876 16.3803L12.3641 16.3038C12.3852 16.2826 12.3991 16.2554 12.4038 16.2258L13.3082 10.4369L16.1842 7.55939C16.5892 7.15406 16.8788 6.64815 17.0234 6.09372C17.024 6.0876 17.024 6.08142 17.0234 6.07529C17.0655 5.91581 17.0948 5.75323 17.1112 5.5891L17.2686 3.9916C17.2853 3.82216 17.2643 3.6511 17.207 3.49077C17.1496 3.33043 17.0575 3.18481 16.937 3.06441C16.8166 2.94401 16.671 2.85182 16.5107 2.79449C16.3504 2.73716 16.1793 2.71612 16.0099 2.73289L14.4166 2.88597C14.2535 2.90246 14.0919 2.93137 13.9333 2.97244H13.912C13.357 3.1186 12.851 3.41024 12.4463 3.81726L9.5646 6.69331ZM6.17683 10.0867L3.95565 7.86698L9.22866 7.03492L6.17683 10.0867ZM3.06973 8.66927L3.71468 8.02716L5.98264 10.2866L5.3306 10.933L3.06973 8.66927ZM11.3294 16.9289L9.06139 14.668L9.70635 14.0231L11.9743 16.291L11.3294 16.9289ZM12.1345 16.0416L9.91472 13.8246L12.9665 10.7728L12.1345 16.0416ZM14.445 3.16522L16.041 3.00788C16.1688 2.99558 16.2977 3.0117 16.4185 3.05508C16.5394 3.09845 16.6491 3.16802 16.7398 3.25879C16.8306 3.34955 16.9002 3.45928 16.9436 3.58009C16.9869 3.7009 17.003 3.82981 16.9908 3.95759L16.8334 5.55366C16.8334 5.61745 16.8164 5.68124 16.8065 5.74502L14.255 3.19357C14.3174 3.18506 14.384 3.17372 14.445 3.16805V3.16522ZM13.9262 3.26444L16.7342 6.07246C16.5961 6.55423 16.3381 6.99314 15.9843 7.34819L8.09893 15.2393L6.48726 13.6276L10.5653 9.54952C10.5917 9.52297 10.6066 9.48704 10.6066 9.44959C10.6066 9.41214 10.5917 9.37622 10.5653 9.34966C10.5522 9.33637 10.5365 9.32583 10.5192 9.31863C10.5019 9.31144 10.4834 9.30773 10.4647 9.30773C10.446 9.30773 10.4275 9.31144 10.4102 9.31863C10.3929 9.32583 10.3772 9.33637 10.3641 9.34966L6.28598 13.4277L4.76219 11.9025L6.27606 10.3873L12.6462 4.01712C13.0027 3.66316 13.4431 3.4052 13.9262 3.26728V3.26444Z" fill="#C1C9E5" stroke="#C1C9E5" stroke-width="0.5"/>
<path d="M4.47819 15.8172C4.54784 15.8174 4.61664 15.8019 4.67947 15.7719L7.44639 14.482C7.67877 14.3752 7.8819 14.2138 8.03844 14.0116C8.19498 13.8093 8.3003 13.5722 8.34542 13.3205C8.39054 13.0688 8.37412 12.8099 8.29756 12.5658C8.22099 12.3218 8.08656 12.0999 7.90573 11.9191C7.72489 11.7383 7.503 11.6038 7.25898 11.5273C7.01497 11.4507 6.75605 11.4343 6.50432 11.4794C6.25258 11.5245 6.01549 11.6298 5.81325 11.7864C5.61102 11.9429 5.44963 12.1461 5.34285 12.3784L4.05295 15.1454C4.01941 15.2171 4.00447 15.2961 4.0095 15.3752C4.01452 15.4542 4.03936 15.5307 4.08172 15.5977C4.12407 15.6646 4.18259 15.7198 4.25188 15.7581C4.32116 15.7965 4.39899 15.8168 4.47819 15.8172ZM4.30951 15.2658L5.59516 12.4975C5.68282 12.3067 5.81561 12.1402 5.98207 12.0123C6.14853 11.8843 6.34364 11.7989 6.55054 11.7633C6.62784 11.7503 6.70605 11.7437 6.78442 11.7434C6.97409 11.7449 7.16115 11.7877 7.33259 11.8688C7.50404 11.9499 7.65575 12.0674 7.77717 12.2131C7.8986 12.3588 7.98681 12.5292 8.03568 12.7125C8.08455 12.8958 8.0929 13.0875 8.06015 13.2743C8.02468 13.481 7.93943 13.6761 7.81176 13.8425C7.68408 14.009 7.51782 14.1418 7.32732 14.2297L4.55899 15.5153C4.52407 15.532 4.48485 15.5374 4.44671 15.5309C4.40858 15.5243 4.37341 15.5061 4.34605 15.4788C4.31869 15.4514 4.30048 15.4163 4.29394 15.3781C4.2874 15.34 4.29284 15.3008 4.30951 15.2658Z" fill="#C1C9E5" stroke="#C1C9E5" stroke-width="0.5"/>
<path d="M13.559 7.92276C13.902 7.92284 14.2345 7.80396 14.4998 7.58635C14.765 7.36875 14.9466 7.06591 15.0135 6.72943C15.0805 6.39295 15.0287 6.04367 14.8669 5.74111C14.7052 5.43855 14.4435 5.20144 14.1266 5.07019C13.8096 4.93894 13.4569 4.92167 13.1286 5.02133C12.8004 5.12099 12.5168 5.33141 12.3263 5.61672C12.1358 5.90204 12.0501 6.24459 12.0839 6.586C12.1176 6.9274 12.2687 7.24654 12.5114 7.48901C12.6489 7.62674 12.8122 7.73596 12.9919 7.81039C13.1717 7.88483 13.3644 7.92301 13.559 7.92276ZM12.7085 5.59384C12.8765 5.42685 13.0902 5.31335 13.3226 5.26767C13.555 5.22198 13.7957 5.24614 14.0145 5.33712C14.2332 5.42809 14.42 5.5818 14.5515 5.77884C14.6829 5.97589 14.7531 6.20746 14.7531 6.44433C14.7531 6.6812 14.6829 6.91276 14.5515 7.10981C14.42 7.30686 14.2332 7.46057 14.0145 7.55154C13.7957 7.64252 13.555 7.66668 13.3226 7.62099C13.0902 7.5753 12.8765 7.4618 12.7085 7.29481C12.5956 7.18367 12.506 7.05112 12.445 6.90493C12.384 6.75874 12.3528 6.60184 12.3532 6.44344C12.3536 6.28503 12.3856 6.12829 12.4474 5.98241C12.5091 5.83652 12.5993 5.70442 12.7127 5.59384H12.7085Z" fill="#C1C9E5" stroke="#C1C9E5" stroke-width="0.5"/>
</svg>
