<svg width="20" height="20" viewBox="0 0 20 20" fill="none" xmlns="http://www.w3.org/2000/svg">
<g clip-path="url(#clip0_1_470)">
<path d="M14.9557 8.19295C14.5973 8.38305 14.3069 8.81961 14.3069 9.16827C14.3069 9.51673 14.5973 9.64533 14.9557 9.45548C15.3138 9.26542 15.6045 8.82861 15.6045 8.48014C15.6045 8.13148 15.3138 8.00286 14.9557 8.19295Z" fill="#C1C9E5"/>
<path d="M14.9557 10.2483C14.5973 10.4384 14.3069 10.875 14.3069 11.2236C14.3069 11.5723 14.5973 11.7009 14.9557 11.5108C15.3138 11.3208 15.6045 10.884 15.6045 10.5355C15.6045 10.1871 15.3138 10.0583 14.9557 10.2483Z" fill="#C1C9E5"/>
<path d="M11.8023 11.2581C12.1604 11.068 12.4511 10.6314 12.4511 10.2827C12.4511 9.93402 12.1604 9.80543 11.8023 9.99549C11.4437 10.1856 11.1534 10.6221 11.1534 10.9708C11.1534 11.3195 11.4437 11.4481 11.8023 11.2581Z" fill="#C1C9E5"/>
<path d="M14.9557 12.3037C14.5973 12.4936 14.3069 12.9304 14.3069 13.2788C14.3069 13.6275 14.5973 13.7561 14.9557 13.566C15.3138 13.376 15.6045 12.9394 15.6045 12.5907C15.6045 12.2423 15.3138 12.1137 14.9557 12.3037Z" fill="#C1C9E5"/>
<path d="M11.8023 14.1062C11.4437 14.2965 11.1534 14.7331 11.1534 15.0815C11.1534 15.4302 11.4437 15.5588 11.8023 15.3687C12.1604 15.1789 12.4511 14.7421 12.4511 14.3934C12.4511 14.0449 12.1604 13.9163 11.8023 14.1062Z" fill="#C1C9E5"/>
<path d="M11.8418 12.0509C11.4835 12.241 11.1932 12.6776 11.1932 13.0263C11.1932 13.375 11.4835 13.5035 11.8418 13.3135C12.2002 13.1234 12.4909 12.6868 12.4909 12.3381C12.4909 11.9895 12.2002 11.8608 11.8418 12.0509Z" fill="#C1C9E5"/>
<path d="M16.143 5.30006L10.97 2.28091C10.6492 2.09356 10.288 2 9.9273 2C9.56677 2 9.20542 2.09356 8.88475 2.28091L3.71161 5.30006C3.10099 5.6565 2.72729 6.29847 2.72729 6.99122V13.0088C2.72729 13.7015 3.10095 14.3435 3.71161 14.6999L8.88478 17.7191C9.20542 17.9062 9.56677 18 9.9273 18C10.288 18 10.6492 17.9062 10.97 17.7191L16.143 14.6999C16.7534 14.3435 17.1273 13.7015 17.1273 13.0088V6.99122C17.1273 6.29847 16.7534 5.6565 16.143 5.30006ZM9.75351 17.3979C9.56029 17.3746 9.37057 17.3129 9.19742 17.212L4.02424 14.1928C3.59666 13.9432 3.33512 13.4938 3.33512 13.0088V6.99122C3.33512 6.80303 3.37501 6.62053 3.44792 6.45266L9.75354 10.1327L9.75351 17.3979ZM3.62123 6.15981C3.7295 6.02031 3.86532 5.89988 4.02424 5.80713L9.19742 2.78797C9.42211 2.65684 9.67459 2.59141 9.9273 2.59141C10.18 2.59141 10.4323 2.65688 10.6572 2.78797L15.8303 5.80713C15.9892 5.89988 16.1251 6.02028 16.2333 6.15981L9.9273 9.84003L3.62123 6.15981ZM16.5193 13.0088C16.5193 13.4938 16.2579 13.9432 15.8303 14.1928L10.6572 17.212C10.4841 17.3129 10.2945 17.3746 10.1011 17.3979V10.1327L16.4067 6.45269C16.4796 6.62053 16.5193 6.80306 16.5193 6.99125V13.0088H16.5193Z" fill="#C1C9E5"/>
<path d="M10.5537 3.39587C10.238 3.16868 9.71771 3.16278 9.3919 3.38328C9.0661 3.60356 9.05791 3.96693 9.3736 4.19415C9.68948 4.42156 10.2094 4.42743 10.5352 4.20696C10.8607 3.98643 10.8694 3.62346 10.5537 3.39587Z" fill="#C1C9E5"/>
<path d="M13.9851 5.61773C13.6695 5.39011 13.1494 5.38442 12.8236 5.6047C12.498 5.82498 12.4896 6.18836 12.8053 6.41557C13.1212 6.64298 13.641 6.64867 13.9668 6.42857C14.2926 6.20786 14.301 5.84514 13.9851 5.61773Z" fill="#C1C9E5"/>
<path d="M7.0252 5.54937C6.70951 5.32193 6.18946 5.31628 5.86366 5.53656C5.53763 5.75706 5.52944 6.12 5.84513 6.34743C6.16078 6.57506 6.6809 6.58053 7.00689 6.36025C7.33244 6.13975 7.34085 5.77681 7.0252 5.54937Z" fill="#C1C9E5"/>
<path d="M10.4541 7.77099C10.1381 7.54355 9.61809 7.5379 9.29251 7.75818C8.96671 7.97868 8.95829 8.34162 9.27414 8.56902C9.59005 8.79665 10.1097 8.80233 10.4357 8.58183C10.7613 8.36155 10.7697 7.99862 10.4541 7.77099Z" fill="#C1C9E5"/>
<path d="M10.4886 5.59744C10.1835 5.37778 9.68137 5.37212 9.36633 5.58506C9.05151 5.798 9.04377 6.14878 9.34863 6.36844C9.65375 6.58806 10.1561 6.59375 10.4711 6.38081C10.7858 6.16787 10.7938 5.81709 10.4886 5.59744Z" fill="#C1C9E5"/>
<path d="M4.57473 9.75949C4.9331 9.94958 5.22377 9.82077 5.22377 9.4723C5.22377 9.12361 4.9331 8.68702 4.57473 8.49695C4.21662 8.30689 3.92615 8.43549 3.92615 8.78417C3.92615 9.13261 4.21662 9.56939 4.57473 9.75949Z" fill="#C1C9E5"/>
<path d="M8.19412 15.2054C8.55246 15.3954 8.8427 15.2668 8.8427 14.9182C8.8427 14.5697 8.55246 14.1329 8.19412 13.9428C7.83575 13.7529 7.54553 13.8816 7.54553 14.23C7.54553 14.5787 7.83575 15.0153 8.19412 15.2054Z" fill="#C1C9E5"/>
<path d="M6.38723 12.4837C6.74557 12.6738 7.03601 12.5452 7.03601 12.1965C7.03601 11.848 6.74557 11.4113 6.38723 11.2214C6.02886 11.0313 5.73865 11.1599 5.73865 11.5084C5.73865 11.857 6.02886 12.2936 6.38723 12.4837Z" fill="#C1C9E5"/>
</g>
<defs>
<clipPath id="clip0_1_470">
<rect width="16" height="16" fill="white" transform="translate(2 2)"/>
</clipPath>
</defs>
</svg>
