<svg width="22" height="22" viewBox="0 0 22 22" fill="none" xmlns="http://www.w3.org/2000/svg">
<path d="M10.1018 1C13.0315 1 15.5285 3.14129 16.0919 6.06007C18.924 6.6408 21 9.2155 21 12.2346C21 15.7119 18.2654 18.5309 14.8922 18.5309C13.9985 18.5309 13.1319 18.3327 12.3383 17.9556L12.3179 17.9912C11.2145 19.8456 9.25757 21 7.10779 21C3.73455 21 1 18.1811 1 14.7037C1 12.3413 2.27354 10.2136 4.25861 9.13301C4.08385 8.54368 3.99401 7.92639 3.99401 7.29629C3.99401 3.81895 6.72856 1 10.1018 1ZM9.38637 17.3693L9.25621 17.4819C8.81408 17.8458 8.29124 18.0932 7.7299 18.1987L7.56038 18.2261L7.56015 20.0472C8.64713 19.9507 9.66179 19.5068 10.4791 18.7891L10.6301 18.6513L9.38637 17.3693ZM4.92548 17.4537L3.67934 18.7382C4.45547 19.4398 5.415 19.8896 6.44789 20.0245L6.65541 20.0472L6.65518 18.2261C6.07382 18.1475 5.52794 17.9179 5.06261 17.5636L4.92548 17.4537ZM3.69079 15.1701L1.92425 15.17C2.0076 16.1674 2.35776 17.1067 2.92745 17.8976L3.05288 18.0647L4.30635 16.7736C4.01399 16.3539 3.81361 15.8737 3.72061 15.363L3.69079 15.1701ZM12.2913 15.17L10.5248 15.1699L10.4976 15.3481C10.4242 15.7613 10.2804 16.155 10.0743 16.5133L9.9821 16.6647L11.2407 17.9623C11.799 17.2111 12.1558 16.3219 12.2705 15.374L12.2913 15.17ZM13.1865 15.3223L13.1602 15.5553C13.0891 16.0967 12.9505 16.6227 12.7484 17.123C13.2134 17.3402 13.7082 17.4857 14.2197 17.5537L14.4399 17.5781L14.4396 15.757C14.0599 15.7056 13.6945 15.5898 13.3543 15.4147L13.1865 15.3223ZM17.1708 14.9002C16.7027 15.3258 16.1318 15.6135 15.5143 15.7296L15.3448 15.757L15.3446 17.5781C16.4316 17.4815 17.4462 17.0377 18.2636 16.32L18.4145 16.1822L17.1708 14.9002ZM7.10779 12.0837C5.70411 12.0837 4.56619 13.2567 4.56619 14.7037C4.56619 16.1507 5.70411 17.3237 7.10779 17.3237C8.51147 17.3237 9.64936 16.1507 9.64936 14.7037C9.64936 13.2567 8.51147 12.0837 7.10779 12.0837ZM20.0757 12.7009L18.3092 12.7007L18.2821 12.879C18.2086 13.2922 18.0649 13.6858 17.8587 14.0442L17.7665 14.1956L19.0252 15.4931C19.5834 14.742 19.9402 13.8528 20.0549 12.9049L20.0757 12.7009ZM13.0853 15.0449L13.0885 15.0065L13.0894 14.9776L13.0853 15.0449ZM15.7249 9.75834L15.641 9.95249C15.1207 11.1036 14.2706 12.07 13.2086 12.7183L13.019 12.8293L12.9513 12.8662C13.0774 13.2929 13.1594 13.734 13.195 14.1838C13.6568 14.6127 14.2559 14.8546 14.8922 14.8546C16.2959 14.8546 17.4338 13.6816 17.4338 12.2346C17.4338 11.1502 16.7891 10.1955 15.8402 9.80275L15.7249 9.75834ZM13.0928 14.5241L13.0947 14.6303L13.0943 14.5644L13.0928 14.5241ZM13.1988 14.2333L13.0794 14.2418L13.1359 14.2933L13.2025 14.2889L13.1988 14.2333ZM13.0794 14.2418C13.0805 14.2576 13.0815 14.2727 13.0824 14.2878L13.0794 14.2418ZM11.1038 11.2686L9.85406 12.5568C10.1781 12.9966 10.3987 13.5079 10.4967 14.054L10.5248 14.2373L12.2913 14.2374C12.205 13.2049 11.8328 12.2349 11.2279 11.4278L11.1038 11.2686ZM3.05285 11.3427L2.92744 11.5099C2.39844 12.2442 2.05873 13.1066 1.94617 14.0246L1.92425 14.2374L3.69075 14.2375C3.75662 13.7198 3.93176 13.2288 4.20076 12.7945L4.30601 12.6343L3.05285 11.3427ZM12.7447 12.6182L12.7677 12.6867H12.7682L12.7647 12.6749L12.7447 12.6182ZM12.7306 12.5776L12.7441 12.617L12.7381 12.5971L12.7306 12.5776ZM12.3804 9.96188C12.1551 10.1667 11.9049 10.3405 11.6361 10.4784C12.0332 10.9305 12.3652 11.4395 12.6208 11.9902C12.9102 11.825 13.1836 11.6315 13.4374 11.4127L13.624 11.2439L12.3804 9.96188ZM6.65545 9.36017L6.44791 9.38294C5.48387 9.50879 4.58373 9.90904 3.83697 10.5323L3.67934 10.6692L4.92584 11.9541C5.37389 11.575 5.9079 11.318 6.48211 11.2093L6.65554 11.1812L6.65545 9.36017ZM7.56013 9.36017L7.55999 11.1812C8.10745 11.2552 8.62371 11.4631 9.07116 11.7834L9.2177 11.8943L10.4662 10.607C9.70068 9.93934 8.76561 9.512 7.76178 9.38216L7.56013 9.36017ZM18.8882 8.79948L17.6385 10.0877C17.9625 10.5275 18.1832 11.0387 18.2811 11.5849L18.3092 11.7682L20.0757 11.7682C19.9895 10.7358 19.6172 9.76572 19.0123 8.95869L18.8882 8.79948ZM15.2853 7.7626L13.5188 7.76245L13.4917 7.9407C13.4182 8.35391 13.2744 8.74756 13.0683 9.10593L12.9761 9.25732L14.2348 10.5549C14.793 9.80374 15.1498 8.91448 15.2645 7.96659L15.2853 7.7626ZM10.9643 9.821L10.8886 9.91665L10.8895 9.91737L10.8994 9.91333L10.9697 9.82554L10.9643 9.821ZM10.1018 4.67628C8.69812 4.67628 7.56022 5.84929 7.56022 7.29629C7.56022 7.6516 7.62883 7.99655 7.7597 8.31564L7.81958 8.45077L7.94778 8.46649C9.04001 8.62139 10.0604 9.0773 10.9135 9.77872C11.9369 9.42486 12.6434 8.43142 12.6434 7.29629C12.6434 5.84929 11.5055 4.67628 10.1018 4.67628ZM15.71 9.46182L15.6994 9.4903L15.7014 9.48731L15.71 9.46182ZM16.2047 7.04315C16.208 7.12731 16.2096 7.2117 16.2096 7.29629C16.2096 7.71333 16.1702 8.12513 16.0925 8.52896L16.0412 8.77029L16.0149 8.8744L16.1912 8.94269C16.4235 9.04027 16.6445 9.16375 16.8505 9.31064L17.0021 9.42515L18.2506 8.1379C17.6575 7.62058 16.9595 7.24536 16.2047 7.04315ZM4.41634 9.18805L4.40309 9.19495C4.40881 9.19196 4.41257 9.19001 4.41634 9.18805ZM4.36765 9.07454L4.3492 9.0847L4.40176 9.19151L4.36765 9.07454ZM4.60953 9.09212C4.6074 9.09313 4.60525 9.09414 4.60312 9.09515L4.60953 9.09212ZM4.83915 8.98928L4.79263 9.00918L4.85471 8.98303L4.83915 8.98928ZM4.90295 8.96242L4.86647 8.97818L4.90352 8.96304L4.90295 8.96242ZM6.6848 7.76268L4.91826 7.76262C4.94654 8.10127 5.0056 8.43398 5.09426 8.75749C5.64966 8.55777 6.23249 8.44147 6.82927 8.41385C6.7785 8.25575 6.73855 8.09363 6.7098 7.92862L6.6848 7.76268ZM7.59411 8.55092L7.59354 8.55151L7.60117 8.55212L7.60059 8.55151L7.59411 8.55092ZM7.50263 8.54419L7.54778 8.54727H7.54941L7.50263 8.54419ZM7.28834 8.53363L7.37661 8.53697C7.3473 8.53566 7.31785 8.53453 7.28834 8.53363ZM14.0978 3.86122L12.8481 5.14943C13.1721 5.58921 13.3928 6.10044 13.4907 6.6466L13.5188 6.82991L15.2853 6.82997C15.199 5.79747 14.8268 4.82744 14.2219 4.02041L14.0978 3.86122ZM6.04687 3.93531C5.44606 4.70447 5.0614 5.62859 4.94018 6.6172L4.91826 6.82999L6.68478 6.83013C6.75065 6.31234 6.92579 5.82136 7.19478 5.38706L7.30001 5.22691L6.04687 3.93531ZM15.9896 6.16553L15.9894 6.16666L15.9947 6.19698L15.9896 6.16553ZM16.1074 6.1434L15.9912 6.16546L16.0759 6.18242L16.1131 6.17589L16.1074 6.1434ZM9.64945 1.95278L9.44192 1.97553C8.47787 2.10138 7.57775 2.50164 6.83099 3.12487L6.67334 3.26182L7.91986 4.54672C8.36792 4.16761 8.90191 3.91054 9.47611 3.80192L9.64954 3.77381L9.64945 1.95278ZM10.5541 1.95278L10.554 3.77381C11.1015 3.84782 11.6177 4.05564 12.0652 4.37597L12.2117 4.48688L13.4602 3.19963C12.6947 2.53193 11.7596 2.10459 10.7558 1.97475L10.5541 1.95278Z" fill="#C1C9E5"/>
</svg>
