<svg width="22" height="22" viewBox="0 0 22 22" fill="none" xmlns="http://www.w3.org/2000/svg">
<g clip-path="url(#clip0_1_936)">
<path d="M10.9974 2.75C8.05606 2.75 5.66406 5.21673 5.66406 8.24996C5.66406 11.2832 8.05606 13.7499 10.9974 13.7499C13.9387 13.7499 16.3307 11.2832 16.3307 8.24996C16.3307 5.21673 13.9387 2.75 10.9974 2.75ZM10.9974 12.8333C8.54673 12.8333 6.55294 10.7772 6.55294 8.24996C6.55294 5.72273 8.54673 3.66665 10.9974 3.66665C13.4481 3.66665 15.4419 5.72273 15.4419 8.24996C15.4419 10.7772 13.4481 12.8333 10.9974 12.8333Z" fill="#C1C9E5" stroke="#C1C9E5" stroke-width="0.2"/>
<path d="M16.4018 14.3173C17.9947 12.8076 19 10.6507 19 8.24994C19 3.70147 15.4115 0 11 0C6.58846 0 3 3.70147 3 8.24994C3 10.6498 4.00533 12.8076 5.59733 14.3164L3.02846 21.3811C2.96446 21.558 3.01158 21.756 3.14667 21.8825C3.23113 21.9595 3.33687 21.9999 3.44446 21.9999C3.512 21.9999 3.57958 21.9843 3.64358 21.9522L6.96804 20.2381L9.4205 21.9238C9.5325 22.0008 9.67471 22.02 9.80362 21.9788C9.9325 21.9357 10.0356 21.8349 10.0827 21.7038L11.0534 19.0336L11.9112 21.6864C11.9557 21.822 12.0588 21.9284 12.1894 21.9751C12.3201 22.021 12.4641 22.0026 12.5796 21.9229L15.0321 20.2372L18.3565 21.9513C18.4205 21.9843 18.4881 21.9999 18.5557 21.9999C18.6632 21.9999 18.769 21.9595 18.8525 21.8816C18.9885 21.756 19.0347 21.5571 18.9708 21.3802L16.4018 14.3173ZM10.584 17.7145L9.44712 20.8403L7.24625 19.3278C7.11292 19.2371 6.94138 19.2252 6.80092 19.2994L4.25779 20.6111L6.32358 14.9296C7.44271 15.7647 8.77337 16.3138 10.2214 16.4595L10.6125 17.6686C10.6036 17.6842 10.5903 17.6961 10.584 17.7145ZM11 15.5832C7.07913 15.5832 3.88892 12.2933 3.88892 8.24994C3.88892 4.20657 7.07913 0.916646 11 0.916646C14.9209 0.916646 18.1111 4.20657 18.1111 8.24994C18.1111 12.2933 14.9209 15.5832 11 15.5832ZM15.1982 19.2985C15.056 19.2242 14.8854 19.2352 14.7529 19.3269L12.5707 20.8275L11.1689 16.4907C12.8498 16.4541 14.4018 15.8811 15.6756 14.9296L17.7414 20.6102L15.1982 19.2985Z" fill="#C1C9E5" stroke="#C1C9E5" stroke-width="0.2"/>
</g>
<defs>
<clipPath id="clip0_1_936">
<rect width="22" height="22" fill="white"/>
</clipPath>
</defs>
</svg>
