<svg width="22" height="22" viewBox="0 0 22 22" fill="none" xmlns="http://www.w3.org/2000/svg">
<path d="M11 1.75C11.1138 1.75 11.3148 1.79428 11.708 2.30762C12.0033 2.69319 12.3274 3.23601 12.7432 3.97168L13.1914 4.77344L13.5195 5.36133C13.8059 5.87488 14.0401 6.31919 14.3857 6.64355L14.542 6.77539C14.8719 7.02574 15.2594 7.14865 15.7002 7.25488L16.1582 7.35938L16.7949 7.50391C18.0502 7.78793 18.9043 7.98335 19.4893 8.21387C19.9882 8.41051 20.1434 8.57569 20.2051 8.71289L20.2266 8.77051C20.275 8.92635 20.2767 9.16508 19.9355 9.70703C19.6758 10.1197 19.2814 10.6086 18.7402 11.249L18.1494 11.9424L17.7158 12.4502C17.3344 12.8962 17.0044 13.2653 16.8184 13.7031L16.748 13.8945V13.8955C16.6263 14.2876 16.6338 14.6954 16.6729 15.1621L16.7188 15.6504L16.7842 16.3271C16.9132 17.6591 17.0001 18.5766 16.9707 19.2373C16.945 19.8137 16.8355 20.0257 16.7344 20.126L16.6914 20.1631C16.5928 20.2379 16.4103 20.3203 15.8174 20.1504C15.3652 20.0208 14.8014 19.782 14.0518 19.4424L13.2383 19.0703L12.6426 18.7959C12.0511 18.5236 11.5498 18.2744 11 18.2744C10.5875 18.2744 10.2025 18.4147 9.78613 18.5996L9.35742 18.7959L8.76172 19.0703C7.58659 19.6113 6.78541 19.9777 6.18262 20.1504C5.66385 20.299 5.45959 20.254 5.35059 20.1904L5.30859 20.1631C5.19787 20.079 5.05871 19.8965 5.0293 19.2373C5.00722 18.7418 5.05039 18.1017 5.12793 17.251L5.21582 16.3271L5.28125 15.6504C5.33898 15.0546 5.39787 14.5578 5.30273 14.0928L5.25195 13.8945C5.12917 13.5 4.89098 13.1713 4.5957 12.8164L4.28418 12.4502L3.85059 11.9424H3.84961C2.99522 10.9433 2.41077 10.2572 2.06445 9.70703C1.76581 9.23261 1.72969 8.99044 1.75781 8.83301L1.77344 8.77051C1.81936 8.62284 1.94009 8.43878 2.51074 8.21387C2.94946 8.04097 3.53967 7.88775 4.33691 7.70215L5.20508 7.50391L5.8418 7.35938C6.39687 7.23379 6.88186 7.1368 7.28906 6.89062L7.45801 6.77539C7.78456 6.5275 8.01257 6.18613 8.24414 5.7832L8.48047 5.36133L8.80859 4.77344C9.45406 3.61552 9.89829 2.82173 10.292 2.30762C10.6852 1.79427 10.8862 1.75 11 1.75Z" stroke="#C1C9E5" stroke-width="1.5"/>
</svg>
