<svg width="22" height="22" viewBox="0 0 22 22" fill="none" xmlns="http://www.w3.org/2000/svg">
<path d="M0.144767 9.33941C0.146967 9.32212 0.149901 9.30484 0.152101 9.28683C0.154301 9.27314 0.155768 9.25945 0.157968 9.24576C0.153568 9.27746 0.149167 9.30844 0.144767 9.33941ZM0.201968 8.92519C0.202701 8.91943 0.204168 8.91367 0.204901 8.9079C0.205635 8.90286 0.206368 8.89782 0.207101 8.89277C0.205635 8.90358 0.203435 8.91439 0.201968 8.92519ZM21.6697 14.4988C21.6675 14.5168 21.6631 14.5341 21.6609 14.5514C21.6573 14.5802 21.6536 14.6091 21.6499 14.6379C21.6573 14.5918 21.6631 14.5449 21.6697 14.4988ZM21.999 9.57786C22.0049 10.1254 21.9843 10.6693 21.9433 11.2153C21.9007 11.7686 21.8589 12.3233 21.8362 12.878C21.812 13.4391 21.7379 13.996 21.6609 14.5514C21.6118 14.9008 21.5473 15.2466 21.4879 15.5938C21.4307 15.9295 21.3889 16.2667 21.3331 16.6024C21.306 16.7666 21.2642 16.9265 21.2261 17.0886C21.1887 17.2392 21.1571 17.3905 21.1117 17.5382C21.0677 17.6858 21.0046 17.8292 20.9459 17.9704C20.8059 18.3061 20.6115 18.5993 20.3167 18.8284C20.2427 18.9011 20.1554 18.9508 20.0535 18.9789C19.9479 19.007 19.8415 19.007 19.7359 18.9789C19.6179 18.948 19.5196 18.8723 19.4294 18.7758C18.7775 18.5006 18.1673 18.1591 17.5623 17.7968C17.2066 17.5835 16.8488 17.3732 16.499 17.1506C16.3259 17.0404 16.1602 16.9186 15.9871 16.8084C15.8287 16.7075 15.6916 16.5836 15.5427 16.4698C15.374 16.3409 15.2164 16.1982 15.0543 16.0614C14.8658 15.9014 14.6686 15.7494 14.4794 15.5895C14.288 15.4267 14.1031 15.2567 13.9249 15.0795C13.7797 14.9354 13.6375 14.7805 13.4769 14.6516C13.4681 14.653 13.46 14.6566 13.4512 14.658C13.207 14.6933 12.9621 14.7366 12.7149 14.7495C12.2001 14.7747 11.6839 14.7906 11.1683 14.7848C10.8809 14.7805 10.5934 14.7747 10.3059 14.7683C10.0331 14.7596 9.76105 14.7272 9.49118 14.6969C9.30784 14.676 9.12964 14.6537 8.95364 14.6026C8.84951 14.573 8.74317 14.5493 8.6361 14.5269C8.5349 14.5046 8.43224 14.4815 8.33103 14.4563C8.30684 14.5089 8.2775 14.5608 8.23643 14.6062C8.17337 14.676 8.1103 14.7481 8.04943 14.818C7.86463 15.0247 7.68203 15.2307 7.48183 15.4217C7.28456 15.6111 7.07116 15.7797 6.85409 15.9468C6.39062 16.2991 5.92495 16.6506 5.44608 16.9835C5.00974 17.2853 4.5228 17.5187 4.05053 17.7615C3.53573 18.0266 3.01799 18.2895 2.50245 18.551C2.43205 18.587 2.35725 18.6072 2.28172 18.6159C2.17832 18.6533 2.06685 18.6699 1.95685 18.6339C1.80798 18.5849 1.64665 18.5366 1.51391 18.4523C1.36504 18.3594 1.26238 18.2485 1.16484 18.1037C1.02477 17.8919 0.931641 17.6484 0.83484 17.4157C0.730706 17.1672 0.639038 16.9114 0.573038 16.6499C0.507037 16.3848 0.45277 16.1175 0.398503 15.8496C0.347169 15.5866 0.284102 15.3287 0.235702 15.0658C0.184368 14.7805 0.155768 14.4916 0.128634 14.2035C0.0787669 13.6812 0.0575001 13.1575 0.0310999 12.633C0.00396631 12.0935 -0.0077671 11.5517 0.00543301 11.0122C0.0193665 10.433 0.0758336 9.86098 0.152834 9.28755C0.170434 9.16076 0.188034 9.03469 0.204901 8.9079C0.276035 8.36473 0.349369 7.823 0.44837 7.28415C0.534171 6.82094 0.658838 6.36133 0.80184 5.91037C0.943374 5.46085 1.07758 5.00988 1.25651 4.57333C1.35258 4.33848 1.43398 4.09859 1.55425 3.87383C1.60925 3.77082 1.66205 3.66636 1.71338 3.56118C1.76618 3.45312 1.83218 3.37172 1.90772 3.27591C1.97885 3.1873 2.10645 3.1448 2.22598 3.12607C2.28612 3.07852 2.35505 3.04106 2.43059 3.02089C2.48045 3.0072 2.53545 3 2.59192 3C2.69165 3 2.79432 3.02377 2.87059 3.07708C2.97692 3.14984 3.08106 3.2262 3.18886 3.29752C3.43893 3.46609 3.69486 3.62602 3.942 3.79747C4.17373 3.95884 4.40107 4.12597 4.62987 4.29166C4.85281 4.45158 5.07281 4.61583 5.29648 4.77648C5.51941 4.9364 5.74968 5.08696 5.97115 5.24833C6.22122 5.43059 6.47862 5.61501 6.70449 5.82536C6.92449 6.02923 7.13496 6.23959 7.34103 6.45714C7.53243 6.65813 7.7231 6.86128 7.9189 7.05795C8.01643 7.15592 8.11323 7.25461 8.2269 7.35907C8.53564 7.22436 8.85024 7.10549 9.18611 7.04858C9.46331 7.00104 9.74345 6.9643 10.025 6.93764C10.4607 6.89658 10.8992 6.87209 11.3377 6.87209C11.4199 6.87209 11.5027 6.87281 11.5849 6.87497C12.0894 6.88649 12.5939 6.91963 13.0875 7.02409C13.3001 7.06803 13.5297 7.12494 13.7387 7.21499C13.812 7.13647 13.8809 7.05434 13.9565 6.97726C14.1127 6.81734 14.2667 6.65741 14.428 6.50253C14.7852 6.16539 15.1738 5.87003 15.5662 5.57395C16.1602 5.12514 16.7652 4.68859 17.4054 4.3075C18.0742 3.90841 18.7936 3.6008 19.524 3.33138C19.568 3.31481 19.6171 3.30761 19.667 3.30761C19.7081 3.30761 19.7491 3.31625 19.7895 3.3249C19.8049 3.31409 19.8151 3.29752 19.8313 3.28816C19.92 3.23701 20.0175 3.21323 20.1151 3.21323C20.3131 3.21323 20.5074 3.31265 20.6115 3.48914C20.7252 3.67789 20.8088 3.87815 20.8946 4.07914C21.0317 4.39539 21.1696 4.71236 21.2979 5.03221C21.4153 5.32829 21.4681 5.63878 21.5267 5.94927C21.5854 6.25543 21.6822 6.55151 21.7482 6.85624C21.8237 7.1977 21.867 7.55141 21.8985 7.89864C21.9499 8.45838 21.9931 9.0174 21.999 9.57786ZM7.48403 13.9427C7.48036 13.9326 7.47156 13.9218 7.46863 13.9124C7.46276 13.8923 7.46789 13.8707 7.46423 13.8498C7.38576 13.754 7.34763 13.6481 7.33589 13.5227C7.33296 13.486 7.33003 13.4514 7.32709 13.4146C7.32489 13.3902 7.32636 13.3649 7.32489 13.3397C7.13276 13.455 6.94136 13.5717 6.74409 13.6783C6.30922 13.9117 5.84208 14.0897 5.38448 14.2726C5.24734 14.3259 5.05741 14.2842 4.93567 14.215C4.80587 14.1394 4.70834 14.0155 4.668 13.8721C4.6262 13.7244 4.6482 13.5645 4.72667 13.4312C4.80954 13.2936 4.92687 13.2245 5.07428 13.1683C5.39108 13.0501 5.71081 12.9392 6.02468 12.8182C6.23955 12.7173 6.45295 12.6078 6.65535 12.4853C6.85702 12.3629 7.04402 12.2202 7.24863 12.1035C7.27063 12.0906 7.29703 12.0942 7.31976 12.0848C7.31903 11.9364 7.32049 11.788 7.32196 11.6389C7.26843 11.6526 7.21636 11.6713 7.15916 11.6706C6.58862 11.6605 6.01808 11.7001 5.44754 11.7016C5.09188 11.7016 4.79561 11.4091 4.79561 11.0597C4.79561 10.7139 5.09188 10.415 5.44754 10.4193C5.80908 10.4236 6.16915 10.4322 6.52922 10.4236C6.74116 10.4178 6.94942 10.4013 7.15989 10.3854C7.17163 10.3847 7.18409 10.384 7.19583 10.384C7.25303 10.384 7.30509 10.4049 7.35789 10.4214C7.36669 10.281 7.37549 10.1398 7.38429 9.99929C7.24129 10.0331 7.08656 10.0202 6.95676 9.93878C6.59375 9.70969 6.22122 9.48998 5.82888 9.31276C5.62575 9.2328 5.41968 9.16436 5.21361 9.09448C4.89314 8.98498 4.6834 8.67738 4.77727 8.34024C4.84841 8.08954 5.10728 7.88279 5.37641 7.88279C5.43288 7.88279 5.49008 7.89216 5.54508 7.91161C6.02835 8.08306 6.49842 8.26964 6.93329 8.53834C7.11223 8.64928 7.29043 8.76094 7.46716 8.87476C7.48916 8.66009 7.5185 8.44685 7.5493 8.23362C7.53169 8.21129 7.50676 8.19616 7.49283 8.17022C7.47303 8.13276 7.45103 8.09819 7.42683 8.06433C7.15769 7.74664 6.85116 7.45344 6.56075 7.15448C6.25862 6.84471 5.93962 6.55584 5.59495 6.28857C5.35588 6.11136 5.11314 5.9399 4.86967 5.76917C4.60714 5.58403 4.3512 5.38881 4.08647 5.20511C3.7946 4.9998 3.50053 4.79737 3.19986 4.60502C3.06419 4.51786 2.92119 4.4451 2.78406 4.36081C2.72979 4.32768 2.67699 4.29166 2.62345 4.25708C2.55379 4.3817 2.49145 4.51065 2.43425 4.63888C2.18932 5.23536 2.00012 5.85274 1.81751 6.47011C1.29758 8.2401 1.07904 10.1225 1.09884 11.9616C1.10031 12.0863 1.10251 12.2109 1.10544 12.3348C1.12744 13.1251 1.17364 13.9218 1.26824 14.7085C1.29831 14.8929 1.33791 15.0766 1.37238 15.2603C1.41784 15.4894 1.45964 15.7185 1.50805 15.9454C1.55205 16.16 1.60265 16.3754 1.66498 16.5858C1.70971 16.732 1.76471 16.8747 1.82411 17.0159C1.90038 17.1888 1.97958 17.3588 2.08298 17.5173C2.09252 17.5201 2.10205 17.523 2.11085 17.5266C2.47019 17.3566 2.83392 17.1945 3.19693 17.0288C3.38539 16.9417 3.57166 16.8473 3.75866 16.7565C3.942 16.6665 4.12607 16.5793 4.305 16.4785C4.668 16.2746 5.00974 16.0469 5.34414 15.7999C5.65875 15.5701 5.97408 15.3417 6.28648 15.1076C6.73089 14.7603 7.11076 14.3584 7.48403 13.9427ZM12.8601 13.6034C13.0486 13.576 13.2312 13.5422 13.4094 13.4773C13.4365 13.4651 13.4637 13.4521 13.4901 13.4399C13.4945 13.4377 13.4996 13.437 13.504 13.4348C13.581 12.6374 13.5942 11.832 13.5891 11.0338C13.5861 10.59 13.6008 10.1477 13.5707 9.70537C13.5399 9.26161 13.4901 8.81929 13.4461 8.37554C13.4035 8.3532 13.3588 8.33375 13.3214 8.30134C13.2928 8.28477 13.262 8.27036 13.2312 8.25595C12.9503 8.15366 12.6548 8.10179 12.3607 8.06001C11.9493 8.01894 11.5357 8.0139 11.1229 8.01534C10.7137 8.01534 10.3074 8.03191 9.89965 8.07225C9.55645 8.12412 9.22131 8.19904 8.89644 8.32295C8.81137 8.36113 8.72777 8.40291 8.64417 8.44397C8.6097 8.65577 8.57597 8.86756 8.5459 9.08008C8.4931 9.51519 8.46524 9.95174 8.43444 10.3876C8.40877 10.7809 8.3787 11.1742 8.37284 11.569C8.36697 11.9465 8.35964 12.3247 8.36843 12.7022C8.37284 12.9046 8.37357 13.1078 8.38457 13.3102C8.71604 13.437 9.06511 13.5443 9.41564 13.5969C10.0236 13.6718 10.6359 13.7021 11.249 13.6942C11.5519 13.6898 11.854 13.6747 12.1569 13.6574C12.3937 13.6445 12.6277 13.6293 12.8601 13.6034ZM20.9276 9.25585C20.9173 8.97778 20.8873 8.70115 20.8601 8.42308C20.8374 8.1659 20.8213 7.90944 20.7905 7.65443C20.7619 7.44479 20.7333 7.23444 20.6805 7.02841C20.6203 6.79356 20.5507 6.56088 20.5103 6.32171C20.47 6.08974 20.4377 5.85418 20.3747 5.62654C20.3211 5.43563 20.2383 5.25121 20.1583 5.06823C20.0813 4.89606 19.9955 4.72749 19.9127 4.55604C19.8885 4.50633 19.8606 4.45879 19.8371 4.40908C19.8335 4.41052 19.8313 4.41268 19.8283 4.4134C19.5541 4.51137 19.2813 4.60791 19.0099 4.71452C18.7423 4.82834 18.479 4.94721 18.223 5.0848C17.9187 5.24905 17.6254 5.43419 17.3394 5.62581C16.8348 5.96224 16.342 6.31595 15.858 6.67974C15.5904 6.88793 15.3359 7.10909 15.0895 7.3425C14.8776 7.54205 14.6693 7.74736 14.4786 7.96852C14.5234 8.04992 14.5534 8.13709 14.5615 8.2365C14.5674 8.31214 14.5732 8.3885 14.5784 8.46414C14.5857 8.56572 14.5916 8.66801 14.5974 8.76959C14.7089 8.69107 14.8189 8.60966 14.9348 8.53906C15.0902 8.44469 15.242 8.33808 15.4034 8.25523C15.616 8.14429 15.8294 8.03335 16.0465 7.92817C16.1455 7.87919 16.246 7.84893 16.3508 7.84893C16.3992 7.84893 16.4484 7.85542 16.4982 7.8691C16.6456 7.90872 16.7725 8.00526 16.8502 8.13421C17.002 8.3885 16.9272 8.7876 16.6383 8.92375C16.4212 9.02605 16.2034 9.13194 15.9878 9.23712C15.8236 9.31564 15.6674 9.41578 15.509 9.5051C15.3689 9.58363 15.2347 9.678 15.1012 9.7666C14.9707 9.85449 14.8409 9.94166 14.7126 10.0339C14.7082 10.0375 14.7038 10.0411 14.6994 10.0447C14.6935 10.0497 14.6869 10.0526 14.681 10.0576C14.684 10.17 14.6818 10.2831 14.684 10.3955C15.297 10.4063 15.9094 10.4308 16.5224 10.4214C16.848 10.4157 17.1201 10.6923 17.1201 11.0086C17.1201 11.3104 16.8488 11.6166 16.5224 11.5942C15.9123 11.5517 15.2963 11.5834 14.6854 11.5913C14.6818 11.7758 14.6715 11.9595 14.6649 12.1439C14.7236 12.1705 14.7786 12.2066 14.8343 12.2505C15.1108 12.4378 15.4034 12.5812 15.7084 12.7152C15.9548 12.8146 16.2049 12.9089 16.4557 13.0004C16.5914 13.0494 16.7028 13.1171 16.7776 13.2432C16.8502 13.3657 16.8708 13.5141 16.8319 13.6502C16.7945 13.7835 16.7043 13.8973 16.5848 13.9679C16.4704 14.0342 16.2988 14.0688 16.1704 14.0212C15.7986 13.8822 15.4327 13.728 15.0712 13.5659C14.9135 13.4961 14.7573 13.4211 14.6055 13.3397C14.5974 13.4528 14.5945 13.5659 14.5791 13.6783C14.5593 13.8238 14.5336 13.9679 14.5094 14.1127C14.7859 14.4109 15.0932 14.6811 15.4085 14.9339C15.7825 15.2336 16.1404 15.5513 16.518 15.846C17.0028 16.1925 17.519 16.4957 18.0331 16.7976C18.5479 17.0994 19.0752 17.3717 19.6215 17.6131C19.678 17.6361 19.7345 17.6592 19.7909 17.6829C19.8342 17.6138 19.8767 17.5439 19.9127 17.4704C20.0124 17.219 20.0857 16.9611 20.1598 16.7003C20.2441 16.3985 20.3087 16.088 20.3629 15.7804C20.4172 15.4699 20.4773 15.1623 20.5404 14.8533C20.5947 14.5874 20.6365 14.3209 20.6746 14.0515C20.7391 13.5263 20.7765 13.0004 20.811 12.4724C20.8469 11.9371 20.8851 11.4033 20.9225 10.8688C20.9577 10.3328 20.9481 9.79398 20.9276 9.25585Z" fill="#C1C9E5"/>
</svg>
