<svg width="22" height="22" viewBox="0 0 22 22" fill="none" xmlns="http://www.w3.org/2000/svg">
<path fill-rule="evenodd" clip-rule="evenodd" d="M11.095 1.14844C8.94773 1.14843 7.26489 1.14842 5.95189 1.32495C4.60794 1.50564 3.54746 1.8827 2.71508 2.71508C1.8827 3.54746 1.50564 4.60794 1.32495 5.95189C1.14842 7.26489 1.14843 8.94771 1.14844 11.095V11.2018C1.14843 13.3492 1.14842 15.032 1.32495 16.345C1.50564 17.6889 1.8827 18.7495 2.71508 19.5818C3.54746 20.4142 4.60794 20.7912 5.95189 20.972C7.26489 21.1484 8.94772 21.1484 11.095 21.1484H11.2018C13.3492 21.1484 15.032 21.1484 16.345 20.972C17.6889 20.7912 18.7495 20.4142 19.5818 19.5818C20.4142 18.7495 20.7912 17.6889 20.972 16.345C21.1484 15.032 21.1484 13.3492 21.1484 11.2018V11.095C21.1484 8.94772 21.1484 7.26489 20.972 5.95189C20.7912 4.60794 20.4142 3.54746 19.5818 2.71508C18.7495 1.8827 17.6889 1.50564 16.345 1.32495C15.032 1.14842 13.3492 1.14843 11.2018 1.14844H11.095ZM10.4508 2.54405C8.59615 2.546 7.21603 2.56289 6.13781 2.70785C4.9486 2.86774 4.23165 3.17182 3.70174 3.70174C3.17182 4.23165 2.86774 4.9486 2.70785 6.13781C2.56289 7.21603 2.546 8.59615 2.54405 10.4508H6.41705C6.09057 10.0429 5.84662 9.56193 5.71361 9.02986C5.2129 7.02705 7.02705 5.2129 9.02986 5.71361C9.56193 5.84662 10.0429 6.09057 10.4508 6.41705V2.54405ZM2.54405 11.8461C2.546 13.7007 2.56289 15.0808 2.70785 16.159C2.86774 17.3483 3.17182 18.0652 3.70174 18.5951C4.23165 19.1251 4.9486 19.4292 6.13781 19.589C7.21603 19.734 8.59615 19.7509 10.4508 19.7528V13.1239C9.72555 14.5725 8.22754 15.567 6.49727 15.567C6.11196 15.567 5.7996 15.2547 5.7996 14.8694C5.7996 14.4841 6.11196 14.1717 6.49727 14.1717C7.92685 14.1717 9.12467 13.1795 9.4396 11.8461H9.32062H9.31207H2.54405ZM11.8461 19.7528C13.7007 19.7509 15.0808 19.734 16.159 19.589C17.3483 19.4292 18.0652 19.1251 18.5951 18.5951C19.1251 18.0652 19.4292 17.3483 19.589 16.159C19.734 15.0808 19.7509 13.7007 19.7528 11.8461H12.9848H12.9763H12.8573C13.1723 13.1795 14.37 14.1717 15.7996 14.1717C16.1849 14.1717 16.4973 14.4841 16.4973 14.8694C16.4973 15.2547 16.1849 15.567 15.7996 15.567C14.0694 15.567 12.5713 14.5725 11.8461 13.1239V19.7528ZM19.7528 10.4508H15.8799C16.2063 10.0429 16.4503 9.56193 16.5833 9.02986C17.084 7.02705 15.2698 5.2129 13.267 5.71361C12.7349 5.84662 12.2539 6.09057 11.8461 6.41705V2.54405C13.7007 2.546 15.0808 2.56289 16.159 2.70785C17.3483 2.86774 18.0652 3.17182 18.5951 3.70174C19.1251 4.23165 19.4292 4.9486 19.589 6.13781C19.734 7.21603 19.7509 8.59615 19.7528 10.4508ZM11.8461 10.4508V9.31504C11.8486 8.25159 12.5733 7.32534 13.6055 7.06729C14.5863 6.82207 15.4749 7.71056 15.2296 8.69143C14.9716 9.72323 14.046 10.4477 12.983 10.4508H11.8461ZM10.4508 9.31355C10.4476 8.25071 9.72313 7.32522 8.69143 7.06729C7.71056 6.82207 6.82207 7.71056 7.06729 8.69143C7.32524 9.72323 8.25088 10.4477 9.31383 10.4508H10.4508V9.31355Z" fill="#C1C9E5"/>
</svg>
