<svg width="22" height="22" viewBox="0 0 22 22" fill="none" xmlns="http://www.w3.org/2000/svg">
<path d="M3.97883 8.68508C1.99294 7.89073 1 7.49355 1 7C1 6.50645 1.99294 6.10927 3.97883 5.31492L6.7873 4.19153C8.77318 3.39718 9.7661 3 11 3C12.2339 3 13.2268 3.39718 15.2127 4.19153L18.0212 5.31492C20.0071 6.10927 21 6.50645 21 7C21 7.49355 20.0071 7.89073 18.0212 8.68508L15.2127 9.8085C13.2268 10.6028 12.2339 11 11 11C9.7661 11 8.77318 10.6028 6.7873 9.8085L3.97883 8.68508Z" stroke="#C1C9E5" stroke-width="1.2"/>
<path d="M21 11C21 11 20.0071 11.8907 18.0212 12.6851L15.2127 13.8085C13.2268 14.6028 12.2339 15 11 15C9.7661 15 8.77318 14.6028 6.7873 13.8085L3.97883 12.6851C1.99294 11.8907 1 11 1 11" stroke="#C1C9E5" stroke-width="1.2" stroke-linecap="round"/>
<path d="M21 15C21 15 20.0071 15.8907 18.0212 16.6851L15.2127 17.8085C13.2268 18.6028 12.2339 19 11 19C9.7661 19 8.77318 18.6028 6.7873 17.8085L3.97883 16.6851C1.99294 15.8907 1 15 1 15" stroke="#C1C9E5" stroke-width="1.2" stroke-linecap="round"/>
</svg>
