<svg width="22" height="22" viewBox="0 0 22 22" fill="none" xmlns="http://www.w3.org/2000/svg">
<path d="M10.5943 20.2297C10.5943 20.0257 10.6726 19.8301 10.812 19.6858C10.9514 19.5416 11.1404 19.4605 11.3375 19.4605C13.2068 19.4605 15.0197 18.7975 16.474 17.582C17.9283 16.3664 18.9362 14.6717 19.3297 12.7803C19.7232 10.8889 19.4786 8.915 18.6366 7.18762C17.7946 5.46024 16.4061 4.08369 14.7025 3.28737C12.9988 2.49105 11.083 2.32307 9.27417 2.81141C7.46539 3.29976 5.87292 4.41493 4.76217 5.97109C3.65141 7.52725 3.08946 9.4304 3.16996 11.3634C3.25046 13.2963 3.96856 15.1424 5.20457 16.5938V13.8892C5.20457 13.6852 5.28287 13.4896 5.42225 13.3453C5.56163 13.201 5.75067 13.12 5.94778 13.12C6.14489 13.12 6.33392 13.201 6.4733 13.3453C6.61268 13.4896 6.69098 13.6852 6.69098 13.8892V18.241C6.69098 18.3421 6.67173 18.4422 6.63432 18.5356C6.5969 18.629 6.54207 18.7139 6.47295 18.7853C6.40383 18.8568 6.32179 18.9134 6.2315 18.952C6.14122 18.9906 6.04447 19.0104 5.94679 19.0103H1.74321C1.5461 19.0103 1.35706 18.9292 1.21768 18.785C1.0783 18.6407 1 18.445 1 18.241C1 18.037 1.0783 17.8414 1.21768 17.6971C1.35706 17.5528 1.5461 17.4718 1.74321 17.4718H3.97283C2.54807 15.7348 1.73919 13.5462 1.68009 11.2685C1.62099 8.9907 2.31522 6.76037 3.64785 4.94669C4.98048 3.13301 6.87159 1.84475 9.00808 1.29521C11.1446 0.745659 13.3983 0.967773 15.3962 1.92478C17.3941 2.88178 19.0163 4.51628 19.9943 6.55768C20.9723 8.59908 21.2474 10.9249 20.774 13.1502C20.3006 15.3755 19.1072 17.3667 17.3913 18.7942C15.6754 20.2218 13.54 21 11.3385 21C11.2407 21.0001 11.1439 20.9803 11.0536 20.9416C10.9632 20.903 10.8811 20.8463 10.812 20.7747C10.7429 20.7031 10.688 20.6182 10.6507 20.5247C10.6133 20.4312 10.5942 20.3309 10.5943 20.2297ZM13.4433 15.2923L10.8103 12.5692C10.671 12.4246 10.5927 12.2288 10.5923 12.0246V6.69129C10.5923 6.48728 10.6706 6.29162 10.81 6.14736C10.9494 6.0031 11.1384 5.92206 11.3355 5.92206C11.5326 5.92206 11.7217 6.0031 11.8611 6.14736C12.0004 6.29162 12.0787 6.48728 12.0787 6.69129V11.7056L14.4927 14.2041C14.5636 14.2751 14.6202 14.36 14.6591 14.4539C14.698 14.5477 14.7185 14.6487 14.7193 14.7508C14.7201 14.853 14.7012 14.9542 14.6638 15.0488C14.6264 15.1433 14.5712 15.2291 14.5014 15.3013C14.4316 15.3735 14.3486 15.4306 14.2572 15.4692C14.1659 15.5079 14.068 15.5273 13.9693 15.5263C13.8706 15.5254 13.7731 15.5041 13.6824 15.4638C13.5918 15.4234 13.5098 15.3648 13.4413 15.2913L13.4433 15.2923Z" fill="#C1C9E5"/>
</svg>
