<svg width="22" height="22" viewBox="0 0 22 22" fill="none" xmlns="http://www.w3.org/2000/svg">
<path fill-rule="evenodd" clip-rule="evenodd" d="M6.81247 1.33227C7.89423 1.14976 9.29991 1 11.0002 1C12.7004 1 14.106 1.14976 15.1878 1.33227L15.3133 1.35333C16.253 1.51063 17.034 1.64139 17.6448 2.39356C18.0366 2.87598 18.1629 3.39733 18.192 3.97974L18.6494 4.1322C19.0802 4.27579 19.4578 4.40163 19.7574 4.54099C20.0812 4.69165 20.378 4.88571 20.6049 5.20051C20.8318 5.51531 20.922 5.85825 20.9626 6.21313C21 6.5414 21 6.93942 21 7.39354V7.52863C21 7.90239 21 8.23255 20.9724 8.50864C20.9425 8.80789 20.8763 9.0988 20.7108 9.37991C20.5454 9.66112 20.3233 9.86028 20.0762 10.0317C19.8482 10.19 19.5596 10.3502 19.2328 10.5317L16.7765 11.8965C16.2747 12.8837 15.5853 13.764 14.6373 14.3998C13.8236 14.9455 12.8494 15.291 11.6977 15.3895V17.2791H13.0281C13.8041 17.2791 14.4722 17.8268 14.6244 18.5877L14.8278 19.6047H16.5814C16.9667 19.6047 17.2791 19.917 17.2791 20.3023C17.2791 20.6876 16.9667 21 16.5814 21H5.41861C5.03329 21 4.72093 20.6876 4.72093 20.3023C4.72093 19.917 5.03329 19.6047 5.41861 19.6047H7.17223L7.37562 18.5877C7.52781 17.8268 8.19593 17.2791 8.97192 17.2791H10.3023V15.3895C9.1507 15.2909 8.17656 14.9455 7.36295 14.3998C6.41502 13.764 5.72575 12.8839 5.22398 11.8967L2.76709 10.5317C2.44034 10.3502 2.15175 10.19 1.92379 10.0317C1.67673 9.86028 1.45458 9.66112 1.28915 9.37991C1.12371 9.0988 1.05749 8.80789 1.02758 8.50864C0.999993 8.23253 1 7.9024 1.00001 7.52862L1 7.39353C0.999965 6.93942 0.999928 6.5414 1.0374 6.21313C1.07791 5.85825 1.16815 5.51531 1.39503 5.20051C1.62193 4.88571 1.91872 4.69165 2.24258 4.54099C2.54215 4.40163 2.91975 4.27579 3.35057 4.1322L3.80829 3.97963C3.83743 3.39727 3.9638 2.87594 4.35546 2.39356C4.9662 1.64139 5.74729 1.51063 6.68703 1.35333L6.81247 1.33227ZM8.59522 19.6047H13.4048L13.2561 18.8614C13.2344 18.7527 13.139 18.6744 13.0281 18.6744H8.97192C8.86106 18.6744 8.76562 18.7527 8.74388 18.8614L8.59522 19.6047ZM3.83917 5.44017L3.8265 5.44439C3.35077 5.60297 3.04988 5.70437 2.83114 5.80614C2.62865 5.90034 2.56351 5.96574 2.52702 6.01637C2.49052 6.067 2.44907 6.14949 2.42375 6.37137C2.39638 6.61108 2.39534 6.92859 2.39536 7.43006V7.49753C2.39537 7.91165 2.39618 8.1714 2.41601 8.36989C2.4343 8.55288 2.46445 8.62592 2.49175 8.67232C2.51905 8.71872 2.56826 8.78053 2.71934 8.88539C2.88323 8.99913 3.1099 9.12597 3.4719 9.32707L4.46324 9.87786C4.06549 8.41745 3.90574 6.8544 3.83917 5.44017ZM17.5371 9.87768C17.9348 8.41734 18.0945 6.85441 18.1611 5.44028L18.1735 5.44439C18.6492 5.60297 18.95 5.70437 19.1688 5.80614C19.3713 5.90034 19.4365 5.96574 19.4729 6.01637C19.5095 6.067 19.5509 6.14949 19.5762 6.37137C19.6035 6.61108 19.6047 6.92859 19.6047 7.43006V7.49753C19.6046 7.91165 19.6038 8.1714 19.5839 8.36989C19.5657 8.55288 19.5355 8.62592 19.5082 8.67232C19.4809 8.71872 19.4317 8.78053 19.2807 8.88539C19.1167 8.99913 18.89 9.12597 18.5281 9.32707L17.5371 9.87768ZM11.0002 2.39535C9.38214 2.39535 8.05413 2.53785 7.04462 2.70818C5.9219 2.8976 5.68606 2.96847 5.43871 3.2731C5.19494 3.57332 5.1718 3.85727 5.22184 5.11788C5.30526 7.21895 5.58242 9.48623 6.44078 11.2106C6.86449 12.0618 7.41845 12.7569 8.14018 13.2409C8.85727 13.722 9.78242 14.0233 11.0002 14.0233C12.2179 14.0233 13.143 13.722 13.8601 13.2409C14.5819 12.7569 15.1358 12.0618 15.5595 11.2106C16.4179 9.48623 16.6951 7.21895 16.7784 5.11788C16.8285 3.85727 16.8053 3.57332 16.5616 3.2731C16.3142 2.96847 16.0784 2.8976 14.9557 2.70818C13.9461 2.53785 12.6181 2.39535 11.0002 2.39535Z" fill="#C1C9E5"/>
</svg>
