<svg width="22" height="22" viewBox="0 0 22 22" fill="none" xmlns="http://www.w3.org/2000/svg">
<path d="M21.9772 6.979L18.306 20.5123C18.2265 20.8057 17.9567 20.9997 17.6628 20.9998C17.606 20.9998 17.5483 20.9925 17.4908 20.9773L8.51032 18.6005C8.15578 18.5066 7.94462 18.1453 8.03967 17.7951L8.13651 17.4382C8.19758 17.2132 8.43175 17.0798 8.65956 17.14C8.88736 17.2003 9.02255 17.4316 8.96148 17.6566L8.91341 17.8338L17.5298 20.1142L21.1034 6.94043L17.4483 5.97305C17.2205 5.91273 17.0852 5.68143 17.1463 5.45641C17.2074 5.23139 17.4417 5.09796 17.6693 5.15814L21.5066 6.1737C21.8612 6.26762 22.0723 6.62884 21.9772 6.979ZM7.8828 2.76069C7.64692 2.76069 7.45574 2.94952 7.45574 3.18251V3.58394C7.45574 3.81693 7.64692 4.00576 7.8828 4.00576C8.11867 4.00576 8.30985 3.81693 8.30985 3.58394V3.18251C8.30985 2.94952 8.11867 2.76069 7.8828 2.76069ZM13.3282 8.41934C13.4327 8.56529 13.4327 8.76045 13.3282 8.90645L11.3488 11.6715C11.2687 11.7833 11.1387 11.8498 11.0001 11.8498C10.8615 11.8498 10.7314 11.7834 10.6514 11.6715L8.67189 8.90645C8.56741 8.7605 8.56741 8.56534 8.67189 8.41934L10.6514 5.65425C10.7315 5.54246 10.8615 5.47596 11.0001 5.47596C11.1387 5.47596 11.2687 5.54242 11.3488 5.65425L13.3282 8.41934ZM12.4565 8.66287L11.0001 6.62837L9.54365 8.66287L11.0001 10.6973L12.4565 8.66287ZM16.2762 17.9807L16.171 18.3685C16.11 18.5935 16.2452 18.8248 16.473 18.8851C16.51 18.8949 16.5472 18.8996 16.5838 18.8996C16.7724 18.8996 16.9449 18.7752 16.996 18.5868L17.1012 18.199C17.1622 17.974 17.027 17.7427 16.7992 17.6824C16.5714 17.622 16.3372 17.7557 16.2762 17.9807ZM5.33221 10.2543C5.45448 10.222 5.57211 10.2033 5.6859 10.1983V1.65753C5.6859 1.29495 5.9845 1 6.35153 1H15.6487C16.0158 1 16.3144 1.29495 16.3144 1.65753V10.1983C16.4281 10.2032 16.5457 10.2219 16.6679 10.2543C17.4514 10.4616 17.918 11.2599 17.7081 12.0338C17.505 12.7825 16.8563 13.3512 16.3144 13.74V15.6682C16.3144 16.0307 16.0158 16.3257 15.6487 16.3257H6.35153C5.9845 16.3257 5.6859 16.0307 5.6859 15.6682V13.7401C5.14392 13.3513 4.49523 12.7827 4.292 12.0338C4.19032 11.6591 4.24256 11.2675 4.4391 10.9313C4.63564 10.5952 4.95284 10.3547 5.33221 10.2543ZM16.3144 12.6511C16.6243 12.3618 16.809 12.0886 16.8831 11.8155C16.9711 11.491 16.7753 11.1562 16.4468 11.0692C16.3971 11.056 16.3533 11.048 16.3144 11.044V12.6511ZM6.54 15.4821H15.4603V13.5277C15.4602 13.5239 15.4602 13.5202 15.4603 13.5164V10.7086C15.4601 10.7025 15.4601 10.6964 15.4603 10.6903V1.84364H6.54V10.6904C6.54014 10.6965 6.54014 10.7027 6.54 10.7088V13.5162C6.54005 13.5201 6.54005 13.524 6.54 13.528V15.4821ZM5.11702 11.8155C5.19118 12.0887 5.37596 12.362 5.6859 12.6512V11.044C5.6469 11.048 5.60305 11.056 5.55332 11.0692C5.39422 11.1113 5.26122 11.2122 5.17875 11.3533C5.09633 11.4943 5.07441 11.6584 5.11702 11.8155ZM8.23621 19.1175L4.47042 20.1142L0.896656 6.94048L4.55179 5.97305C4.7796 5.91273 4.91483 5.68143 4.85377 5.45641C4.7927 5.23139 4.55839 5.09786 4.33077 5.15814L0.493566 6.17374C0.322081 6.21911 0.178639 6.32794 0.0896703 6.48017C0.000653756 6.63245 -0.0230713 6.80962 0.0229079 6.97905L3.69413 20.5122C3.74006 20.6817 3.85024 20.8234 4.00445 20.9114C4.10723 20.97 4.22116 21 4.33661 21C4.3943 21 4.45234 20.9925 4.50951 20.9774L8.45732 19.9326C8.68513 19.8722 8.82036 19.6409 8.7593 19.416C8.69818 19.1908 8.46401 19.0573 8.23621 19.1175ZM2.43409 7.48289C2.20628 7.54321 2.0711 7.77451 2.13212 7.99953L2.23731 8.38733C2.28847 8.57579 2.46099 8.70008 2.64956 8.70008C2.68615 8.70008 2.72335 8.6954 2.76036 8.6856C2.98817 8.62528 3.12335 8.39398 3.06233 8.16896L2.95713 7.78117C2.89606 7.5561 2.66199 7.42262 2.43409 7.48289ZM14.1174 13.32C13.8815 13.32 13.6903 13.5088 13.6903 13.7418V14.1432C13.6903 14.3762 13.8815 14.5651 14.1174 14.5651C14.3532 14.5651 14.5444 14.3762 14.5444 14.1432V13.7418C14.5444 13.5089 14.3532 13.32 14.1174 13.32Z" fill="#C1C9E5"/>
</svg>
