<svg width="20" height="20" viewBox="0 0 20 20" fill="none" xmlns="http://www.w3.org/2000/svg">
<path d="M14.3073 16.3991H5.69063C5.30563 16.3991 4.87479 16.0966 4.74646 15.7299L0.951462 5.1149C0.410629 3.59323 1.04313 3.12573 2.3448 4.06073L5.9198 6.61823C6.51563 7.03073 7.19396 6.8199 7.45063 6.15073L9.06396 1.85156C9.5773 0.476563 10.4298 0.476563 10.9431 1.85156L12.5565 6.15073C12.8131 6.8199 13.4915 7.03073 14.0781 6.61823L17.4331 4.22573C18.8631 3.19906 19.5506 3.72156 18.964 5.38073L15.2606 15.7482C15.1231 16.0966 14.6923 16.3991 14.3073 16.3991Z" stroke="#C1C9E5" stroke-width="1.5" stroke-linecap="round" stroke-linejoin="round"/>
<path d="M4.96094 19.1641H15.0443" stroke="#C1C9E5" stroke-width="1.5" stroke-linecap="round" stroke-linejoin="round"/>
<path d="M7.71094 11.8359H12.2943" stroke="#C1C9E5" stroke-width="1.5" stroke-linecap="round" stroke-linejoin="round"/>
</svg>
