<svg width="20" height="20" viewBox="0 0 20 20" fill="none" xmlns="http://www.w3.org/2000/svg">
<path d="M3.61712 7.89555C1.81176 7.17341 0.909088 6.81234 0.909088 6.36366C0.909088 5.91498 1.81176 5.5539 3.61712 4.83177L6.17027 3.8105C7.97562 3.08837 8.87827 2.72729 10 2.72729C11.1217 2.72729 12.0244 3.08837 13.8297 3.8105L16.3829 4.83177C18.1883 5.5539 19.0909 5.91498 19.0909 6.36366C19.0909 6.81234 18.1883 7.17341 16.3829 7.89555L13.8297 8.91684C12.0244 9.63893 11.1217 10 10 10C8.87827 10 7.97562 9.63893 6.17027 8.91684L3.61712 7.89555Z" stroke="#C1C9E5" stroke-width="1.2"/>
<path d="M19.0909 10C19.0909 10 18.1883 10.8097 16.3829 11.5319L13.8297 12.5532C12.0244 13.2753 11.1217 13.6364 10 13.6364C8.87827 13.6364 7.97562 13.2753 6.17027 12.5532L3.61712 11.5319C1.81176 10.8097 0.909088 10 0.909088 10" stroke="#C1C9E5" stroke-width="1.2" stroke-linecap="round"/>
<path d="M19.0909 13.6365C19.0909 13.6365 18.1883 14.4462 16.3829 15.1684L13.8297 16.1897C12.0244 16.9117 11.1217 17.2728 10 17.2728C8.87827 17.2728 7.97562 16.9117 6.17027 16.1897L3.61712 15.1684C1.81176 14.4462 0.909088 13.6365 0.909088 13.6365" stroke="#C1C9E5" stroke-width="1.2" stroke-linecap="round"/>
</svg>
