<svg width="22" height="22" viewBox="0 0 22 22" fill="none" xmlns="http://www.w3.org/2000/svg">
<path d="M8.5927 22C8.52316 22 8.4529 21.9866 8.38526 21.9587C8.1482 21.8611 8.00013 21.6094 8.02173 21.3407L8.61021 14.0115H2.57322C2.38487 14.0115 2.20856 13.9134 2.10154 13.749C1.99452 13.5847 1.97045 13.3751 2.03719 13.1883L6.60841 0.39252C6.69282 0.156277 6.90622 0 7.14441 0H16.5694C16.7615 0 16.9408 0.102094 17.047 0.271906C17.1532 0.441719 17.1722 0.656691 17.0974 0.844293L15.0955 5.86777H19.4268C19.6452 5.86777 19.8446 5.99943 19.9411 6.20722C20.0376 6.41502 20.0142 6.66295 19.8809 6.84643L17.9026 9.57013C17.7095 9.83615 17.3496 9.88556 17.0988 9.68082C16.8479 9.47598 16.8012 9.09438 16.9944 8.82845L18.2619 7.0834H14.231C14.0388 7.0834 13.8595 6.9813 13.7533 6.81149C13.6471 6.64168 13.6282 6.42671 13.703 6.23911L15.7049 1.21554H7.54028L3.40326 12.7958H9.23426C9.39477 12.7958 9.54786 12.8672 9.65643 12.9925C9.76499 13.1178 9.81904 13.2856 9.80539 13.4551L9.32953 19.3818L14.2718 12.5771C14.465 12.3111 14.8249 12.2617 15.0757 12.4664C15.3265 12.6713 15.3732 13.0529 15.1801 13.3188L9.04692 21.763C8.93601 21.9158 8.76675 22 8.5927 22Z" fill="#B6BFD8"/>
<path d="M11.7335 10.9726H5.89648L8.73074 3.03906H13.0721L10.7338 8.90687H14.6814L11.1466 14.5244L11.7335 10.9726Z" fill="#B6BFD8" fill-opacity="0.5"/>
<path d="M11.1434 15.1307C11.0721 15.1307 10.9999 15.1166 10.9305 15.0871C10.6788 14.9802 10.5322 14.7011 10.579 14.418L11.0482 11.5789H5.89354C5.70519 11.5789 5.52887 11.4808 5.42185 11.3164C5.31483 11.1521 5.29076 10.9425 5.3575 10.7558L8.19167 2.82221C8.27604 2.58596 8.48943 2.42969 8.72771 2.42969H13.0691C13.2613 2.42969 13.4406 2.53178 13.5468 2.70159C13.653 2.87141 13.6719 3.08638 13.5971 3.27398L11.5953 8.29746H14.6784C14.8898 8.29746 15.0841 8.42091 15.1838 8.61856C15.2835 8.81622 15.2725 9.05611 15.1552 9.24255L11.6203 14.8602C11.5113 15.0333 11.3304 15.1307 11.1434 15.1307ZM6.72349 10.3633H11.7305C11.8998 10.3633 12.0605 10.4427 12.1694 10.5802C12.2782 10.7177 12.3243 10.8992 12.2951 11.076L12.1781 11.7837L13.6069 9.51309H10.7308C10.5386 9.51309 10.3593 9.41099 10.2532 9.24118C10.147 9.07137 10.1281 8.85639 10.2029 8.66879L12.2047 3.64532H9.12354L6.72349 10.3633Z" fill="#B6BFD8"/>
</svg>
