<svg width="22" height="22" viewBox="0 0 22 22" fill="none" xmlns="http://www.w3.org/2000/svg">
<path d="M4.51328 19.4125C5.45133 20.1492 6.56225 20.667 7.75499 20.9235C7.86913 20.9585 7.94593 20.8185 7.86913 20.7485C5.31437 18.4635 6.71815 15.9905 7.75499 14.8756C8.49421 14.0796 9.54705 12.7686 9.47025 11.0106C9.47025 10.8346 9.66225 10.6936 9.81372 10.7996C11.2634 11.5026 12.2543 13.0496 12.521 14.3146C12.9413 13.9286 13.0938 13.3306 13.0938 12.8036C13.0938 12.6276 13.3221 12.4866 13.513 12.6276C14.8859 13.7876 17.2497 17.7245 13.4362 20.8175C13.3605 20.8885 13.4362 21.0295 13.513 20.9945C14.6694 20.7103 15.7568 20.2208 16.7164 19.5525C22.932 15.0526 18.8892 7.07262 16.2577 4.43664C15.9153 4.11964 15.3051 4.33064 15.3051 4.78764C15.2667 5.73763 14.9616 6.79162 14.1616 7.49462C13.5514 5.10464 11.5183 2.38966 8.62008 1.05367C8.23927 0.877671 7.78166 1.15867 7.82006 1.54567C7.89473 4.81564 5.61945 6.89762 3.63645 9.6046C1.88173 12.0296 0.738223 16.4945 4.51328 19.4125Z" fill="#B6BFD8" stroke="#B6BFD8"/>
</svg>
