<svg width="22" height="22" viewBox="0 0 22 22" fill="none" xmlns="http://www.w3.org/2000/svg">
<path d="M18 8.49995C18 4.36441 14.6355 1 10.5 1C6.3645 1 3 4.36441 3 8.49995C3 11.1117 4.34227 13.4155 6.3729 14.759V20.5832C6.3729 20.7441 6.46548 20.8906 6.61075 20.9596C6.66771 20.9867 6.7288 21 6.78958 21C6.88368 21 6.97696 20.9681 7.05278 20.9064L10.4999 18.0996L13.9471 20.9063C14.0719 21.0079 14.2441 21.0285 14.3893 20.9593C14.5346 20.8902 14.6272 20.7435 14.627 20.5826L14.6209 14.763C16.655 13.4202 18 11.1144 18 8.49995ZM10.7631 17.239C10.6098 17.1142 10.39 17.1142 10.2368 17.239L7.20642 19.7064V15.2368C8.20122 15.7252 9.31904 15.9999 10.5 15.9999C11.6787 15.9999 12.7946 15.7263 13.788 15.2397L13.7926 19.7056L10.7631 17.239ZM10.5 15.1664C6.82407 15.1664 3.83348 12.1758 3.83348 8.49995C3.83348 4.82405 6.82407 1.83347 10.5 1.83347C14.1759 1.83347 17.1665 4.82405 17.1665 8.49995C17.1665 12.1758 14.1759 15.1664 10.5 15.1664Z" fill="#B6BFD8" stroke="#B6BFD8" stroke-width="0.3"/>
<path d="M10.9181 3.08473C10.9181 2.85457 10.7316 2.66797 10.5014 2.66797C7.28485 2.66797 4.66797 5.2848 4.66797 8.50136C4.66797 8.58932 4.67008 8.67932 4.67418 8.7687C4.68445 8.9921 4.86875 9.16632 5.09012 9.16632C5.09652 9.16632 5.10309 9.1662 5.10957 9.16585C5.33953 9.15526 5.51731 8.9603 5.50672 8.73042C5.50317 8.65366 5.50137 8.57659 5.50137 8.50132C5.50137 5.74437 7.7443 3.5014 10.5013 3.5014C10.7316 3.50144 10.9181 3.31488 10.9181 3.08473Z" fill="#B6BFD8" stroke="#B6BFD8" stroke-width="0.3"/>
<path d="M16.3261 8.23354C16.3154 8.00362 16.1199 7.82444 15.8906 7.83651C15.6606 7.84714 15.4829 8.04218 15.4935 8.27206C15.497 8.34714 15.4987 8.42417 15.4987 8.501C15.4987 11.258 13.2558 13.5009 10.4988 13.5009C10.2687 13.5009 10.082 13.6875 10.082 13.9177C10.082 14.1478 10.2686 14.3344 10.4988 14.3344C13.7154 14.3344 16.3322 11.7176 16.3322 8.50104C16.3322 8.41136 16.3302 8.32139 16.3261 8.23354Z" fill="#B6BFD8" stroke="#B6BFD8" stroke-width="0.3"/>
<path d="M10.4989 11.9608C10.4989 11.9608 10.499 11.9608 10.4991 11.9608C10.6307 11.9608 10.7548 11.8986 10.8334 11.793L11.7175 10.605L13.1842 10.4356C13.3151 10.4205 13.4311 10.3443 13.4971 10.2301C13.5631 10.116 13.5711 9.97745 13.5189 9.85644L12.9322 8.49687L13.5188 7.14199C13.5711 7.02105 13.5631 6.88246 13.4973 6.76824C13.4315 6.6541 13.3155 6.57777 13.1846 6.56246L11.7138 6.3907L10.8337 5.20539C10.7551 5.09957 10.6311 5.03719 10.4993 5.03711C10.4992 5.03711 10.4991 5.03711 10.4991 5.03711C10.3674 5.03711 10.2434 5.09937 10.1648 5.20504L9.28078 6.39293L7.81422 6.56238C7.68328 6.57746 7.56726 6.65363 7.50125 6.76781C7.43531 6.88191 7.42718 7.0205 7.47945 7.14152L8.06613 8.50109L7.47961 9.85597C7.42726 9.9769 7.43523 10.1155 7.50101 10.2297C7.56687 10.3439 7.68285 10.4202 7.81375 10.4355L9.28449 10.6073L10.1646 11.7926C10.2431 11.8984 10.367 11.9608 10.4989 11.9608ZM9.55992 9.80026L8.46715 9.67265L8.90246 8.66691C8.94813 8.56144 8.9482 8.44179 8.90266 8.33624L8.46676 7.32609L9.55535 7.20031C9.66953 7.18714 9.77324 7.12734 9.84188 7.03511L10.4988 6.1525L11.152 7.0323C11.2205 7.12457 11.3241 7.18441 11.4382 7.19781L12.5311 7.32543L12.0958 8.33117C12.0501 8.43663 12.0501 8.55628 12.0956 8.66187L12.5316 9.67202L11.4429 9.7978C11.3288 9.81097 11.225 9.87077 11.1565 9.96296L10.4995 10.8457L9.84621 9.96581C9.77766 9.87343 9.67406 9.81358 9.55992 9.80026Z" fill="#B6BFD8" stroke="#B6BFD8" stroke-width="0.3"/>
<path d="M5.66398 9.77856C5.60109 9.55711 5.37034 9.42758 5.14897 9.49051C4.92757 9.5534 4.79878 9.78282 4.86163 10.0042L4.86487 10.0162C4.91702 10.1997 5.08448 10.3201 5.2664 10.3201C5.3039 10.3201 5.34198 10.315 5.37991 10.3043C5.60132 10.2414 5.73011 10.012 5.6673 9.79055L5.66398 9.77856Z" fill="#B6BFD8" stroke="#B6BFD8" stroke-width="0.3"/>
<path d="M15.7354 7.52498C15.7692 7.52498 15.8037 7.5208 15.8379 7.51209C16.0611 7.45565 16.1962 7.22897 16.1397 7.00588C16.1381 6.99955 16.1364 6.99299 16.1347 6.98662C16.0731 6.76487 15.8434 6.63537 15.6216 6.69698C15.3999 6.75858 15.2701 6.98862 15.3317 7.21037C15.3795 7.39924 15.5491 7.52498 15.7354 7.52498Z" fill="#B6BFD8" stroke="#B6BFD8" stroke-width="0.3"/>
</svg>
