<svg width="68" height="45" viewBox="0 0 68 45" fill="none" xmlns="http://www.w3.org/2000/svg">
<rect x="0.5" width="67.5" height="45" rx="4" fill="#10202D"/>
<path d="M28.2256 18.0208C28.9589 18.0208 29.7972 18.1219 30.4258 18.5247V20.5393C29.9019 19.935 29.0637 19.5325 28.2256 19.5325C26.5495 19.6334 25.1875 21.043 25.292 22.6546V22.8567C25.2922 24.4684 26.6548 25.677 28.3311 25.677C29.1689 25.6769 29.902 25.2743 30.4258 24.6702V26.6848C29.6925 26.9869 28.9591 27.1878 28.1211 27.1878C25.5017 27.1877 23.4062 25.0724 23.4062 22.554C23.4064 19.935 25.5017 17.8195 28.2256 18.0208ZM44.6768 24.0637L47.1914 18.0198H49.0771L45.2002 27.1868H44.2578L40.3809 18.0198H42.2666L44.6768 24.0637ZM19.8438 17.8186C20.7867 17.8186 21.7295 18.222 22.4629 18.8264L21.5205 20.0354C21.1015 19.6326 20.5774 19.3295 20.0537 19.3294C19.4251 19.2286 18.9007 19.7327 18.7959 20.3372C18.7959 20.8409 19.1105 21.0426 20.1582 21.4456C22.2535 22.2514 22.7771 22.8559 22.8818 24.0647V24.3665C22.7771 25.9782 21.4155 27.1868 19.7393 27.0862C18.482 27.0862 17.2244 26.4823 16.5957 25.3743L17.748 24.2659C18.0623 24.9709 18.7958 25.4747 19.6338 25.4749H19.7393C20.3678 25.4747 20.9961 24.8703 20.9961 24.1653C20.9961 23.7625 20.7868 23.4605 20.4727 23.259C20.0536 23.0576 19.6339 22.8559 19.2148 22.7551C17.5386 22.2515 17.0146 21.546 17.0146 20.3372V20.2366C17.1194 18.8263 18.3769 17.7179 19.8438 17.8186ZM8.94824 18.0198C11.4627 18.1207 13.4534 20.1354 13.3486 22.553C13.3485 23.8624 12.7195 25.0712 11.6719 25.9778C10.7289 26.6829 9.57627 27.0863 8.42383 26.9856H5.80469V18.0198H8.94824ZM58.7168 18.0198C60.8123 18.0198 61.9648 18.9264 61.9648 20.6389C62.0694 21.9484 61.1263 23.0566 59.8691 23.2581L62.6982 26.9856H60.498L58.0889 23.3587H57.8789V26.9856H56.0977V18.0198H58.7168ZM15.8633 26.9846H14.082V18.0198H15.8633V26.9846ZM54.9434 19.5305H51.6953V21.5452H54.8389V23.0559H51.6953V25.4739H54.9434V26.9846H49.9141V18.0198H54.9434V19.5305ZM10.5195 20.2366C9.89088 19.7329 8.94756 19.4308 8.10938 19.5315H7.58594V25.4758H8.10938C8.94748 25.5766 9.89089 25.2734 10.5195 24.7698C11.1479 24.1655 11.4627 23.3597 11.4629 22.4534C11.4629 21.6475 11.1481 20.8411 10.5195 20.2366ZM57.8789 22.1506H58.4023C59.5547 22.1506 60.079 21.646 60.0791 20.7395C60.079 19.9337 59.5547 19.4299 58.4023 19.4299H57.8789V22.1506Z" fill="#C1C9E5"/>
<path fill-rule="evenodd" clip-rule="evenodd" d="M35.7708 17.8125C33.1514 17.8125 30.9512 19.8273 30.9512 22.4465C30.9512 24.9649 33.0467 27.0804 35.7708 27.1811C38.495 27.2819 40.5905 25.1664 40.6953 22.5472C40.5905 19.928 38.495 17.8125 35.7708 17.8125V17.8125Z" fill="#C1C9E5"/>
</svg>
